M48
;DRILL file {KiCad no-vcs-found-7613~57~ubuntu16.04.1} date Sun Feb 12 00:19:16 2017
;FORMAT={-:-/ absolute / inch / decimal}
FMAT,2
INCH,TZ
T1C0.025
T2C0.040
T3C0.063
%
G90
G05
M72
T1
X4.22Y-4.2278
X4.69Y-5.28
X4.925Y-4.995
X5.015Y-5.355
X6.4Y-5.1
T2
X4.0177Y-4.0406
X4.0177Y-4.1406
X4.1Y-5.41
X4.1Y-5.51
X4.1Y-5.61
X4.1Y-5.71
X4.1Y-5.81
X4.1Y-5.91
X4.1177Y-4.0406
X4.1177Y-4.1406
X4.2177Y-4.0406
X4.2177Y-4.1406
X4.305Y-5.98
X4.3177Y-4.0406
X4.3177Y-4.1406
X4.405Y-5.98
X4.4177Y-4.0406
X4.4177Y-4.1406
X4.505Y-5.98
X4.5177Y-4.0406
X4.5177Y-4.1406
X4.605Y-5.98
X4.6177Y-4.0406
X4.6177Y-4.1406
X4.705Y-5.98
X4.7177Y-4.0406
X4.7177Y-4.1406
X4.8177Y-4.0406
X4.8177Y-4.1406
X4.855Y-5.98
X4.9177Y-4.0406
X4.9177Y-4.1406
X4.955Y-5.98
X5.0177Y-4.0406
X5.0177Y-4.1406
X5.055Y-5.98
X5.1177Y-4.0406
X5.1177Y-4.1406
X5.155Y-5.98
X5.2177Y-4.0406
X5.2177Y-4.1406
X5.255Y-5.98
X5.405Y-5.98
X5.505Y-5.98
X5.605Y-5.98
X5.705Y-5.98
X5.805Y-5.98
X5.955Y-5.98
X6.0425Y-4.34
X6.0425Y-4.44
X6.0425Y-4.54
X6.0425Y-4.64
X6.0425Y-4.74
X6.0425Y-4.84
X6.0425Y-4.94
X6.0425Y-5.04
X6.055Y-5.98
X6.155Y-5.98
X6.255Y-5.98
X6.355Y-5.98
T3
X4.475Y-4.475
X4.475Y-4.675
X4.475Y-4.875
X4.475Y-5.075
T0
M30
