G04 #@! TF.GenerationSoftware,KiCad,Pcbnew,no-vcs-found-7613~57~ubuntu16.04.1*
G04 #@! TF.CreationDate,2017-02-12T00:19:34-08:00*
G04 #@! TF.ProjectId,access-pi,6163636573732D70692E6B696361645F,rev?*
G04 #@! TF.FileFunction,Copper,L1,Top,Signal*
G04 #@! TF.FilePolarity,Positive*
%FSLAX46Y46*%
G04 Gerber Fmt 4.6, Leading zero omitted, Abs format (unit mm)*
G04 Created by KiCad (PCBNEW no-vcs-found-7613~57~ubuntu16.04.1) date Sun Feb 12 00:19:34 2017*
%MOMM*%
%LPD*%
G01*
G04 APERTURE LIST*
%ADD10C,0.150000*%
%ADD11C,0.250000*%
%ADD12R,2.800000X2.800000*%
%ADD13O,2.800000X3.200000*%
%ADD14R,1.727200X1.727200*%
%ADD15O,1.727200X1.727200*%
%ADD16R,0.900000X1.200000*%
%ADD17R,1.200000X0.750000*%
%ADD18R,1.727200X2.032000*%
%ADD19O,1.727200X2.032000*%
%ADD20R,2.032000X1.727200*%
%ADD21O,2.032000X1.727200*%
%ADD22R,1.500000X0.600000*%
%ADD23C,0.889000*%
%ADD24C,0.400000*%
%ADD25C,0.025400*%
G04 APERTURE END LIST*
D10*
D11*
X150669666Y-148804380D02*
X151288714Y-148804380D01*
X150955380Y-149185333D01*
X151098238Y-149185333D01*
X151193476Y-149232952D01*
X151241095Y-149280571D01*
X151288714Y-149375809D01*
X151288714Y-149613904D01*
X151241095Y-149709142D01*
X151193476Y-149756761D01*
X151098238Y-149804380D01*
X150812523Y-149804380D01*
X150717285Y-149756761D01*
X150669666Y-149709142D01*
X136747285Y-148899619D02*
X136794904Y-148852000D01*
X136890142Y-148804380D01*
X137128238Y-148804380D01*
X137223476Y-148852000D01*
X137271095Y-148899619D01*
X137318714Y-148994857D01*
X137318714Y-149090095D01*
X137271095Y-149232952D01*
X136699666Y-149804380D01*
X137318714Y-149804380D01*
X123348714Y-149804380D02*
X122777285Y-149804380D01*
X123063000Y-149804380D02*
X123063000Y-148804380D01*
X122967761Y-148947238D01*
X122872523Y-149042476D01*
X122777285Y-149090095D01*
X109045380Y-148804380D02*
X109140619Y-148804380D01*
X109235857Y-148852000D01*
X109283476Y-148899619D01*
X109331095Y-148994857D01*
X109378714Y-149185333D01*
X109378714Y-149423428D01*
X109331095Y-149613904D01*
X109283476Y-149709142D01*
X109235857Y-149756761D01*
X109140619Y-149804380D01*
X109045380Y-149804380D01*
X108950142Y-149756761D01*
X108902523Y-149709142D01*
X108854904Y-149613904D01*
X108807285Y-149423428D01*
X108807285Y-149185333D01*
X108854904Y-148994857D01*
X108902523Y-148899619D01*
X108950142Y-148852000D01*
X109045380Y-148804380D01*
X100631666Y-147153380D02*
X101250714Y-147153380D01*
X100917380Y-147534333D01*
X101060238Y-147534333D01*
X101155476Y-147581952D01*
X101203095Y-147629571D01*
X101250714Y-147724809D01*
X101250714Y-147962904D01*
X101203095Y-148058142D01*
X101155476Y-148105761D01*
X101060238Y-148153380D01*
X100774523Y-148153380D01*
X100679285Y-148105761D01*
X100631666Y-148058142D01*
X100679285Y-144708619D02*
X100726904Y-144661000D01*
X100822142Y-144613380D01*
X101060238Y-144613380D01*
X101155476Y-144661000D01*
X101203095Y-144708619D01*
X101250714Y-144803857D01*
X101250714Y-144899095D01*
X101203095Y-145041952D01*
X100631666Y-145613380D01*
X101250714Y-145613380D01*
X101250714Y-143073380D02*
X100679285Y-143073380D01*
X100965000Y-143073380D02*
X100965000Y-142073380D01*
X100869761Y-142216238D01*
X100774523Y-142311476D01*
X100679285Y-142359095D01*
X100917380Y-139533380D02*
X101012619Y-139533380D01*
X101107857Y-139581000D01*
X101155476Y-139628619D01*
X101203095Y-139723857D01*
X101250714Y-139914333D01*
X101250714Y-140152428D01*
X101203095Y-140342904D01*
X101155476Y-140438142D01*
X101107857Y-140485761D01*
X101012619Y-140533380D01*
X100917380Y-140533380D01*
X100822142Y-140485761D01*
X100774523Y-140438142D01*
X100726904Y-140342904D01*
X100679285Y-140152428D01*
X100679285Y-139914333D01*
X100726904Y-139723857D01*
X100774523Y-139628619D01*
X100822142Y-139581000D01*
X100917380Y-139533380D01*
X100457047Y-137612428D02*
X101218952Y-137612428D01*
X100838000Y-137993380D02*
X100838000Y-137231476D01*
X101226904Y-149741000D02*
X101131666Y-149693380D01*
X100988809Y-149693380D01*
X100845952Y-149741000D01*
X100750714Y-149836238D01*
X100703095Y-149931476D01*
X100655476Y-150121952D01*
X100655476Y-150264809D01*
X100703095Y-150455285D01*
X100750714Y-150550523D01*
X100845952Y-150645761D01*
X100988809Y-150693380D01*
X101084047Y-150693380D01*
X101226904Y-150645761D01*
X101274523Y-150598142D01*
X101274523Y-150264809D01*
X101084047Y-150264809D01*
D12*
X113665000Y-128905000D03*
D13*
X113665000Y-123825000D03*
X113665000Y-118745000D03*
X113665000Y-113665000D03*
D14*
X102050000Y-105170000D03*
D15*
X102050000Y-102630000D03*
X104590000Y-105170000D03*
X104590000Y-102630000D03*
X107130000Y-105170000D03*
X107130000Y-102630000D03*
X109670000Y-105170000D03*
X109670000Y-102630000D03*
X112210000Y-105170000D03*
X112210000Y-102630000D03*
X114750000Y-105170000D03*
X114750000Y-102630000D03*
X117290000Y-105170000D03*
X117290000Y-102630000D03*
X119830000Y-105170000D03*
X119830000Y-102630000D03*
X122370000Y-105170000D03*
X122370000Y-102630000D03*
X124910000Y-105170000D03*
X124910000Y-102630000D03*
X127450000Y-105170000D03*
X127450000Y-102630000D03*
X129990000Y-105170000D03*
X129990000Y-102630000D03*
X132530000Y-105170000D03*
X132530000Y-102630000D03*
D16*
X114427000Y-145839000D03*
X114427000Y-148039000D03*
X116967000Y-145839000D03*
X116967000Y-148039000D03*
X128397000Y-145839000D03*
X128397000Y-148039000D03*
X130937000Y-145839000D03*
X130937000Y-148039000D03*
X142367000Y-145839000D03*
X142367000Y-148039000D03*
X144907000Y-145839000D03*
X144907000Y-148039000D03*
D17*
X112461000Y-143510000D03*
X114361000Y-143510000D03*
X118933000Y-143510000D03*
X117033000Y-143510000D03*
X126558000Y-143510000D03*
X128458000Y-143510000D03*
X132903000Y-143510000D03*
X131003000Y-143510000D03*
X140401000Y-143510000D03*
X142301000Y-143510000D03*
X146873000Y-143510000D03*
X144973000Y-143510000D03*
X154371000Y-143510000D03*
X156271000Y-143510000D03*
X160843000Y-143510000D03*
X158943000Y-143510000D03*
D18*
X109347000Y-151892000D03*
D19*
X111887000Y-151892000D03*
X114427000Y-151892000D03*
X116967000Y-151892000D03*
X119507000Y-151892000D03*
D18*
X123317000Y-151892000D03*
D19*
X125857000Y-151892000D03*
X128397000Y-151892000D03*
X130937000Y-151892000D03*
X133477000Y-151892000D03*
D18*
X137287000Y-151892000D03*
D19*
X139827000Y-151892000D03*
X142367000Y-151892000D03*
X144907000Y-151892000D03*
X147447000Y-151892000D03*
D18*
X151257000Y-151892000D03*
D19*
X153797000Y-151892000D03*
X156337000Y-151892000D03*
X158877000Y-151892000D03*
X161417000Y-151892000D03*
D20*
X104140000Y-137414000D03*
D21*
X104140000Y-139954000D03*
X104140000Y-142494000D03*
X104140000Y-145034000D03*
X104140000Y-147574000D03*
X104140000Y-150114000D03*
D16*
X156337000Y-145839000D03*
X156337000Y-148039000D03*
X158877000Y-145839000D03*
X158877000Y-148039000D03*
X111887000Y-148039000D03*
X111887000Y-145839000D03*
X119507000Y-148039000D03*
X119507000Y-145839000D03*
X125857000Y-148039000D03*
X125857000Y-145839000D03*
X133477000Y-148039000D03*
X133477000Y-145839000D03*
X139827000Y-148039000D03*
X139827000Y-145839000D03*
X147447000Y-148039000D03*
X147447000Y-145839000D03*
X153797000Y-148039000D03*
X153797000Y-145839000D03*
X161417000Y-148039000D03*
X161417000Y-145839000D03*
D22*
X127414000Y-134874000D03*
X127414000Y-133604000D03*
X127414000Y-132334000D03*
X127414000Y-131064000D03*
X127414000Y-129794000D03*
X127414000Y-128524000D03*
X127414000Y-127254000D03*
X127414000Y-125984000D03*
X122014000Y-125984000D03*
X122014000Y-127254000D03*
X122014000Y-128524000D03*
X122014000Y-129794000D03*
X122014000Y-131064000D03*
X122014000Y-132334000D03*
X122014000Y-133604000D03*
X122014000Y-134874000D03*
D20*
X153479500Y-128016000D03*
D21*
X153479500Y-125476000D03*
X153479500Y-122936000D03*
X153479500Y-120396000D03*
X153479500Y-117856000D03*
X153479500Y-115316000D03*
X153479500Y-112776000D03*
X153479500Y-110236000D03*
D23*
X119126000Y-134112000D03*
X125095000Y-126873000D03*
X162560000Y-129540000D03*
X107188000Y-107386111D03*
X127381000Y-136017000D03*
D24*
X119888000Y-134874000D02*
X119126000Y-134112000D01*
X122014000Y-134874000D02*
X119888000Y-134874000D01*
X125539499Y-127317499D02*
X125666501Y-127317499D01*
X125095000Y-126873000D02*
X125539499Y-127317499D01*
X125730000Y-127254000D02*
X127414000Y-127254000D01*
X125666501Y-127317499D02*
X125730000Y-127254000D01*
X124451631Y-108449631D02*
X112549539Y-108449631D01*
X127864000Y-133604000D02*
X128618001Y-132849999D01*
X110587509Y-106487601D02*
X105907601Y-106487601D01*
X128618001Y-132849999D02*
X128618001Y-112616001D01*
X112549539Y-108449631D02*
X110587509Y-106487601D01*
X128618001Y-112616001D02*
X124451631Y-108449631D01*
X127414000Y-133604000D02*
X127864000Y-133604000D01*
X105907601Y-106487601D02*
X105453599Y-106033599D01*
X105453599Y-106033599D02*
X104590000Y-105170000D01*
X122464000Y-133604000D02*
X123218001Y-132849999D01*
X110561111Y-107386111D02*
X107188000Y-107386111D01*
X123218001Y-132849999D02*
X123218001Y-120043001D01*
X122014000Y-133604000D02*
X122464000Y-133604000D01*
X123218001Y-120043001D02*
X110561111Y-107386111D01*
X114361000Y-143510000D02*
X114361000Y-142735000D01*
X114361000Y-142735000D02*
X118773990Y-138322010D01*
X118773990Y-138322010D02*
X126405772Y-138322010D01*
X112820438Y-107795621D02*
X110194817Y-105170000D01*
X124722530Y-107795621D02*
X112820438Y-107795621D01*
X129272011Y-112345102D02*
X124722530Y-107795621D01*
X110194817Y-105170000D02*
X109670000Y-105170000D01*
X129272011Y-135455771D02*
X129272011Y-112345102D01*
X114361000Y-143510000D02*
X114586000Y-143510000D01*
X126405772Y-138322010D02*
X129272011Y-135455771D01*
X111887000Y-145839000D02*
X114427000Y-145839000D01*
X114361000Y-145773000D02*
X114427000Y-145839000D01*
X114361000Y-143510000D02*
X114361000Y-145773000D01*
X117033000Y-143510000D02*
X117033000Y-142735000D01*
X117033000Y-142735000D02*
X120791980Y-138976020D01*
X120791980Y-138976020D02*
X126676671Y-138976020D01*
X119507000Y-145839000D02*
X116967000Y-145839000D01*
X116967000Y-143576000D02*
X117033000Y-143510000D01*
X116967000Y-145839000D02*
X116967000Y-143576000D01*
X115613599Y-106033599D02*
X114750000Y-105170000D01*
X124993429Y-107141611D02*
X116721611Y-107141611D01*
X129926021Y-135726670D02*
X129926021Y-112074203D01*
X117033000Y-143510000D02*
X117258000Y-143510000D01*
X129926021Y-112074203D02*
X124993429Y-107141611D01*
X126676671Y-138976020D02*
X129926021Y-135726670D01*
X116721611Y-107141611D02*
X115613599Y-106033599D01*
X128458000Y-143510000D02*
X128458000Y-142735000D01*
X128458000Y-142735000D02*
X130580031Y-140612969D01*
X130580031Y-140612969D02*
X130580031Y-111803304D01*
X128458000Y-145778000D02*
X128397000Y-145839000D01*
X128458000Y-143510000D02*
X128458000Y-145778000D01*
X128397000Y-145839000D02*
X125857000Y-145839000D01*
X130580031Y-111803304D02*
X125264328Y-106487601D01*
X121147601Y-106487601D02*
X119830000Y-105170000D01*
X125264328Y-106487601D02*
X121147601Y-106487601D01*
X131003000Y-143510000D02*
X131003000Y-142735000D01*
X131003000Y-142735000D02*
X131318000Y-142420000D01*
X131318000Y-142420000D02*
X131318000Y-111578000D01*
X130937000Y-145839000D02*
X133477000Y-145839000D01*
X130937000Y-143576000D02*
X131003000Y-143510000D01*
X130937000Y-145839000D02*
X130937000Y-143576000D01*
X131318000Y-111578000D02*
X124910000Y-105170000D01*
X142301000Y-142735000D02*
X142301000Y-143510000D01*
X127450000Y-105170000D02*
X143319500Y-121039500D01*
X143319500Y-121039500D02*
X143319500Y-141716500D01*
X143319500Y-141716500D02*
X142301000Y-142735000D01*
X142301000Y-145773000D02*
X142367000Y-145839000D01*
X142301000Y-143510000D02*
X142301000Y-145773000D01*
X139827000Y-145839000D02*
X142367000Y-145839000D01*
X143973510Y-120677327D02*
X143973510Y-141735510D01*
X143973510Y-141735510D02*
X144973000Y-142735000D01*
X129990000Y-106693817D02*
X143973510Y-120677327D01*
X144973000Y-142735000D02*
X144973000Y-143510000D01*
X129990000Y-105170000D02*
X129990000Y-106693817D01*
X147447000Y-145839000D02*
X144907000Y-145839000D01*
X144907000Y-143576000D02*
X144973000Y-143510000D01*
X144907000Y-145839000D02*
X144907000Y-143576000D01*
X133847601Y-103947601D02*
X133847601Y-109626510D01*
X144627520Y-120406429D02*
X144627520Y-129324020D01*
X133847601Y-109626510D02*
X144627520Y-120406429D01*
X156271000Y-140967500D02*
X156271000Y-143510000D01*
X132530000Y-102630000D02*
X133847601Y-103947601D01*
X144627520Y-129324020D02*
X156271000Y-140967500D01*
X153797000Y-145839000D02*
X156337000Y-145839000D01*
X156337000Y-143576000D02*
X156271000Y-143510000D01*
X156337000Y-145839000D02*
X156337000Y-143576000D01*
X130853599Y-101766401D02*
X129990000Y-102630000D01*
X133162449Y-101312399D02*
X131307601Y-101312399D01*
X158943000Y-142714592D02*
X145281530Y-129053122D01*
X131307601Y-101312399D02*
X130853599Y-101766401D01*
X134501611Y-102651561D02*
X133162449Y-101312399D01*
X134501611Y-109355611D02*
X134501611Y-102651561D01*
X145281530Y-120135530D02*
X134501611Y-109355611D01*
X145281530Y-129053122D02*
X145281530Y-120135530D01*
X158943000Y-143510000D02*
X158943000Y-142714592D01*
X161417000Y-145839000D02*
X158877000Y-145839000D01*
X158943000Y-145773000D02*
X158877000Y-145839000D01*
X158943000Y-143510000D02*
X158943000Y-145773000D01*
X114427000Y-148039000D02*
X114427000Y-151892000D01*
X116967000Y-151892000D02*
X116967000Y-148039000D01*
X119507000Y-151892000D02*
X118036999Y-153362001D01*
X108915040Y-146498596D02*
X108915040Y-143687960D01*
X118036999Y-153362001D02*
X108007030Y-153362001D01*
X108007030Y-153362001D02*
X108007030Y-147406606D01*
X108007030Y-147406606D02*
X108915040Y-146498596D01*
X126209999Y-135537001D02*
X126209999Y-133088001D01*
X108915040Y-143687960D02*
X114935000Y-137668000D01*
X126209999Y-133088001D02*
X126964000Y-132334000D01*
X114935000Y-137668000D02*
X124079000Y-137668000D01*
X126964000Y-132334000D02*
X127414000Y-132334000D01*
X124079000Y-137668000D02*
X126209999Y-135537001D01*
X128397000Y-148039000D02*
X128397000Y-151892000D01*
X130937000Y-151892000D02*
X130937000Y-148039000D01*
X108261030Y-146227697D02*
X108261030Y-143325970D01*
X123717011Y-137013990D02*
X125555989Y-135175012D01*
X108261030Y-143325970D02*
X114573010Y-137013990D01*
X125555989Y-135175012D02*
X125555989Y-132472011D01*
X125555989Y-132472011D02*
X126964000Y-131064000D01*
X131505389Y-154016011D02*
X107425102Y-154016011D01*
X107353020Y-153943927D02*
X107353020Y-147135707D01*
X107414839Y-154005747D02*
X107353020Y-153943927D01*
X107353020Y-147135707D02*
X108261030Y-146227697D01*
X133477000Y-152044400D02*
X131505389Y-154016011D01*
X107425102Y-154016011D02*
X107414839Y-154005747D01*
X133477000Y-151892000D02*
X133477000Y-152044400D01*
X114573010Y-137013990D02*
X123717011Y-137013990D01*
X126964000Y-131064000D02*
X127414000Y-131064000D01*
X142367000Y-151892000D02*
X142367000Y-148039000D01*
X144907000Y-148039000D02*
X144907000Y-151892000D01*
X107607020Y-145956798D02*
X107607020Y-143055071D01*
X114302111Y-136359980D02*
X123446112Y-136359980D01*
X106699010Y-146864808D02*
X107607020Y-145956798D01*
X124901979Y-134904113D02*
X124901979Y-131856021D01*
X126964000Y-129794000D02*
X127414000Y-129794000D01*
X107607020Y-143055071D02*
X114302111Y-136359980D01*
X123446112Y-136359980D02*
X124901979Y-134904113D01*
X106953431Y-154469249D02*
X106699010Y-154214826D01*
X107154170Y-154670006D02*
X106953431Y-154469249D01*
X107695971Y-154670033D02*
X107154170Y-154670006D01*
X107695984Y-154670021D02*
X107695971Y-154670033D01*
X144821379Y-154670021D02*
X107695984Y-154670021D01*
X147447000Y-152044400D02*
X144821379Y-154670021D01*
X124901979Y-131856021D02*
X126964000Y-129794000D01*
X106699010Y-154214826D02*
X106699010Y-146864808D01*
X147447000Y-151892000D02*
X147447000Y-152044400D01*
X147447000Y-151892000D02*
X147447000Y-151739600D01*
X156337000Y-148039000D02*
X156337000Y-151892000D01*
X158877000Y-151892000D02*
X158877000Y-148039000D01*
X106045000Y-146593909D02*
X106953010Y-145685899D01*
X161417000Y-151892000D02*
X161417000Y-152044400D01*
X106504833Y-154945561D02*
X106045000Y-154485728D01*
X158137369Y-155324031D02*
X107966863Y-155324030D01*
X126964000Y-128524000D02*
X127414000Y-128524000D01*
X123049232Y-135705970D02*
X124247969Y-134507233D01*
X114031212Y-135705970D02*
X123049232Y-135705970D01*
X106953010Y-142784172D02*
X114031212Y-135705970D01*
X106045000Y-154485728D02*
X106045000Y-146593909D01*
X107966837Y-155324055D02*
X106883240Y-155324003D01*
X107966863Y-155324030D02*
X107966837Y-155324055D01*
X124247969Y-134507233D02*
X124247969Y-131240031D01*
X106953010Y-145685899D02*
X106953010Y-142784172D01*
X161417000Y-152044400D02*
X158137369Y-155324031D01*
X106883240Y-155324003D02*
X106504833Y-154945561D01*
X124247969Y-131240031D02*
X126964000Y-128524000D01*
X100732399Y-106396801D02*
X108000598Y-113665000D01*
X108000598Y-113665000D02*
X113665000Y-113665000D01*
X100732399Y-103947601D02*
X100732399Y-106396801D01*
X102050000Y-102630000D02*
X100732399Y-103947601D01*
X127381000Y-134907000D02*
X127414000Y-134874000D01*
X127381000Y-136017000D02*
X127381000Y-134907000D01*
X105556000Y-139954000D02*
X104140000Y-139954000D01*
X117513546Y-128524000D02*
X106083547Y-139954000D01*
X122014000Y-128524000D02*
X117513546Y-128524000D01*
X106083547Y-139954000D02*
X105556000Y-139954000D01*
X105556000Y-141230400D02*
X104292400Y-142494000D01*
X104292400Y-142494000D02*
X104140000Y-142494000D01*
X105732056Y-141230400D02*
X105556000Y-141230400D01*
X117168456Y-129794000D02*
X105732056Y-141230400D01*
X122014000Y-129794000D02*
X117168456Y-129794000D01*
X105644990Y-142242374D02*
X105644990Y-143681410D01*
X122014000Y-131064000D02*
X116823364Y-131064000D01*
X105644990Y-143681410D02*
X104292400Y-145034000D01*
X116823364Y-131064000D02*
X105644990Y-142242374D01*
X104292400Y-145034000D02*
X104140000Y-145034000D01*
X106299000Y-142513273D02*
X106299000Y-145415000D01*
X105390990Y-146323010D02*
X104140000Y-147574000D01*
X116478273Y-132334000D02*
X106299000Y-142513273D01*
X122014000Y-132334000D02*
X116478273Y-132334000D01*
X106299000Y-145415000D02*
X105390990Y-146323010D01*
D25*
G36*
X139967900Y-113411000D02*
X139976509Y-113454281D01*
X140001026Y-113490974D01*
X140037719Y-113515491D01*
X140081000Y-113524100D01*
X152468554Y-113524100D01*
X152502727Y-113575243D01*
X152869423Y-113820261D01*
X153301970Y-113906300D01*
X153657030Y-113906300D01*
X154089577Y-113820261D01*
X154456273Y-113575243D01*
X154490446Y-113524100D01*
X164097900Y-113524100D01*
X164097900Y-155842900D01*
X100189100Y-155842900D01*
X100189100Y-149420400D01*
X100301900Y-149420400D01*
X100301900Y-151246600D01*
X101628100Y-151246600D01*
X101628100Y-150565566D01*
X102679023Y-150565566D01*
X102821704Y-150851187D01*
X103192562Y-151241241D01*
X103684457Y-151459683D01*
X103898700Y-151360362D01*
X103898700Y-150355300D01*
X102756908Y-150355300D01*
X102679023Y-150565566D01*
X101628100Y-150565566D01*
X101628100Y-149662434D01*
X102679023Y-149662434D01*
X102756908Y-149872700D01*
X103898700Y-149872700D01*
X103898700Y-148867638D01*
X103684457Y-148768317D01*
X103192562Y-148986759D01*
X102821704Y-149376813D01*
X102679023Y-149662434D01*
X101628100Y-149662434D01*
X101628100Y-149420400D01*
X100301900Y-149420400D01*
X100189100Y-149420400D01*
X100189100Y-146880400D01*
X100325710Y-146880400D01*
X100325710Y-148706600D01*
X101604291Y-148706600D01*
X101604291Y-146880400D01*
X100325710Y-146880400D01*
X100189100Y-146880400D01*
X100189100Y-144340400D01*
X100325710Y-144340400D01*
X100325710Y-146166600D01*
X101604291Y-146166600D01*
X101604291Y-144340400D01*
X100325710Y-144340400D01*
X100189100Y-144340400D01*
X100189100Y-141800400D01*
X100325710Y-141800400D01*
X100325710Y-143626600D01*
X101604291Y-143626600D01*
X101604291Y-141800400D01*
X100325710Y-141800400D01*
X100189100Y-141800400D01*
X100189100Y-139260400D01*
X100325710Y-139260400D01*
X100325710Y-141086600D01*
X101604291Y-141086600D01*
X101604291Y-139260400D01*
X100325710Y-139260400D01*
X100189100Y-139260400D01*
X100189100Y-138546600D01*
X101620148Y-138546600D01*
X101620148Y-136720400D01*
X100189100Y-136720400D01*
X100189100Y-136550400D01*
X102852076Y-136550400D01*
X102852076Y-138277600D01*
X102872775Y-138381661D01*
X102931721Y-138469879D01*
X103019939Y-138528825D01*
X103124000Y-138549524D01*
X105156000Y-138549524D01*
X105260061Y-138528825D01*
X105348279Y-138469879D01*
X105407225Y-138381661D01*
X105427924Y-138277600D01*
X105427924Y-136550400D01*
X105407225Y-136446339D01*
X105348279Y-136358121D01*
X105260061Y-136299175D01*
X105156000Y-136278476D01*
X103124000Y-136278476D01*
X103019939Y-136299175D01*
X102931721Y-136358121D01*
X102872775Y-136446339D01*
X102852076Y-136550400D01*
X100189100Y-136550400D01*
X100189100Y-126812906D01*
X101242909Y-126812906D01*
X101586506Y-127644476D01*
X102222177Y-128281258D01*
X103053146Y-128626306D01*
X103952906Y-128627091D01*
X104784476Y-128283494D01*
X105421258Y-127647823D01*
X105766306Y-126816854D01*
X105766788Y-126264175D01*
X120743300Y-126264175D01*
X120743300Y-126387573D01*
X120822572Y-126578953D01*
X120862619Y-126619000D01*
X120822572Y-126659047D01*
X120743300Y-126850427D01*
X120743300Y-126973825D01*
X120873475Y-127104000D01*
X121772700Y-127104000D01*
X121772700Y-126134000D01*
X120873475Y-126134000D01*
X120743300Y-126264175D01*
X105766788Y-126264175D01*
X105767091Y-125917094D01*
X105423494Y-125085524D01*
X104787823Y-124448742D01*
X104588195Y-124365849D01*
X111776970Y-124365849D01*
X112051125Y-125062421D01*
X112570978Y-125601055D01*
X113128588Y-125869275D01*
X113423700Y-125799191D01*
X113423700Y-124066300D01*
X113906300Y-124066300D01*
X113906300Y-125799191D01*
X114201412Y-125869275D01*
X114759022Y-125601055D01*
X114778930Y-125580427D01*
X120743300Y-125580427D01*
X120743300Y-125703825D01*
X120873475Y-125834000D01*
X121772700Y-125834000D01*
X121772700Y-125293475D01*
X121642525Y-125163300D01*
X121160426Y-125163300D01*
X120969047Y-125242572D01*
X120822572Y-125389047D01*
X120743300Y-125580427D01*
X114778930Y-125580427D01*
X115278875Y-125062421D01*
X115553030Y-124365849D01*
X115452931Y-124066300D01*
X113906300Y-124066300D01*
X113423700Y-124066300D01*
X111877069Y-124066300D01*
X111776970Y-124365849D01*
X104588195Y-124365849D01*
X103956854Y-124103694D01*
X103057094Y-124102909D01*
X102225524Y-124446506D01*
X101588742Y-125082177D01*
X101243694Y-125913146D01*
X101242909Y-126812906D01*
X100189100Y-126812906D01*
X100189100Y-123284151D01*
X111776970Y-123284151D01*
X111877069Y-123583700D01*
X113423700Y-123583700D01*
X113423700Y-121850809D01*
X113906300Y-121850809D01*
X113906300Y-123583700D01*
X115452931Y-123583700D01*
X115553030Y-123284151D01*
X115278875Y-122587579D01*
X114759022Y-122048945D01*
X114201412Y-121780725D01*
X113906300Y-121850809D01*
X113423700Y-121850809D01*
X113128588Y-121780725D01*
X112570978Y-122048945D01*
X112051125Y-122587579D01*
X111776970Y-123284151D01*
X100189100Y-123284151D01*
X100189100Y-119285849D01*
X111776970Y-119285849D01*
X112051125Y-119982421D01*
X112570978Y-120521055D01*
X113128588Y-120789275D01*
X113423700Y-120719191D01*
X113423700Y-118986300D01*
X113906300Y-118986300D01*
X113906300Y-120719191D01*
X114201412Y-120789275D01*
X114759022Y-120521055D01*
X115278875Y-119982421D01*
X115553030Y-119285849D01*
X115452931Y-118986300D01*
X113906300Y-118986300D01*
X113423700Y-118986300D01*
X111877069Y-118986300D01*
X111776970Y-119285849D01*
X100189100Y-119285849D01*
X100189100Y-116652906D01*
X101242909Y-116652906D01*
X101586506Y-117484476D01*
X102222177Y-118121258D01*
X103053146Y-118466306D01*
X103952906Y-118467091D01*
X104589270Y-118204151D01*
X111776970Y-118204151D01*
X111877069Y-118503700D01*
X113423700Y-118503700D01*
X113423700Y-116770809D01*
X113906300Y-116770809D01*
X113906300Y-118503700D01*
X115452931Y-118503700D01*
X115553030Y-118204151D01*
X115278875Y-117507579D01*
X114759022Y-116968945D01*
X114201412Y-116700725D01*
X113906300Y-116770809D01*
X113423700Y-116770809D01*
X113128588Y-116700725D01*
X112570978Y-116968945D01*
X112051125Y-117507579D01*
X111776970Y-118204151D01*
X104589270Y-118204151D01*
X104784476Y-118123494D01*
X105421258Y-117487823D01*
X105766306Y-116656854D01*
X105767091Y-115757094D01*
X105423494Y-114925524D01*
X104787823Y-114288742D01*
X103956854Y-113943694D01*
X103057094Y-113942909D01*
X102225524Y-114286506D01*
X101588742Y-114922177D01*
X101243694Y-115753146D01*
X101242909Y-116652906D01*
X100189100Y-116652906D01*
X100189100Y-103947601D01*
X100265699Y-103947601D01*
X100265699Y-106396801D01*
X100301224Y-106575400D01*
X100402392Y-106726808D01*
X107670589Y-113995004D01*
X107670591Y-113995007D01*
X107821999Y-114096175D01*
X108000598Y-114131701D01*
X108000603Y-114131700D01*
X112044076Y-114131700D01*
X112125170Y-114539389D01*
X112486465Y-115080106D01*
X113027182Y-115441401D01*
X113665000Y-115568271D01*
X114302818Y-115441401D01*
X114843535Y-115080106D01*
X115204830Y-114539389D01*
X115331700Y-113901571D01*
X115331700Y-113428429D01*
X115204830Y-112790611D01*
X115001919Y-112486932D01*
X122751301Y-120236314D01*
X122751301Y-125163300D01*
X122385475Y-125163300D01*
X122255300Y-125293475D01*
X122255300Y-125834000D01*
X122275300Y-125834000D01*
X122275300Y-126134000D01*
X122255300Y-126134000D01*
X122255300Y-127104000D01*
X122275300Y-127104000D01*
X122275300Y-127404000D01*
X122255300Y-127404000D01*
X122255300Y-127515300D01*
X121772700Y-127515300D01*
X121772700Y-127404000D01*
X120873475Y-127404000D01*
X120743300Y-127534175D01*
X120743300Y-127657573D01*
X120822572Y-127848953D01*
X120969047Y-127995428D01*
X121068457Y-128036605D01*
X121054629Y-128057300D01*
X117513546Y-128057300D01*
X117334948Y-128092825D01*
X117334946Y-128092826D01*
X117334947Y-128092826D01*
X117183539Y-128193993D01*
X115336924Y-130040608D01*
X115336924Y-127505000D01*
X115316225Y-127400939D01*
X115257279Y-127312721D01*
X115169061Y-127253775D01*
X115065000Y-127233076D01*
X112265000Y-127233076D01*
X112160939Y-127253775D01*
X112072721Y-127312721D01*
X112013775Y-127400939D01*
X111993076Y-127505000D01*
X111993076Y-130141543D01*
X111432010Y-129908567D01*
X110820672Y-129908034D01*
X110255666Y-130141489D01*
X109823009Y-130573393D01*
X109588567Y-131137990D01*
X109588034Y-131749328D01*
X109821489Y-132314334D01*
X110253393Y-132746991D01*
X110817990Y-132981433D01*
X111429328Y-132981966D01*
X111994334Y-132748511D01*
X112426991Y-132316607D01*
X112661433Y-131752010D01*
X112661966Y-131140672D01*
X112429031Y-130576924D01*
X114800608Y-130576924D01*
X105890233Y-139487300D01*
X105338971Y-139487300D01*
X105116773Y-139154757D01*
X104750077Y-138909739D01*
X104317530Y-138823700D01*
X103962470Y-138823700D01*
X103529923Y-138909739D01*
X103163227Y-139154757D01*
X102918209Y-139521453D01*
X102832170Y-139954000D01*
X102918209Y-140386547D01*
X103163227Y-140753243D01*
X103529923Y-140998261D01*
X103962470Y-141084300D01*
X104317530Y-141084300D01*
X104750077Y-140998261D01*
X105116773Y-140753243D01*
X105338971Y-140420700D01*
X105881742Y-140420700D01*
X105534457Y-140767985D01*
X105377402Y-140799225D01*
X105377400Y-140799226D01*
X105377401Y-140799226D01*
X105225993Y-140900393D01*
X104688830Y-141437556D01*
X104317530Y-141363700D01*
X103962470Y-141363700D01*
X103529923Y-141449739D01*
X103163227Y-141694757D01*
X102918209Y-142061453D01*
X102832170Y-142494000D01*
X102918209Y-142926547D01*
X103163227Y-143293243D01*
X103529923Y-143538261D01*
X103962470Y-143624300D01*
X104317530Y-143624300D01*
X104750077Y-143538261D01*
X105116773Y-143293243D01*
X105178290Y-143201176D01*
X105178290Y-143488096D01*
X104688830Y-143977556D01*
X104317530Y-143903700D01*
X103962470Y-143903700D01*
X103529923Y-143989739D01*
X103163227Y-144234757D01*
X102918209Y-144601453D01*
X102832170Y-145034000D01*
X102918209Y-145466547D01*
X103163227Y-145833243D01*
X103529923Y-146078261D01*
X103962470Y-146164300D01*
X104317530Y-146164300D01*
X104750077Y-146078261D01*
X105116773Y-145833243D01*
X105361791Y-145466547D01*
X105447830Y-145034000D01*
X105365635Y-144620779D01*
X105832300Y-144154114D01*
X105832300Y-145221686D01*
X104561715Y-146492271D01*
X104317530Y-146443700D01*
X103962470Y-146443700D01*
X103529923Y-146529739D01*
X103163227Y-146774757D01*
X102918209Y-147141453D01*
X102832170Y-147574000D01*
X102918209Y-148006547D01*
X103163227Y-148373243D01*
X103529923Y-148618261D01*
X103962470Y-148704300D01*
X104317530Y-148704300D01*
X104750077Y-148618261D01*
X105116773Y-148373243D01*
X105361791Y-148006547D01*
X105447830Y-147574000D01*
X105361791Y-147141453D01*
X105310029Y-147063985D01*
X105578300Y-146795714D01*
X105578300Y-149617039D01*
X105458296Y-149376813D01*
X105087438Y-148986759D01*
X104595543Y-148768317D01*
X104381300Y-148867638D01*
X104381300Y-149872700D01*
X104401300Y-149872700D01*
X104401300Y-150355300D01*
X104381300Y-150355300D01*
X104381300Y-151360362D01*
X104595543Y-151459683D01*
X105087438Y-151241241D01*
X105458296Y-150851187D01*
X105578300Y-150610961D01*
X105578300Y-154485728D01*
X105613825Y-154664327D01*
X105714993Y-154815735D01*
X106174826Y-155275568D01*
X106174829Y-155275570D01*
X106553215Y-155653991D01*
X106553217Y-155653994D01*
X106704621Y-155755169D01*
X106883218Y-155790703D01*
X107966815Y-155790755D01*
X107966941Y-155790730D01*
X158137369Y-155790731D01*
X158315968Y-155755206D01*
X158467376Y-155654038D01*
X161003778Y-153117635D01*
X161417000Y-153199830D01*
X161849547Y-153113791D01*
X162216243Y-152868773D01*
X162461261Y-152502077D01*
X162547300Y-152069530D01*
X162547300Y-151714470D01*
X162461261Y-151281923D01*
X162216243Y-150915227D01*
X161849547Y-150670209D01*
X161417000Y-150584170D01*
X160984453Y-150670209D01*
X160617757Y-150915227D01*
X160372739Y-151281923D01*
X160286700Y-151714470D01*
X160286700Y-152069530D01*
X160360556Y-152440830D01*
X157944055Y-154857331D01*
X145294083Y-154857331D01*
X147033779Y-153117635D01*
X147447000Y-153199830D01*
X147879547Y-153113791D01*
X148246243Y-152868773D01*
X148491261Y-152502077D01*
X148577300Y-152069530D01*
X148577300Y-151714470D01*
X148491261Y-151281923D01*
X148246243Y-150915227D01*
X148187536Y-150876000D01*
X150121476Y-150876000D01*
X150121476Y-152908000D01*
X150142175Y-153012061D01*
X150201121Y-153100279D01*
X150289339Y-153159225D01*
X150393400Y-153179924D01*
X152120600Y-153179924D01*
X152224661Y-153159225D01*
X152312879Y-153100279D01*
X152371825Y-153012061D01*
X152392524Y-152908000D01*
X152392524Y-152347543D01*
X152451317Y-152347543D01*
X152669759Y-152839438D01*
X153059813Y-153210296D01*
X153345434Y-153352977D01*
X153555700Y-153275092D01*
X153555700Y-152133300D01*
X154038300Y-152133300D01*
X154038300Y-153275092D01*
X154248566Y-153352977D01*
X154534187Y-153210296D01*
X154924241Y-152839438D01*
X155142683Y-152347543D01*
X155043362Y-152133300D01*
X154038300Y-152133300D01*
X153555700Y-152133300D01*
X152550638Y-152133300D01*
X152451317Y-152347543D01*
X152392524Y-152347543D01*
X152392524Y-151714470D01*
X155206700Y-151714470D01*
X155206700Y-152069530D01*
X155292739Y-152502077D01*
X155537757Y-152868773D01*
X155904453Y-153113791D01*
X156337000Y-153199830D01*
X156769547Y-153113791D01*
X157136243Y-152868773D01*
X157381261Y-152502077D01*
X157467300Y-152069530D01*
X157467300Y-151714470D01*
X157746700Y-151714470D01*
X157746700Y-152069530D01*
X157832739Y-152502077D01*
X158077757Y-152868773D01*
X158444453Y-153113791D01*
X158877000Y-153199830D01*
X159309547Y-153113791D01*
X159676243Y-152868773D01*
X159921261Y-152502077D01*
X160007300Y-152069530D01*
X160007300Y-151714470D01*
X159921261Y-151281923D01*
X159676243Y-150915227D01*
X159343700Y-150693029D01*
X159343700Y-148907602D01*
X159431061Y-148890225D01*
X159519279Y-148831279D01*
X159578225Y-148743061D01*
X159598924Y-148639000D01*
X159598924Y-148410475D01*
X160446300Y-148410475D01*
X160446300Y-148742574D01*
X160525572Y-148933953D01*
X160672047Y-149080428D01*
X160863427Y-149159700D01*
X161061825Y-149159700D01*
X161192000Y-149029525D01*
X161192000Y-148280300D01*
X161642000Y-148280300D01*
X161642000Y-149029525D01*
X161772175Y-149159700D01*
X161970573Y-149159700D01*
X162161953Y-149080428D01*
X162308428Y-148933953D01*
X162387700Y-148742574D01*
X162387700Y-148410475D01*
X162257525Y-148280300D01*
X161642000Y-148280300D01*
X161192000Y-148280300D01*
X160576475Y-148280300D01*
X160446300Y-148410475D01*
X159598924Y-148410475D01*
X159598924Y-147439000D01*
X159578322Y-147335426D01*
X160446300Y-147335426D01*
X160446300Y-147667525D01*
X160576475Y-147797700D01*
X161192000Y-147797700D01*
X161192000Y-147048475D01*
X161642000Y-147048475D01*
X161642000Y-147797700D01*
X162257525Y-147797700D01*
X162387700Y-147667525D01*
X162387700Y-147335426D01*
X162308428Y-147144047D01*
X162161953Y-146997572D01*
X161970573Y-146918300D01*
X161772175Y-146918300D01*
X161642000Y-147048475D01*
X161192000Y-147048475D01*
X161061825Y-146918300D01*
X160863427Y-146918300D01*
X160672047Y-146997572D01*
X160525572Y-147144047D01*
X160446300Y-147335426D01*
X159578322Y-147335426D01*
X159578225Y-147334939D01*
X159519279Y-147246721D01*
X159431061Y-147187775D01*
X159327000Y-147167076D01*
X158427000Y-147167076D01*
X158322939Y-147187775D01*
X158234721Y-147246721D01*
X158175775Y-147334939D01*
X158155076Y-147439000D01*
X158155076Y-148639000D01*
X158175775Y-148743061D01*
X158234721Y-148831279D01*
X158322939Y-148890225D01*
X158410300Y-148907602D01*
X158410300Y-150693029D01*
X158077757Y-150915227D01*
X157832739Y-151281923D01*
X157746700Y-151714470D01*
X157467300Y-151714470D01*
X157381261Y-151281923D01*
X157136243Y-150915227D01*
X156803700Y-150693029D01*
X156803700Y-148907602D01*
X156891061Y-148890225D01*
X156979279Y-148831279D01*
X157038225Y-148743061D01*
X157058924Y-148639000D01*
X157058924Y-147439000D01*
X157038225Y-147334939D01*
X156979279Y-147246721D01*
X156891061Y-147187775D01*
X156787000Y-147167076D01*
X155887000Y-147167076D01*
X155782939Y-147187775D01*
X155694721Y-147246721D01*
X155635775Y-147334939D01*
X155615076Y-147439000D01*
X155615076Y-148639000D01*
X155635775Y-148743061D01*
X155694721Y-148831279D01*
X155782939Y-148890225D01*
X155870300Y-148907602D01*
X155870300Y-150693029D01*
X155537757Y-150915227D01*
X155292739Y-151281923D01*
X155206700Y-151714470D01*
X152392524Y-151714470D01*
X152392524Y-151436457D01*
X152451317Y-151436457D01*
X152550638Y-151650700D01*
X153555700Y-151650700D01*
X153555700Y-150508908D01*
X154038300Y-150508908D01*
X154038300Y-151650700D01*
X155043362Y-151650700D01*
X155142683Y-151436457D01*
X154924241Y-150944562D01*
X154534187Y-150573704D01*
X154248566Y-150431023D01*
X154038300Y-150508908D01*
X153555700Y-150508908D01*
X153345434Y-150431023D01*
X153059813Y-150573704D01*
X152669759Y-150944562D01*
X152451317Y-151436457D01*
X152392524Y-151436457D01*
X152392524Y-150876000D01*
X152371825Y-150771939D01*
X152312879Y-150683721D01*
X152224661Y-150624775D01*
X152120600Y-150604076D01*
X150393400Y-150604076D01*
X150289339Y-150624775D01*
X150201121Y-150683721D01*
X150142175Y-150771939D01*
X150121476Y-150876000D01*
X148187536Y-150876000D01*
X147879547Y-150670209D01*
X147447000Y-150584170D01*
X147014453Y-150670209D01*
X146647757Y-150915227D01*
X146402739Y-151281923D01*
X146316700Y-151714470D01*
X146316700Y-152069530D01*
X146390556Y-152440830D01*
X144628065Y-154203321D01*
X131978093Y-154203321D01*
X133063779Y-153117635D01*
X133477000Y-153199830D01*
X133909547Y-153113791D01*
X134276243Y-152868773D01*
X134521261Y-152502077D01*
X134607300Y-152069530D01*
X134607300Y-151714470D01*
X134521261Y-151281923D01*
X134276243Y-150915227D01*
X134217536Y-150876000D01*
X136151476Y-150876000D01*
X136151476Y-152908000D01*
X136172175Y-153012061D01*
X136231121Y-153100279D01*
X136319339Y-153159225D01*
X136423400Y-153179924D01*
X138150600Y-153179924D01*
X138254661Y-153159225D01*
X138342879Y-153100279D01*
X138401825Y-153012061D01*
X138422524Y-152908000D01*
X138422524Y-152347543D01*
X138481317Y-152347543D01*
X138699759Y-152839438D01*
X139089813Y-153210296D01*
X139375434Y-153352977D01*
X139585700Y-153275092D01*
X139585700Y-152133300D01*
X140068300Y-152133300D01*
X140068300Y-153275092D01*
X140278566Y-153352977D01*
X140564187Y-153210296D01*
X140954241Y-152839438D01*
X141172683Y-152347543D01*
X141073362Y-152133300D01*
X140068300Y-152133300D01*
X139585700Y-152133300D01*
X138580638Y-152133300D01*
X138481317Y-152347543D01*
X138422524Y-152347543D01*
X138422524Y-151714470D01*
X141236700Y-151714470D01*
X141236700Y-152069530D01*
X141322739Y-152502077D01*
X141567757Y-152868773D01*
X141934453Y-153113791D01*
X142367000Y-153199830D01*
X142799547Y-153113791D01*
X143166243Y-152868773D01*
X143411261Y-152502077D01*
X143497300Y-152069530D01*
X143497300Y-151714470D01*
X143776700Y-151714470D01*
X143776700Y-152069530D01*
X143862739Y-152502077D01*
X144107757Y-152868773D01*
X144474453Y-153113791D01*
X144907000Y-153199830D01*
X145339547Y-153113791D01*
X145706243Y-152868773D01*
X145951261Y-152502077D01*
X146037300Y-152069530D01*
X146037300Y-151714470D01*
X145951261Y-151281923D01*
X145706243Y-150915227D01*
X145373700Y-150693029D01*
X145373700Y-148907602D01*
X145461061Y-148890225D01*
X145549279Y-148831279D01*
X145608225Y-148743061D01*
X145628924Y-148639000D01*
X145628924Y-148410475D01*
X146476300Y-148410475D01*
X146476300Y-148742574D01*
X146555572Y-148933953D01*
X146702047Y-149080428D01*
X146893427Y-149159700D01*
X147091825Y-149159700D01*
X147222000Y-149029525D01*
X147222000Y-148280300D01*
X147672000Y-148280300D01*
X147672000Y-149029525D01*
X147802175Y-149159700D01*
X148000573Y-149159700D01*
X148191953Y-149080428D01*
X148338428Y-148933953D01*
X148417700Y-148742574D01*
X148417700Y-148531400D01*
X150363710Y-148531400D01*
X150363710Y-150357600D01*
X151642291Y-150357600D01*
X151642291Y-148531400D01*
X150363710Y-148531400D01*
X148417700Y-148531400D01*
X148417700Y-148410475D01*
X152826300Y-148410475D01*
X152826300Y-148742574D01*
X152905572Y-148933953D01*
X153052047Y-149080428D01*
X153243427Y-149159700D01*
X153441825Y-149159700D01*
X153572000Y-149029525D01*
X153572000Y-148280300D01*
X154022000Y-148280300D01*
X154022000Y-149029525D01*
X154152175Y-149159700D01*
X154350573Y-149159700D01*
X154541953Y-149080428D01*
X154688428Y-148933953D01*
X154767700Y-148742574D01*
X154767700Y-148410475D01*
X154637525Y-148280300D01*
X154022000Y-148280300D01*
X153572000Y-148280300D01*
X152956475Y-148280300D01*
X152826300Y-148410475D01*
X148417700Y-148410475D01*
X148287525Y-148280300D01*
X147672000Y-148280300D01*
X147222000Y-148280300D01*
X146606475Y-148280300D01*
X146476300Y-148410475D01*
X145628924Y-148410475D01*
X145628924Y-147439000D01*
X145608322Y-147335426D01*
X146476300Y-147335426D01*
X146476300Y-147667525D01*
X146606475Y-147797700D01*
X147222000Y-147797700D01*
X147222000Y-147048475D01*
X147672000Y-147048475D01*
X147672000Y-147797700D01*
X148287525Y-147797700D01*
X148417700Y-147667525D01*
X148417700Y-147335426D01*
X152826300Y-147335426D01*
X152826300Y-147667525D01*
X152956475Y-147797700D01*
X153572000Y-147797700D01*
X153572000Y-147048475D01*
X154022000Y-147048475D01*
X154022000Y-147797700D01*
X154637525Y-147797700D01*
X154767700Y-147667525D01*
X154767700Y-147335426D01*
X154688428Y-147144047D01*
X154541953Y-146997572D01*
X154350573Y-146918300D01*
X154152175Y-146918300D01*
X154022000Y-147048475D01*
X153572000Y-147048475D01*
X153441825Y-146918300D01*
X153243427Y-146918300D01*
X153052047Y-146997572D01*
X152905572Y-147144047D01*
X152826300Y-147335426D01*
X148417700Y-147335426D01*
X148338428Y-147144047D01*
X148191953Y-146997572D01*
X148000573Y-146918300D01*
X147802175Y-146918300D01*
X147672000Y-147048475D01*
X147222000Y-147048475D01*
X147091825Y-146918300D01*
X146893427Y-146918300D01*
X146702047Y-146997572D01*
X146555572Y-147144047D01*
X146476300Y-147335426D01*
X145608322Y-147335426D01*
X145608225Y-147334939D01*
X145549279Y-147246721D01*
X145461061Y-147187775D01*
X145357000Y-147167076D01*
X144457000Y-147167076D01*
X144352939Y-147187775D01*
X144264721Y-147246721D01*
X144205775Y-147334939D01*
X144185076Y-147439000D01*
X144185076Y-148639000D01*
X144205775Y-148743061D01*
X144264721Y-148831279D01*
X144352939Y-148890225D01*
X144440300Y-148907602D01*
X144440300Y-150693029D01*
X144107757Y-150915227D01*
X143862739Y-151281923D01*
X143776700Y-151714470D01*
X143497300Y-151714470D01*
X143411261Y-151281923D01*
X143166243Y-150915227D01*
X142833700Y-150693029D01*
X142833700Y-148907602D01*
X142921061Y-148890225D01*
X143009279Y-148831279D01*
X143068225Y-148743061D01*
X143088924Y-148639000D01*
X143088924Y-147439000D01*
X143068225Y-147334939D01*
X143009279Y-147246721D01*
X142921061Y-147187775D01*
X142817000Y-147167076D01*
X141917000Y-147167076D01*
X141812939Y-147187775D01*
X141724721Y-147246721D01*
X141665775Y-147334939D01*
X141645076Y-147439000D01*
X141645076Y-148639000D01*
X141665775Y-148743061D01*
X141724721Y-148831279D01*
X141812939Y-148890225D01*
X141900300Y-148907602D01*
X141900300Y-150693029D01*
X141567757Y-150915227D01*
X141322739Y-151281923D01*
X141236700Y-151714470D01*
X138422524Y-151714470D01*
X138422524Y-151436457D01*
X138481317Y-151436457D01*
X138580638Y-151650700D01*
X139585700Y-151650700D01*
X139585700Y-150508908D01*
X140068300Y-150508908D01*
X140068300Y-151650700D01*
X141073362Y-151650700D01*
X141172683Y-151436457D01*
X140954241Y-150944562D01*
X140564187Y-150573704D01*
X140278566Y-150431023D01*
X140068300Y-150508908D01*
X139585700Y-150508908D01*
X139375434Y-150431023D01*
X139089813Y-150573704D01*
X138699759Y-150944562D01*
X138481317Y-151436457D01*
X138422524Y-151436457D01*
X138422524Y-150876000D01*
X138401825Y-150771939D01*
X138342879Y-150683721D01*
X138254661Y-150624775D01*
X138150600Y-150604076D01*
X136423400Y-150604076D01*
X136319339Y-150624775D01*
X136231121Y-150683721D01*
X136172175Y-150771939D01*
X136151476Y-150876000D01*
X134217536Y-150876000D01*
X133909547Y-150670209D01*
X133477000Y-150584170D01*
X133044453Y-150670209D01*
X132677757Y-150915227D01*
X132432739Y-151281923D01*
X132346700Y-151714470D01*
X132346700Y-152069530D01*
X132420556Y-152440830D01*
X131312075Y-153549311D01*
X118509703Y-153549311D01*
X118996985Y-153062029D01*
X119074453Y-153113791D01*
X119507000Y-153199830D01*
X119939547Y-153113791D01*
X120306243Y-152868773D01*
X120551261Y-152502077D01*
X120637300Y-152069530D01*
X120637300Y-151714470D01*
X120551261Y-151281923D01*
X120306243Y-150915227D01*
X120247536Y-150876000D01*
X122181476Y-150876000D01*
X122181476Y-152908000D01*
X122202175Y-153012061D01*
X122261121Y-153100279D01*
X122349339Y-153159225D01*
X122453400Y-153179924D01*
X124180600Y-153179924D01*
X124284661Y-153159225D01*
X124372879Y-153100279D01*
X124431825Y-153012061D01*
X124452524Y-152908000D01*
X124452524Y-152347543D01*
X124511317Y-152347543D01*
X124729759Y-152839438D01*
X125119813Y-153210296D01*
X125405434Y-153352977D01*
X125615700Y-153275092D01*
X125615700Y-152133300D01*
X126098300Y-152133300D01*
X126098300Y-153275092D01*
X126308566Y-153352977D01*
X126594187Y-153210296D01*
X126984241Y-152839438D01*
X127202683Y-152347543D01*
X127103362Y-152133300D01*
X126098300Y-152133300D01*
X125615700Y-152133300D01*
X124610638Y-152133300D01*
X124511317Y-152347543D01*
X124452524Y-152347543D01*
X124452524Y-151714470D01*
X127266700Y-151714470D01*
X127266700Y-152069530D01*
X127352739Y-152502077D01*
X127597757Y-152868773D01*
X127964453Y-153113791D01*
X128397000Y-153199830D01*
X128829547Y-153113791D01*
X129196243Y-152868773D01*
X129441261Y-152502077D01*
X129527300Y-152069530D01*
X129527300Y-151714470D01*
X129806700Y-151714470D01*
X129806700Y-152069530D01*
X129892739Y-152502077D01*
X130137757Y-152868773D01*
X130504453Y-153113791D01*
X130937000Y-153199830D01*
X131369547Y-153113791D01*
X131736243Y-152868773D01*
X131981261Y-152502077D01*
X132067300Y-152069530D01*
X132067300Y-151714470D01*
X131981261Y-151281923D01*
X131736243Y-150915227D01*
X131403700Y-150693029D01*
X131403700Y-148907602D01*
X131491061Y-148890225D01*
X131579279Y-148831279D01*
X131638225Y-148743061D01*
X131658924Y-148639000D01*
X131658924Y-148410475D01*
X132506300Y-148410475D01*
X132506300Y-148742574D01*
X132585572Y-148933953D01*
X132732047Y-149080428D01*
X132923427Y-149159700D01*
X133121825Y-149159700D01*
X133252000Y-149029525D01*
X133252000Y-148280300D01*
X133702000Y-148280300D01*
X133702000Y-149029525D01*
X133832175Y-149159700D01*
X134030573Y-149159700D01*
X134221953Y-149080428D01*
X134368428Y-148933953D01*
X134447700Y-148742574D01*
X134447700Y-148531400D01*
X136393710Y-148531400D01*
X136393710Y-150357600D01*
X137672291Y-150357600D01*
X137672291Y-148531400D01*
X136393710Y-148531400D01*
X134447700Y-148531400D01*
X134447700Y-148410475D01*
X138856300Y-148410475D01*
X138856300Y-148742574D01*
X138935572Y-148933953D01*
X139082047Y-149080428D01*
X139273427Y-149159700D01*
X139471825Y-149159700D01*
X139602000Y-149029525D01*
X139602000Y-148280300D01*
X140052000Y-148280300D01*
X140052000Y-149029525D01*
X140182175Y-149159700D01*
X140380573Y-149159700D01*
X140571953Y-149080428D01*
X140718428Y-148933953D01*
X140797700Y-148742574D01*
X140797700Y-148410475D01*
X140667525Y-148280300D01*
X140052000Y-148280300D01*
X139602000Y-148280300D01*
X138986475Y-148280300D01*
X138856300Y-148410475D01*
X134447700Y-148410475D01*
X134317525Y-148280300D01*
X133702000Y-148280300D01*
X133252000Y-148280300D01*
X132636475Y-148280300D01*
X132506300Y-148410475D01*
X131658924Y-148410475D01*
X131658924Y-147439000D01*
X131638322Y-147335426D01*
X132506300Y-147335426D01*
X132506300Y-147667525D01*
X132636475Y-147797700D01*
X133252000Y-147797700D01*
X133252000Y-147048475D01*
X133702000Y-147048475D01*
X133702000Y-147797700D01*
X134317525Y-147797700D01*
X134447700Y-147667525D01*
X134447700Y-147335426D01*
X138856300Y-147335426D01*
X138856300Y-147667525D01*
X138986475Y-147797700D01*
X139602000Y-147797700D01*
X139602000Y-147048475D01*
X140052000Y-147048475D01*
X140052000Y-147797700D01*
X140667525Y-147797700D01*
X140797700Y-147667525D01*
X140797700Y-147335426D01*
X140718428Y-147144047D01*
X140571953Y-146997572D01*
X140380573Y-146918300D01*
X140182175Y-146918300D01*
X140052000Y-147048475D01*
X139602000Y-147048475D01*
X139471825Y-146918300D01*
X139273427Y-146918300D01*
X139082047Y-146997572D01*
X138935572Y-147144047D01*
X138856300Y-147335426D01*
X134447700Y-147335426D01*
X134368428Y-147144047D01*
X134221953Y-146997572D01*
X134030573Y-146918300D01*
X133832175Y-146918300D01*
X133702000Y-147048475D01*
X133252000Y-147048475D01*
X133121825Y-146918300D01*
X132923427Y-146918300D01*
X132732047Y-146997572D01*
X132585572Y-147144047D01*
X132506300Y-147335426D01*
X131638322Y-147335426D01*
X131638225Y-147334939D01*
X131579279Y-147246721D01*
X131491061Y-147187775D01*
X131387000Y-147167076D01*
X130487000Y-147167076D01*
X130382939Y-147187775D01*
X130294721Y-147246721D01*
X130235775Y-147334939D01*
X130215076Y-147439000D01*
X130215076Y-148639000D01*
X130235775Y-148743061D01*
X130294721Y-148831279D01*
X130382939Y-148890225D01*
X130470300Y-148907602D01*
X130470300Y-150693029D01*
X130137757Y-150915227D01*
X129892739Y-151281923D01*
X129806700Y-151714470D01*
X129527300Y-151714470D01*
X129441261Y-151281923D01*
X129196243Y-150915227D01*
X128863700Y-150693029D01*
X128863700Y-148907602D01*
X128951061Y-148890225D01*
X129039279Y-148831279D01*
X129098225Y-148743061D01*
X129118924Y-148639000D01*
X129118924Y-147439000D01*
X129098225Y-147334939D01*
X129039279Y-147246721D01*
X128951061Y-147187775D01*
X128847000Y-147167076D01*
X127947000Y-147167076D01*
X127842939Y-147187775D01*
X127754721Y-147246721D01*
X127695775Y-147334939D01*
X127675076Y-147439000D01*
X127675076Y-148639000D01*
X127695775Y-148743061D01*
X127754721Y-148831279D01*
X127842939Y-148890225D01*
X127930300Y-148907602D01*
X127930300Y-150693029D01*
X127597757Y-150915227D01*
X127352739Y-151281923D01*
X127266700Y-151714470D01*
X124452524Y-151714470D01*
X124452524Y-151436457D01*
X124511317Y-151436457D01*
X124610638Y-151650700D01*
X125615700Y-151650700D01*
X125615700Y-150508908D01*
X126098300Y-150508908D01*
X126098300Y-151650700D01*
X127103362Y-151650700D01*
X127202683Y-151436457D01*
X126984241Y-150944562D01*
X126594187Y-150573704D01*
X126308566Y-150431023D01*
X126098300Y-150508908D01*
X125615700Y-150508908D01*
X125405434Y-150431023D01*
X125119813Y-150573704D01*
X124729759Y-150944562D01*
X124511317Y-151436457D01*
X124452524Y-151436457D01*
X124452524Y-150876000D01*
X124431825Y-150771939D01*
X124372879Y-150683721D01*
X124284661Y-150624775D01*
X124180600Y-150604076D01*
X122453400Y-150604076D01*
X122349339Y-150624775D01*
X122261121Y-150683721D01*
X122202175Y-150771939D01*
X122181476Y-150876000D01*
X120247536Y-150876000D01*
X119939547Y-150670209D01*
X119507000Y-150584170D01*
X119074453Y-150670209D01*
X118707757Y-150915227D01*
X118462739Y-151281923D01*
X118376700Y-151714470D01*
X118376700Y-152069530D01*
X118425271Y-152313715D01*
X117843685Y-152895301D01*
X117726541Y-152895301D01*
X117766243Y-152868773D01*
X118011261Y-152502077D01*
X118097300Y-152069530D01*
X118097300Y-151714470D01*
X118011261Y-151281923D01*
X117766243Y-150915227D01*
X117433700Y-150693029D01*
X117433700Y-148907602D01*
X117521061Y-148890225D01*
X117609279Y-148831279D01*
X117668225Y-148743061D01*
X117688924Y-148639000D01*
X117688924Y-148410475D01*
X118536300Y-148410475D01*
X118536300Y-148742574D01*
X118615572Y-148933953D01*
X118762047Y-149080428D01*
X118953427Y-149159700D01*
X119151825Y-149159700D01*
X119282000Y-149029525D01*
X119282000Y-148280300D01*
X119732000Y-148280300D01*
X119732000Y-149029525D01*
X119862175Y-149159700D01*
X120060573Y-149159700D01*
X120251953Y-149080428D01*
X120398428Y-148933953D01*
X120477700Y-148742574D01*
X120477700Y-148531400D01*
X122423710Y-148531400D01*
X122423710Y-150357600D01*
X123702291Y-150357600D01*
X123702291Y-148531400D01*
X122423710Y-148531400D01*
X120477700Y-148531400D01*
X120477700Y-148410475D01*
X124886300Y-148410475D01*
X124886300Y-148742574D01*
X124965572Y-148933953D01*
X125112047Y-149080428D01*
X125303427Y-149159700D01*
X125501825Y-149159700D01*
X125632000Y-149029525D01*
X125632000Y-148280300D01*
X126082000Y-148280300D01*
X126082000Y-149029525D01*
X126212175Y-149159700D01*
X126410573Y-149159700D01*
X126601953Y-149080428D01*
X126748428Y-148933953D01*
X126827700Y-148742574D01*
X126827700Y-148410475D01*
X126697525Y-148280300D01*
X126082000Y-148280300D01*
X125632000Y-148280300D01*
X125016475Y-148280300D01*
X124886300Y-148410475D01*
X120477700Y-148410475D01*
X120347525Y-148280300D01*
X119732000Y-148280300D01*
X119282000Y-148280300D01*
X118666475Y-148280300D01*
X118536300Y-148410475D01*
X117688924Y-148410475D01*
X117688924Y-147439000D01*
X117668322Y-147335426D01*
X118536300Y-147335426D01*
X118536300Y-147667525D01*
X118666475Y-147797700D01*
X119282000Y-147797700D01*
X119282000Y-147048475D01*
X119732000Y-147048475D01*
X119732000Y-147797700D01*
X120347525Y-147797700D01*
X120477700Y-147667525D01*
X120477700Y-147335426D01*
X124886300Y-147335426D01*
X124886300Y-147667525D01*
X125016475Y-147797700D01*
X125632000Y-147797700D01*
X125632000Y-147048475D01*
X126082000Y-147048475D01*
X126082000Y-147797700D01*
X126697525Y-147797700D01*
X126827700Y-147667525D01*
X126827700Y-147335426D01*
X126748428Y-147144047D01*
X126601953Y-146997572D01*
X126410573Y-146918300D01*
X126212175Y-146918300D01*
X126082000Y-147048475D01*
X125632000Y-147048475D01*
X125501825Y-146918300D01*
X125303427Y-146918300D01*
X125112047Y-146997572D01*
X124965572Y-147144047D01*
X124886300Y-147335426D01*
X120477700Y-147335426D01*
X120398428Y-147144047D01*
X120251953Y-146997572D01*
X120060573Y-146918300D01*
X119862175Y-146918300D01*
X119732000Y-147048475D01*
X119282000Y-147048475D01*
X119151825Y-146918300D01*
X118953427Y-146918300D01*
X118762047Y-146997572D01*
X118615572Y-147144047D01*
X118536300Y-147335426D01*
X117668322Y-147335426D01*
X117668225Y-147334939D01*
X117609279Y-147246721D01*
X117521061Y-147187775D01*
X117417000Y-147167076D01*
X116517000Y-147167076D01*
X116412939Y-147187775D01*
X116324721Y-147246721D01*
X116265775Y-147334939D01*
X116245076Y-147439000D01*
X116245076Y-148639000D01*
X116265775Y-148743061D01*
X116324721Y-148831279D01*
X116412939Y-148890225D01*
X116500300Y-148907602D01*
X116500300Y-150693029D01*
X116167757Y-150915227D01*
X115922739Y-151281923D01*
X115836700Y-151714470D01*
X115836700Y-152069530D01*
X115922739Y-152502077D01*
X116167757Y-152868773D01*
X116207459Y-152895301D01*
X115186541Y-152895301D01*
X115226243Y-152868773D01*
X115471261Y-152502077D01*
X115557300Y-152069530D01*
X115557300Y-151714470D01*
X115471261Y-151281923D01*
X115226243Y-150915227D01*
X114893700Y-150693029D01*
X114893700Y-148907602D01*
X114981061Y-148890225D01*
X115069279Y-148831279D01*
X115128225Y-148743061D01*
X115148924Y-148639000D01*
X115148924Y-147439000D01*
X115128225Y-147334939D01*
X115069279Y-147246721D01*
X114981061Y-147187775D01*
X114877000Y-147167076D01*
X113977000Y-147167076D01*
X113872939Y-147187775D01*
X113784721Y-147246721D01*
X113725775Y-147334939D01*
X113705076Y-147439000D01*
X113705076Y-148639000D01*
X113725775Y-148743061D01*
X113784721Y-148831279D01*
X113872939Y-148890225D01*
X113960300Y-148907602D01*
X113960300Y-150693029D01*
X113627757Y-150915227D01*
X113382739Y-151281923D01*
X113296700Y-151714470D01*
X113296700Y-152069530D01*
X113382739Y-152502077D01*
X113627757Y-152868773D01*
X113667459Y-152895301D01*
X112955486Y-152895301D01*
X113014241Y-152839438D01*
X113232683Y-152347543D01*
X113133362Y-152133300D01*
X112128300Y-152133300D01*
X112128300Y-152153300D01*
X111645700Y-152153300D01*
X111645700Y-152133300D01*
X110640638Y-152133300D01*
X110541317Y-152347543D01*
X110759759Y-152839438D01*
X110818514Y-152895301D01*
X110482524Y-152895301D01*
X110482524Y-151436457D01*
X110541317Y-151436457D01*
X110640638Y-151650700D01*
X111645700Y-151650700D01*
X111645700Y-150508908D01*
X112128300Y-150508908D01*
X112128300Y-151650700D01*
X113133362Y-151650700D01*
X113232683Y-151436457D01*
X113014241Y-150944562D01*
X112624187Y-150573704D01*
X112338566Y-150431023D01*
X112128300Y-150508908D01*
X111645700Y-150508908D01*
X111435434Y-150431023D01*
X111149813Y-150573704D01*
X110759759Y-150944562D01*
X110541317Y-151436457D01*
X110482524Y-151436457D01*
X110482524Y-150876000D01*
X110461825Y-150771939D01*
X110402879Y-150683721D01*
X110314661Y-150624775D01*
X110210600Y-150604076D01*
X108483400Y-150604076D01*
X108473730Y-150605999D01*
X108473730Y-150357600D01*
X109732291Y-150357600D01*
X109732291Y-148531400D01*
X108473730Y-148531400D01*
X108473730Y-148410475D01*
X110916300Y-148410475D01*
X110916300Y-148742574D01*
X110995572Y-148933953D01*
X111142047Y-149080428D01*
X111333427Y-149159700D01*
X111531825Y-149159700D01*
X111662000Y-149029525D01*
X111662000Y-148280300D01*
X112112000Y-148280300D01*
X112112000Y-149029525D01*
X112242175Y-149159700D01*
X112440573Y-149159700D01*
X112631953Y-149080428D01*
X112778428Y-148933953D01*
X112857700Y-148742574D01*
X112857700Y-148410475D01*
X112727525Y-148280300D01*
X112112000Y-148280300D01*
X111662000Y-148280300D01*
X111046475Y-148280300D01*
X110916300Y-148410475D01*
X108473730Y-148410475D01*
X108473730Y-147599920D01*
X108738224Y-147335426D01*
X110916300Y-147335426D01*
X110916300Y-147667525D01*
X111046475Y-147797700D01*
X111662000Y-147797700D01*
X111662000Y-147048475D01*
X112112000Y-147048475D01*
X112112000Y-147797700D01*
X112727525Y-147797700D01*
X112857700Y-147667525D01*
X112857700Y-147335426D01*
X112778428Y-147144047D01*
X112631953Y-146997572D01*
X112440573Y-146918300D01*
X112242175Y-146918300D01*
X112112000Y-147048475D01*
X111662000Y-147048475D01*
X111531825Y-146918300D01*
X111333427Y-146918300D01*
X111142047Y-146997572D01*
X110995572Y-147144047D01*
X110916300Y-147335426D01*
X108738224Y-147335426D01*
X109245047Y-146828603D01*
X109346215Y-146677195D01*
X109381740Y-146498596D01*
X109381740Y-143881274D01*
X109435339Y-143827675D01*
X111340300Y-143827675D01*
X111340300Y-143988573D01*
X111419572Y-144179953D01*
X111566047Y-144326428D01*
X111757426Y-144405700D01*
X112089525Y-144405700D01*
X112219700Y-144275525D01*
X112219700Y-143697500D01*
X111470475Y-143697500D01*
X111340300Y-143827675D01*
X109435339Y-143827675D01*
X110231587Y-143031427D01*
X111340300Y-143031427D01*
X111340300Y-143192325D01*
X111470475Y-143322500D01*
X112219700Y-143322500D01*
X112219700Y-142744475D01*
X112089525Y-142614300D01*
X111757426Y-142614300D01*
X111566047Y-142693572D01*
X111419572Y-142840047D01*
X111340300Y-143031427D01*
X110231587Y-143031427D01*
X115128314Y-138134700D01*
X118301286Y-138134700D01*
X114030993Y-142404993D01*
X113929825Y-142556401D01*
X113920044Y-142605573D01*
X113894300Y-142735000D01*
X113894300Y-142863076D01*
X113761000Y-142863076D01*
X113656939Y-142883775D01*
X113568721Y-142942721D01*
X113554051Y-142964676D01*
X113502428Y-142840047D01*
X113355953Y-142693572D01*
X113164574Y-142614300D01*
X112832475Y-142614300D01*
X112702300Y-142744475D01*
X112702300Y-143322500D01*
X112722300Y-143322500D01*
X112722300Y-143697500D01*
X112702300Y-143697500D01*
X112702300Y-144275525D01*
X112832475Y-144405700D01*
X113164574Y-144405700D01*
X113355953Y-144326428D01*
X113502428Y-144179953D01*
X113554051Y-144055324D01*
X113568721Y-144077279D01*
X113656939Y-144136225D01*
X113761000Y-144156924D01*
X113894300Y-144156924D01*
X113894300Y-144983526D01*
X113872939Y-144987775D01*
X113784721Y-145046721D01*
X113725775Y-145134939D01*
X113705076Y-145239000D01*
X113705076Y-145372300D01*
X112608924Y-145372300D01*
X112608924Y-145239000D01*
X112588225Y-145134939D01*
X112529279Y-145046721D01*
X112441061Y-144987775D01*
X112337000Y-144967076D01*
X111437000Y-144967076D01*
X111332939Y-144987775D01*
X111244721Y-145046721D01*
X111185775Y-145134939D01*
X111165076Y-145239000D01*
X111165076Y-146439000D01*
X111185775Y-146543061D01*
X111244721Y-146631279D01*
X111332939Y-146690225D01*
X111437000Y-146710924D01*
X112337000Y-146710924D01*
X112441061Y-146690225D01*
X112529279Y-146631279D01*
X112588225Y-146543061D01*
X112608924Y-146439000D01*
X112608924Y-146305700D01*
X113705076Y-146305700D01*
X113705076Y-146439000D01*
X113725775Y-146543061D01*
X113784721Y-146631279D01*
X113872939Y-146690225D01*
X113977000Y-146710924D01*
X114877000Y-146710924D01*
X114981061Y-146690225D01*
X115069279Y-146631279D01*
X115128225Y-146543061D01*
X115148924Y-146439000D01*
X115148924Y-145239000D01*
X115128225Y-145134939D01*
X115069279Y-145046721D01*
X114981061Y-144987775D01*
X114877000Y-144967076D01*
X114827700Y-144967076D01*
X114827700Y-144156924D01*
X114961000Y-144156924D01*
X115065061Y-144136225D01*
X115153279Y-144077279D01*
X115212225Y-143989061D01*
X115232924Y-143885000D01*
X115232924Y-143135000D01*
X115212225Y-143030939D01*
X115153279Y-142942721D01*
X115065061Y-142883775D01*
X114961000Y-142863076D01*
X114892938Y-142863076D01*
X118967304Y-138788710D01*
X120319277Y-138788710D01*
X116702993Y-142404993D01*
X116601825Y-142556401D01*
X116592044Y-142605573D01*
X116566300Y-142735000D01*
X116566300Y-142863076D01*
X116433000Y-142863076D01*
X116328939Y-142883775D01*
X116240721Y-142942721D01*
X116181775Y-143030939D01*
X116161076Y-143135000D01*
X116161076Y-143885000D01*
X116181775Y-143989061D01*
X116240721Y-144077279D01*
X116328939Y-144136225D01*
X116433000Y-144156924D01*
X116500300Y-144156924D01*
X116500300Y-144970398D01*
X116412939Y-144987775D01*
X116324721Y-145046721D01*
X116265775Y-145134939D01*
X116245076Y-145239000D01*
X116245076Y-146439000D01*
X116265775Y-146543061D01*
X116324721Y-146631279D01*
X116412939Y-146690225D01*
X116517000Y-146710924D01*
X117417000Y-146710924D01*
X117521061Y-146690225D01*
X117609279Y-146631279D01*
X117668225Y-146543061D01*
X117688924Y-146439000D01*
X117688924Y-146305700D01*
X118785076Y-146305700D01*
X118785076Y-146439000D01*
X118805775Y-146543061D01*
X118864721Y-146631279D01*
X118952939Y-146690225D01*
X119057000Y-146710924D01*
X119957000Y-146710924D01*
X120061061Y-146690225D01*
X120149279Y-146631279D01*
X120208225Y-146543061D01*
X120228924Y-146439000D01*
X120228924Y-145239000D01*
X120208225Y-145134939D01*
X120149279Y-145046721D01*
X120061061Y-144987775D01*
X119957000Y-144967076D01*
X119057000Y-144967076D01*
X118952939Y-144987775D01*
X118864721Y-145046721D01*
X118805775Y-145134939D01*
X118785076Y-145239000D01*
X118785076Y-145372300D01*
X117688924Y-145372300D01*
X117688924Y-145239000D01*
X117668225Y-145134939D01*
X117609279Y-145046721D01*
X117521061Y-144987775D01*
X117433700Y-144970398D01*
X117433700Y-144156924D01*
X117633000Y-144156924D01*
X117737061Y-144136225D01*
X117825279Y-144077279D01*
X117839949Y-144055324D01*
X117891572Y-144179953D01*
X118038047Y-144326428D01*
X118229426Y-144405700D01*
X118561525Y-144405700D01*
X118691700Y-144275525D01*
X118691700Y-143697500D01*
X119174300Y-143697500D01*
X119174300Y-144275525D01*
X119304475Y-144405700D01*
X119636574Y-144405700D01*
X119827953Y-144326428D01*
X119974428Y-144179953D01*
X120053700Y-143988573D01*
X120053700Y-143827675D01*
X125437300Y-143827675D01*
X125437300Y-143988573D01*
X125516572Y-144179953D01*
X125663047Y-144326428D01*
X125854426Y-144405700D01*
X126186525Y-144405700D01*
X126316700Y-144275525D01*
X126316700Y-143697500D01*
X125567475Y-143697500D01*
X125437300Y-143827675D01*
X120053700Y-143827675D01*
X119923525Y-143697500D01*
X119174300Y-143697500D01*
X118691700Y-143697500D01*
X118671700Y-143697500D01*
X118671700Y-143322500D01*
X118691700Y-143322500D01*
X118691700Y-142744475D01*
X119174300Y-142744475D01*
X119174300Y-143322500D01*
X119923525Y-143322500D01*
X120053700Y-143192325D01*
X120053700Y-143031427D01*
X125437300Y-143031427D01*
X125437300Y-143192325D01*
X125567475Y-143322500D01*
X126316700Y-143322500D01*
X126316700Y-142744475D01*
X126186525Y-142614300D01*
X125854426Y-142614300D01*
X125663047Y-142693572D01*
X125516572Y-142840047D01*
X125437300Y-143031427D01*
X120053700Y-143031427D01*
X119974428Y-142840047D01*
X119827953Y-142693572D01*
X119636574Y-142614300D01*
X119304475Y-142614300D01*
X119174300Y-142744475D01*
X118691700Y-142744475D01*
X118561525Y-142614300D01*
X118229426Y-142614300D01*
X118038047Y-142693572D01*
X117891572Y-142840047D01*
X117839949Y-142964676D01*
X117825279Y-142942721D01*
X117737061Y-142883775D01*
X117633000Y-142863076D01*
X117564938Y-142863076D01*
X120985293Y-139442720D01*
X126676671Y-139442720D01*
X126855270Y-139407195D01*
X127006678Y-139306027D01*
X130113331Y-136199374D01*
X130113331Y-140419655D01*
X128127993Y-142404993D01*
X128026825Y-142556401D01*
X128017044Y-142605573D01*
X127991300Y-142735000D01*
X127991300Y-142863076D01*
X127858000Y-142863076D01*
X127753939Y-142883775D01*
X127665721Y-142942721D01*
X127651051Y-142964676D01*
X127599428Y-142840047D01*
X127452953Y-142693572D01*
X127261574Y-142614300D01*
X126929475Y-142614300D01*
X126799300Y-142744475D01*
X126799300Y-143322500D01*
X126819300Y-143322500D01*
X126819300Y-143697500D01*
X126799300Y-143697500D01*
X126799300Y-144275525D01*
X126929475Y-144405700D01*
X127261574Y-144405700D01*
X127452953Y-144326428D01*
X127599428Y-144179953D01*
X127651051Y-144055324D01*
X127665721Y-144077279D01*
X127753939Y-144136225D01*
X127858000Y-144156924D01*
X127991300Y-144156924D01*
X127991300Y-144967076D01*
X127947000Y-144967076D01*
X127842939Y-144987775D01*
X127754721Y-145046721D01*
X127695775Y-145134939D01*
X127675076Y-145239000D01*
X127675076Y-145372300D01*
X126578924Y-145372300D01*
X126578924Y-145239000D01*
X126558225Y-145134939D01*
X126499279Y-145046721D01*
X126411061Y-144987775D01*
X126307000Y-144967076D01*
X125407000Y-144967076D01*
X125302939Y-144987775D01*
X125214721Y-145046721D01*
X125155775Y-145134939D01*
X125135076Y-145239000D01*
X125135076Y-146439000D01*
X125155775Y-146543061D01*
X125214721Y-146631279D01*
X125302939Y-146690225D01*
X125407000Y-146710924D01*
X126307000Y-146710924D01*
X126411061Y-146690225D01*
X126499279Y-146631279D01*
X126558225Y-146543061D01*
X126578924Y-146439000D01*
X126578924Y-146305700D01*
X127675076Y-146305700D01*
X127675076Y-146439000D01*
X127695775Y-146543061D01*
X127754721Y-146631279D01*
X127842939Y-146690225D01*
X127947000Y-146710924D01*
X128847000Y-146710924D01*
X128951061Y-146690225D01*
X129039279Y-146631279D01*
X129098225Y-146543061D01*
X129118924Y-146439000D01*
X129118924Y-145239000D01*
X129098225Y-145134939D01*
X129039279Y-145046721D01*
X128951061Y-144987775D01*
X128924700Y-144982531D01*
X128924700Y-144156924D01*
X129058000Y-144156924D01*
X129162061Y-144136225D01*
X129250279Y-144077279D01*
X129309225Y-143989061D01*
X129329924Y-143885000D01*
X129329924Y-143135000D01*
X129309225Y-143030939D01*
X129250279Y-142942721D01*
X129162061Y-142883775D01*
X129058000Y-142863076D01*
X128989938Y-142863076D01*
X130851300Y-141001714D01*
X130851300Y-142226686D01*
X130672993Y-142404993D01*
X130571825Y-142556401D01*
X130562044Y-142605573D01*
X130536300Y-142735000D01*
X130536300Y-142863076D01*
X130403000Y-142863076D01*
X130298939Y-142883775D01*
X130210721Y-142942721D01*
X130151775Y-143030939D01*
X130131076Y-143135000D01*
X130131076Y-143885000D01*
X130151775Y-143989061D01*
X130210721Y-144077279D01*
X130298939Y-144136225D01*
X130403000Y-144156924D01*
X130470300Y-144156924D01*
X130470300Y-144970398D01*
X130382939Y-144987775D01*
X130294721Y-145046721D01*
X130235775Y-145134939D01*
X130215076Y-145239000D01*
X130215076Y-146439000D01*
X130235775Y-146543061D01*
X130294721Y-146631279D01*
X130382939Y-146690225D01*
X130487000Y-146710924D01*
X131387000Y-146710924D01*
X131491061Y-146690225D01*
X131579279Y-146631279D01*
X131638225Y-146543061D01*
X131658924Y-146439000D01*
X131658924Y-146305700D01*
X132755076Y-146305700D01*
X132755076Y-146439000D01*
X132775775Y-146543061D01*
X132834721Y-146631279D01*
X132922939Y-146690225D01*
X133027000Y-146710924D01*
X133927000Y-146710924D01*
X134031061Y-146690225D01*
X134119279Y-146631279D01*
X134178225Y-146543061D01*
X134198924Y-146439000D01*
X134198924Y-145239000D01*
X134178225Y-145134939D01*
X134119279Y-145046721D01*
X134031061Y-144987775D01*
X133927000Y-144967076D01*
X133027000Y-144967076D01*
X132922939Y-144987775D01*
X132834721Y-145046721D01*
X132775775Y-145134939D01*
X132755076Y-145239000D01*
X132755076Y-145372300D01*
X131658924Y-145372300D01*
X131658924Y-145239000D01*
X131638225Y-145134939D01*
X131579279Y-145046721D01*
X131491061Y-144987775D01*
X131403700Y-144970398D01*
X131403700Y-144156924D01*
X131603000Y-144156924D01*
X131707061Y-144136225D01*
X131795279Y-144077279D01*
X131809949Y-144055324D01*
X131861572Y-144179953D01*
X132008047Y-144326428D01*
X132199426Y-144405700D01*
X132531525Y-144405700D01*
X132661700Y-144275525D01*
X132661700Y-143697500D01*
X133144300Y-143697500D01*
X133144300Y-144275525D01*
X133274475Y-144405700D01*
X133606574Y-144405700D01*
X133797953Y-144326428D01*
X133944428Y-144179953D01*
X134023700Y-143988573D01*
X134023700Y-143827675D01*
X139280300Y-143827675D01*
X139280300Y-143988573D01*
X139359572Y-144179953D01*
X139506047Y-144326428D01*
X139697426Y-144405700D01*
X140029525Y-144405700D01*
X140159700Y-144275525D01*
X140159700Y-143697500D01*
X139410475Y-143697500D01*
X139280300Y-143827675D01*
X134023700Y-143827675D01*
X133893525Y-143697500D01*
X133144300Y-143697500D01*
X132661700Y-143697500D01*
X132641700Y-143697500D01*
X132641700Y-143322500D01*
X132661700Y-143322500D01*
X132661700Y-142744475D01*
X133144300Y-142744475D01*
X133144300Y-143322500D01*
X133893525Y-143322500D01*
X134023700Y-143192325D01*
X134023700Y-143031427D01*
X139280300Y-143031427D01*
X139280300Y-143192325D01*
X139410475Y-143322500D01*
X140159700Y-143322500D01*
X140159700Y-142744475D01*
X140029525Y-142614300D01*
X139697426Y-142614300D01*
X139506047Y-142693572D01*
X139359572Y-142840047D01*
X139280300Y-143031427D01*
X134023700Y-143031427D01*
X133944428Y-142840047D01*
X133797953Y-142693572D01*
X133606574Y-142614300D01*
X133274475Y-142614300D01*
X133144300Y-142744475D01*
X132661700Y-142744475D01*
X132531525Y-142614300D01*
X132199426Y-142614300D01*
X132008047Y-142693572D01*
X131861572Y-142840047D01*
X131809949Y-142964676D01*
X131795279Y-142942721D01*
X131707061Y-142883775D01*
X131603000Y-142863076D01*
X131534938Y-142863076D01*
X131648007Y-142750007D01*
X131675357Y-142709074D01*
X131749175Y-142598598D01*
X131784700Y-142420000D01*
X131784700Y-111578005D01*
X131784701Y-111578000D01*
X131749175Y-111399401D01*
X131698591Y-111323698D01*
X131648007Y-111247993D01*
X131648004Y-111247991D01*
X125980745Y-105580731D01*
X126062444Y-105170000D01*
X126297556Y-105170000D01*
X126383595Y-105602547D01*
X126628613Y-105969243D01*
X126995309Y-106214261D01*
X127427856Y-106300300D01*
X127472144Y-106300300D01*
X127845934Y-106225948D01*
X142852800Y-121232814D01*
X142852800Y-141523187D01*
X141970993Y-142404993D01*
X141869825Y-142556401D01*
X141860044Y-142605573D01*
X141834300Y-142735000D01*
X141834300Y-142863076D01*
X141701000Y-142863076D01*
X141596939Y-142883775D01*
X141508721Y-142942721D01*
X141494051Y-142964676D01*
X141442428Y-142840047D01*
X141295953Y-142693572D01*
X141104574Y-142614300D01*
X140772475Y-142614300D01*
X140642300Y-142744475D01*
X140642300Y-143322500D01*
X140662300Y-143322500D01*
X140662300Y-143697500D01*
X140642300Y-143697500D01*
X140642300Y-144275525D01*
X140772475Y-144405700D01*
X141104574Y-144405700D01*
X141295953Y-144326428D01*
X141442428Y-144179953D01*
X141494051Y-144055324D01*
X141508721Y-144077279D01*
X141596939Y-144136225D01*
X141701000Y-144156924D01*
X141834300Y-144156924D01*
X141834300Y-144983526D01*
X141812939Y-144987775D01*
X141724721Y-145046721D01*
X141665775Y-145134939D01*
X141645076Y-145239000D01*
X141645076Y-145372300D01*
X140548924Y-145372300D01*
X140548924Y-145239000D01*
X140528225Y-145134939D01*
X140469279Y-145046721D01*
X140381061Y-144987775D01*
X140277000Y-144967076D01*
X139377000Y-144967076D01*
X139272939Y-144987775D01*
X139184721Y-145046721D01*
X139125775Y-145134939D01*
X139105076Y-145239000D01*
X139105076Y-146439000D01*
X139125775Y-146543061D01*
X139184721Y-146631279D01*
X139272939Y-146690225D01*
X139377000Y-146710924D01*
X140277000Y-146710924D01*
X140381061Y-146690225D01*
X140469279Y-146631279D01*
X140528225Y-146543061D01*
X140548924Y-146439000D01*
X140548924Y-146305700D01*
X141645076Y-146305700D01*
X141645076Y-146439000D01*
X141665775Y-146543061D01*
X141724721Y-146631279D01*
X141812939Y-146690225D01*
X141917000Y-146710924D01*
X142817000Y-146710924D01*
X142921061Y-146690225D01*
X143009279Y-146631279D01*
X143068225Y-146543061D01*
X143088924Y-146439000D01*
X143088924Y-145239000D01*
X143068225Y-145134939D01*
X143009279Y-145046721D01*
X142921061Y-144987775D01*
X142817000Y-144967076D01*
X142767700Y-144967076D01*
X142767700Y-144156924D01*
X142901000Y-144156924D01*
X143005061Y-144136225D01*
X143093279Y-144077279D01*
X143152225Y-143989061D01*
X143172924Y-143885000D01*
X143172924Y-143135000D01*
X143152225Y-143030939D01*
X143093279Y-142942721D01*
X143005061Y-142883775D01*
X142901000Y-142863076D01*
X142832938Y-142863076D01*
X143638293Y-142057720D01*
X143643503Y-142065517D01*
X144441062Y-142863076D01*
X144373000Y-142863076D01*
X144268939Y-142883775D01*
X144180721Y-142942721D01*
X144121775Y-143030939D01*
X144101076Y-143135000D01*
X144101076Y-143885000D01*
X144121775Y-143989061D01*
X144180721Y-144077279D01*
X144268939Y-144136225D01*
X144373000Y-144156924D01*
X144440300Y-144156924D01*
X144440300Y-144970398D01*
X144352939Y-144987775D01*
X144264721Y-145046721D01*
X144205775Y-145134939D01*
X144185076Y-145239000D01*
X144185076Y-146439000D01*
X144205775Y-146543061D01*
X144264721Y-146631279D01*
X144352939Y-146690225D01*
X144457000Y-146710924D01*
X145357000Y-146710924D01*
X145461061Y-146690225D01*
X145549279Y-146631279D01*
X145608225Y-146543061D01*
X145628924Y-146439000D01*
X145628924Y-146305700D01*
X146725076Y-146305700D01*
X146725076Y-146439000D01*
X146745775Y-146543061D01*
X146804721Y-146631279D01*
X146892939Y-146690225D01*
X146997000Y-146710924D01*
X147897000Y-146710924D01*
X148001061Y-146690225D01*
X148089279Y-146631279D01*
X148148225Y-146543061D01*
X148168924Y-146439000D01*
X148168924Y-145239000D01*
X148148225Y-145134939D01*
X148089279Y-145046721D01*
X148001061Y-144987775D01*
X147897000Y-144967076D01*
X146997000Y-144967076D01*
X146892939Y-144987775D01*
X146804721Y-145046721D01*
X146745775Y-145134939D01*
X146725076Y-145239000D01*
X146725076Y-145372300D01*
X145628924Y-145372300D01*
X145628924Y-145239000D01*
X145608225Y-145134939D01*
X145549279Y-145046721D01*
X145461061Y-144987775D01*
X145373700Y-144970398D01*
X145373700Y-144156924D01*
X145573000Y-144156924D01*
X145677061Y-144136225D01*
X145765279Y-144077279D01*
X145779949Y-144055324D01*
X145831572Y-144179953D01*
X145978047Y-144326428D01*
X146169426Y-144405700D01*
X146501525Y-144405700D01*
X146631700Y-144275525D01*
X146631700Y-143697500D01*
X147114300Y-143697500D01*
X147114300Y-144275525D01*
X147244475Y-144405700D01*
X147576574Y-144405700D01*
X147767953Y-144326428D01*
X147914428Y-144179953D01*
X147993700Y-143988573D01*
X147993700Y-143827675D01*
X153250300Y-143827675D01*
X153250300Y-143988573D01*
X153329572Y-144179953D01*
X153476047Y-144326428D01*
X153667426Y-144405700D01*
X153999525Y-144405700D01*
X154129700Y-144275525D01*
X154129700Y-143697500D01*
X153380475Y-143697500D01*
X153250300Y-143827675D01*
X147993700Y-143827675D01*
X147863525Y-143697500D01*
X147114300Y-143697500D01*
X146631700Y-143697500D01*
X146611700Y-143697500D01*
X146611700Y-143322500D01*
X146631700Y-143322500D01*
X146631700Y-142744475D01*
X147114300Y-142744475D01*
X147114300Y-143322500D01*
X147863525Y-143322500D01*
X147993700Y-143192325D01*
X147993700Y-143031427D01*
X153250300Y-143031427D01*
X153250300Y-143192325D01*
X153380475Y-143322500D01*
X154129700Y-143322500D01*
X154129700Y-142744475D01*
X153999525Y-142614300D01*
X153667426Y-142614300D01*
X153476047Y-142693572D01*
X153329572Y-142840047D01*
X153250300Y-143031427D01*
X147993700Y-143031427D01*
X147914428Y-142840047D01*
X147767953Y-142693572D01*
X147576574Y-142614300D01*
X147244475Y-142614300D01*
X147114300Y-142744475D01*
X146631700Y-142744475D01*
X146501525Y-142614300D01*
X146169426Y-142614300D01*
X145978047Y-142693572D01*
X145831572Y-142840047D01*
X145779949Y-142964676D01*
X145765279Y-142942721D01*
X145677061Y-142883775D01*
X145573000Y-142863076D01*
X145439700Y-142863076D01*
X145439700Y-142735000D01*
X145404175Y-142556402D01*
X145303007Y-142404993D01*
X144440210Y-141542196D01*
X144440210Y-129796724D01*
X155804300Y-141160814D01*
X155804300Y-142863076D01*
X155671000Y-142863076D01*
X155566939Y-142883775D01*
X155478721Y-142942721D01*
X155464051Y-142964676D01*
X155412428Y-142840047D01*
X155265953Y-142693572D01*
X155074574Y-142614300D01*
X154742475Y-142614300D01*
X154612300Y-142744475D01*
X154612300Y-143322500D01*
X154632300Y-143322500D01*
X154632300Y-143697500D01*
X154612300Y-143697500D01*
X154612300Y-144275525D01*
X154742475Y-144405700D01*
X155074574Y-144405700D01*
X155265953Y-144326428D01*
X155412428Y-144179953D01*
X155464051Y-144055324D01*
X155478721Y-144077279D01*
X155566939Y-144136225D01*
X155671000Y-144156924D01*
X155870300Y-144156924D01*
X155870300Y-144970398D01*
X155782939Y-144987775D01*
X155694721Y-145046721D01*
X155635775Y-145134939D01*
X155615076Y-145239000D01*
X155615076Y-145372300D01*
X154518924Y-145372300D01*
X154518924Y-145239000D01*
X154498225Y-145134939D01*
X154439279Y-145046721D01*
X154351061Y-144987775D01*
X154247000Y-144967076D01*
X153347000Y-144967076D01*
X153242939Y-144987775D01*
X153154721Y-145046721D01*
X153095775Y-145134939D01*
X153075076Y-145239000D01*
X153075076Y-146439000D01*
X153095775Y-146543061D01*
X153154721Y-146631279D01*
X153242939Y-146690225D01*
X153347000Y-146710924D01*
X154247000Y-146710924D01*
X154351061Y-146690225D01*
X154439279Y-146631279D01*
X154498225Y-146543061D01*
X154518924Y-146439000D01*
X154518924Y-146305700D01*
X155615076Y-146305700D01*
X155615076Y-146439000D01*
X155635775Y-146543061D01*
X155694721Y-146631279D01*
X155782939Y-146690225D01*
X155887000Y-146710924D01*
X156787000Y-146710924D01*
X156891061Y-146690225D01*
X156979279Y-146631279D01*
X157038225Y-146543061D01*
X157058924Y-146439000D01*
X157058924Y-145239000D01*
X157038225Y-145134939D01*
X156979279Y-145046721D01*
X156891061Y-144987775D01*
X156803700Y-144970398D01*
X156803700Y-144156924D01*
X156871000Y-144156924D01*
X156975061Y-144136225D01*
X157063279Y-144077279D01*
X157122225Y-143989061D01*
X157142924Y-143885000D01*
X157142924Y-143135000D01*
X157122225Y-143030939D01*
X157063279Y-142942721D01*
X156975061Y-142883775D01*
X156871000Y-142863076D01*
X156737700Y-142863076D01*
X156737700Y-141169306D01*
X158431470Y-142863076D01*
X158343000Y-142863076D01*
X158238939Y-142883775D01*
X158150721Y-142942721D01*
X158091775Y-143030939D01*
X158071076Y-143135000D01*
X158071076Y-143885000D01*
X158091775Y-143989061D01*
X158150721Y-144077279D01*
X158238939Y-144136225D01*
X158343000Y-144156924D01*
X158476300Y-144156924D01*
X158476300Y-144967076D01*
X158427000Y-144967076D01*
X158322939Y-144987775D01*
X158234721Y-145046721D01*
X158175775Y-145134939D01*
X158155076Y-145239000D01*
X158155076Y-146439000D01*
X158175775Y-146543061D01*
X158234721Y-146631279D01*
X158322939Y-146690225D01*
X158427000Y-146710924D01*
X159327000Y-146710924D01*
X159431061Y-146690225D01*
X159519279Y-146631279D01*
X159578225Y-146543061D01*
X159598924Y-146439000D01*
X159598924Y-146305700D01*
X160695076Y-146305700D01*
X160695076Y-146439000D01*
X160715775Y-146543061D01*
X160774721Y-146631279D01*
X160862939Y-146690225D01*
X160967000Y-146710924D01*
X161867000Y-146710924D01*
X161971061Y-146690225D01*
X162059279Y-146631279D01*
X162118225Y-146543061D01*
X162138924Y-146439000D01*
X162138924Y-145239000D01*
X162118225Y-145134939D01*
X162059279Y-145046721D01*
X161971061Y-144987775D01*
X161867000Y-144967076D01*
X160967000Y-144967076D01*
X160862939Y-144987775D01*
X160774721Y-145046721D01*
X160715775Y-145134939D01*
X160695076Y-145239000D01*
X160695076Y-145372300D01*
X159598924Y-145372300D01*
X159598924Y-145239000D01*
X159578225Y-145134939D01*
X159519279Y-145046721D01*
X159431061Y-144987775D01*
X159409700Y-144983526D01*
X159409700Y-144156924D01*
X159543000Y-144156924D01*
X159647061Y-144136225D01*
X159735279Y-144077279D01*
X159749949Y-144055324D01*
X159801572Y-144179953D01*
X159948047Y-144326428D01*
X160139426Y-144405700D01*
X160471525Y-144405700D01*
X160601700Y-144275525D01*
X160601700Y-143697500D01*
X161084300Y-143697500D01*
X161084300Y-144275525D01*
X161214475Y-144405700D01*
X161546574Y-144405700D01*
X161737953Y-144326428D01*
X161884428Y-144179953D01*
X161963700Y-143988573D01*
X161963700Y-143827675D01*
X161833525Y-143697500D01*
X161084300Y-143697500D01*
X160601700Y-143697500D01*
X160581700Y-143697500D01*
X160581700Y-143322500D01*
X160601700Y-143322500D01*
X160601700Y-142744475D01*
X161084300Y-142744475D01*
X161084300Y-143322500D01*
X161833525Y-143322500D01*
X161963700Y-143192325D01*
X161963700Y-143031427D01*
X161884428Y-142840047D01*
X161737953Y-142693572D01*
X161546574Y-142614300D01*
X161214475Y-142614300D01*
X161084300Y-142744475D01*
X160601700Y-142744475D01*
X160471525Y-142614300D01*
X160139426Y-142614300D01*
X159948047Y-142693572D01*
X159801572Y-142840047D01*
X159749949Y-142964676D01*
X159735279Y-142942721D01*
X159647061Y-142883775D01*
X159543000Y-142863076D01*
X159409700Y-142863076D01*
X159409700Y-142714592D01*
X159381413Y-142572381D01*
X159374175Y-142535993D01*
X159273007Y-142384585D01*
X145748230Y-128859808D01*
X145748230Y-127152400D01*
X152191576Y-127152400D01*
X152191576Y-128879600D01*
X152212275Y-128983661D01*
X152271221Y-129071879D01*
X152359439Y-129130825D01*
X152463500Y-129151524D01*
X154495500Y-129151524D01*
X154599561Y-129130825D01*
X154687779Y-129071879D01*
X154746725Y-128983661D01*
X154767424Y-128879600D01*
X154767424Y-127152400D01*
X154746725Y-127048339D01*
X154687779Y-126960121D01*
X154599561Y-126901175D01*
X154495500Y-126880476D01*
X152463500Y-126880476D01*
X152359439Y-126901175D01*
X152271221Y-126960121D01*
X152212275Y-127048339D01*
X152191576Y-127152400D01*
X145748230Y-127152400D01*
X145748230Y-125476000D01*
X152171670Y-125476000D01*
X152257709Y-125908547D01*
X152502727Y-126275243D01*
X152869423Y-126520261D01*
X153301970Y-126606300D01*
X153657030Y-126606300D01*
X154089577Y-126520261D01*
X154456273Y-126275243D01*
X154701291Y-125908547D01*
X154787330Y-125476000D01*
X154701291Y-125043453D01*
X154456273Y-124676757D01*
X154089577Y-124431739D01*
X153657030Y-124345700D01*
X153301970Y-124345700D01*
X152869423Y-124431739D01*
X152502727Y-124676757D01*
X152257709Y-125043453D01*
X152171670Y-125476000D01*
X145748230Y-125476000D01*
X145748230Y-122936000D01*
X152171670Y-122936000D01*
X152257709Y-123368547D01*
X152502727Y-123735243D01*
X152869423Y-123980261D01*
X153301970Y-124066300D01*
X153657030Y-124066300D01*
X154089577Y-123980261D01*
X154456273Y-123735243D01*
X154701291Y-123368547D01*
X154787330Y-122936000D01*
X154701291Y-122503453D01*
X154456273Y-122136757D01*
X154089577Y-121891739D01*
X153657030Y-121805700D01*
X153301970Y-121805700D01*
X152869423Y-121891739D01*
X152502727Y-122136757D01*
X152257709Y-122503453D01*
X152171670Y-122936000D01*
X145748230Y-122936000D01*
X145748230Y-120396000D01*
X152171670Y-120396000D01*
X152257709Y-120828547D01*
X152502727Y-121195243D01*
X152869423Y-121440261D01*
X153301970Y-121526300D01*
X153657030Y-121526300D01*
X154089577Y-121440261D01*
X154456273Y-121195243D01*
X154701291Y-120828547D01*
X154787330Y-120396000D01*
X154701291Y-119963453D01*
X154456273Y-119596757D01*
X154089577Y-119351739D01*
X153657030Y-119265700D01*
X153301970Y-119265700D01*
X152869423Y-119351739D01*
X152502727Y-119596757D01*
X152257709Y-119963453D01*
X152171670Y-120396000D01*
X145748230Y-120396000D01*
X145748230Y-120135535D01*
X145748231Y-120135530D01*
X145712705Y-119956931D01*
X145650879Y-119864403D01*
X145611537Y-119805523D01*
X145611534Y-119805521D01*
X143662014Y-117856000D01*
X152171670Y-117856000D01*
X152257709Y-118288547D01*
X152502727Y-118655243D01*
X152869423Y-118900261D01*
X153301970Y-118986300D01*
X153657030Y-118986300D01*
X154089577Y-118900261D01*
X154456273Y-118655243D01*
X154701291Y-118288547D01*
X154787330Y-117856000D01*
X154701291Y-117423453D01*
X154456273Y-117056757D01*
X154089577Y-116811739D01*
X153657030Y-116725700D01*
X153301970Y-116725700D01*
X152869423Y-116811739D01*
X152502727Y-117056757D01*
X152257709Y-117423453D01*
X152171670Y-117856000D01*
X143662014Y-117856000D01*
X141122014Y-115316000D01*
X152171670Y-115316000D01*
X152257709Y-115748547D01*
X152502727Y-116115243D01*
X152869423Y-116360261D01*
X153301970Y-116446300D01*
X153657030Y-116446300D01*
X154089577Y-116360261D01*
X154456273Y-116115243D01*
X154701291Y-115748547D01*
X154787330Y-115316000D01*
X154701291Y-114883453D01*
X154456273Y-114516757D01*
X154089577Y-114271739D01*
X153657030Y-114185700D01*
X153301970Y-114185700D01*
X152869423Y-114271739D01*
X152502727Y-114516757D01*
X152257709Y-114883453D01*
X152171670Y-115316000D01*
X141122014Y-115316000D01*
X134968311Y-109162297D01*
X134968311Y-102651561D01*
X134932786Y-102472963D01*
X134932786Y-102472962D01*
X134831618Y-102321554D01*
X133492456Y-100982392D01*
X133341048Y-100881224D01*
X133162449Y-100845699D01*
X131307606Y-100845699D01*
X131307601Y-100845698D01*
X131129002Y-100881224D01*
X130977594Y-100982392D01*
X130523592Y-101436394D01*
X130523590Y-101436397D01*
X130385935Y-101574052D01*
X130012144Y-101499700D01*
X129967856Y-101499700D01*
X129535309Y-101585739D01*
X129168613Y-101830757D01*
X128923595Y-102197453D01*
X128837556Y-102630000D01*
X128923595Y-103062547D01*
X129168613Y-103429243D01*
X129535309Y-103674261D01*
X129967856Y-103760300D01*
X130012144Y-103760300D01*
X130444691Y-103674261D01*
X130811387Y-103429243D01*
X131056405Y-103062547D01*
X131142444Y-102630000D01*
X131060744Y-102219269D01*
X131183603Y-102096410D01*
X131183606Y-102096408D01*
X131500915Y-101779099D01*
X131785925Y-101779099D01*
X131708613Y-101830757D01*
X131463595Y-102197453D01*
X131377556Y-102630000D01*
X131463595Y-103062547D01*
X131708613Y-103429243D01*
X132075309Y-103674261D01*
X132507856Y-103760300D01*
X132552144Y-103760300D01*
X132925934Y-103685948D01*
X133380901Y-104140915D01*
X133380901Y-104414928D01*
X133351387Y-104370757D01*
X132984691Y-104125739D01*
X132552144Y-104039700D01*
X132507856Y-104039700D01*
X132075309Y-104125739D01*
X131708613Y-104370757D01*
X131463595Y-104737453D01*
X131377556Y-105170000D01*
X131463595Y-105602547D01*
X131708613Y-105969243D01*
X132075309Y-106214261D01*
X132507856Y-106300300D01*
X132552144Y-106300300D01*
X132984691Y-106214261D01*
X133351387Y-105969243D01*
X133380901Y-105925072D01*
X133380901Y-109424704D01*
X130456700Y-106500503D01*
X130456700Y-106206237D01*
X130811387Y-105969243D01*
X131056405Y-105602547D01*
X131142444Y-105170000D01*
X131056405Y-104737453D01*
X130811387Y-104370757D01*
X130444691Y-104125739D01*
X130012144Y-104039700D01*
X129967856Y-104039700D01*
X129535309Y-104125739D01*
X129168613Y-104370757D01*
X128923595Y-104737453D01*
X128837556Y-105170000D01*
X128923595Y-105602547D01*
X129168613Y-105969243D01*
X129523300Y-106206237D01*
X129523300Y-106583286D01*
X128520745Y-105580731D01*
X128602444Y-105170000D01*
X128516405Y-104737453D01*
X128271387Y-104370757D01*
X127904691Y-104125739D01*
X127472144Y-104039700D01*
X127427856Y-104039700D01*
X126995309Y-104125739D01*
X126628613Y-104370757D01*
X126383595Y-104737453D01*
X126297556Y-105170000D01*
X126062444Y-105170000D01*
X125976405Y-104737453D01*
X125731387Y-104370757D01*
X125364691Y-104125739D01*
X124932144Y-104039700D01*
X124887856Y-104039700D01*
X124455309Y-104125739D01*
X124088613Y-104370757D01*
X123843595Y-104737453D01*
X123757556Y-105170000D01*
X123843595Y-105602547D01*
X124088613Y-105969243D01*
X124165925Y-106020901D01*
X123114075Y-106020901D01*
X123191387Y-105969243D01*
X123436405Y-105602547D01*
X123522444Y-105170000D01*
X123436405Y-104737453D01*
X123191387Y-104370757D01*
X122824691Y-104125739D01*
X122392144Y-104039700D01*
X122347856Y-104039700D01*
X121915309Y-104125739D01*
X121548613Y-104370757D01*
X121303595Y-104737453D01*
X121217556Y-105170000D01*
X121303595Y-105602547D01*
X121548613Y-105969243D01*
X121625925Y-106020901D01*
X121340915Y-106020901D01*
X120900745Y-105580731D01*
X120982444Y-105170000D01*
X120896405Y-104737453D01*
X120651387Y-104370757D01*
X120284691Y-104125739D01*
X119852144Y-104039700D01*
X119807856Y-104039700D01*
X119375309Y-104125739D01*
X119008613Y-104370757D01*
X118763595Y-104737453D01*
X118677556Y-105170000D01*
X118763595Y-105602547D01*
X119008613Y-105969243D01*
X119375309Y-106214261D01*
X119807856Y-106300300D01*
X119852144Y-106300300D01*
X120225934Y-106225948D01*
X120674897Y-106674911D01*
X116914924Y-106674911D01*
X115943606Y-105703592D01*
X115943603Y-105703590D01*
X115820744Y-105580731D01*
X115902444Y-105170000D01*
X116137556Y-105170000D01*
X116223595Y-105602547D01*
X116468613Y-105969243D01*
X116835309Y-106214261D01*
X117267856Y-106300300D01*
X117312144Y-106300300D01*
X117744691Y-106214261D01*
X118111387Y-105969243D01*
X118356405Y-105602547D01*
X118442444Y-105170000D01*
X118356405Y-104737453D01*
X118111387Y-104370757D01*
X117744691Y-104125739D01*
X117312144Y-104039700D01*
X117267856Y-104039700D01*
X116835309Y-104125739D01*
X116468613Y-104370757D01*
X116223595Y-104737453D01*
X116137556Y-105170000D01*
X115902444Y-105170000D01*
X115816405Y-104737453D01*
X115571387Y-104370757D01*
X115204691Y-104125739D01*
X114772144Y-104039700D01*
X114727856Y-104039700D01*
X114295309Y-104125739D01*
X113928613Y-104370757D01*
X113683595Y-104737453D01*
X113597556Y-105170000D01*
X113683595Y-105602547D01*
X113928613Y-105969243D01*
X114295309Y-106214261D01*
X114727856Y-106300300D01*
X114772144Y-106300300D01*
X115145935Y-106225948D01*
X115283590Y-106363603D01*
X115283592Y-106363606D01*
X116248908Y-107328921D01*
X113013752Y-107328921D01*
X111934794Y-106249963D01*
X112187856Y-106300300D01*
X112232144Y-106300300D01*
X112664691Y-106214261D01*
X113031387Y-105969243D01*
X113276405Y-105602547D01*
X113362444Y-105170000D01*
X113276405Y-104737453D01*
X113031387Y-104370757D01*
X112664691Y-104125739D01*
X112232144Y-104039700D01*
X112187856Y-104039700D01*
X111755309Y-104125739D01*
X111388613Y-104370757D01*
X111143595Y-104737453D01*
X111057556Y-105170000D01*
X111107893Y-105423062D01*
X110814402Y-105129571D01*
X110736405Y-104737453D01*
X110491387Y-104370757D01*
X110124691Y-104125739D01*
X109692144Y-104039700D01*
X109647856Y-104039700D01*
X109215309Y-104125739D01*
X108848613Y-104370757D01*
X108603595Y-104737453D01*
X108517556Y-105170000D01*
X108603595Y-105602547D01*
X108848613Y-105969243D01*
X108925925Y-106020901D01*
X107874075Y-106020901D01*
X107951387Y-105969243D01*
X108196405Y-105602547D01*
X108282444Y-105170000D01*
X108196405Y-104737453D01*
X107951387Y-104370757D01*
X107584691Y-104125739D01*
X107152144Y-104039700D01*
X107107856Y-104039700D01*
X106675309Y-104125739D01*
X106308613Y-104370757D01*
X106063595Y-104737453D01*
X105977556Y-105170000D01*
X106063595Y-105602547D01*
X106308613Y-105969243D01*
X106385925Y-106020901D01*
X106100915Y-106020901D01*
X105783606Y-105703592D01*
X105783603Y-105703590D01*
X105660744Y-105580731D01*
X105742444Y-105170000D01*
X105656405Y-104737453D01*
X105411387Y-104370757D01*
X105044691Y-104125739D01*
X104612144Y-104039700D01*
X104567856Y-104039700D01*
X104135309Y-104125739D01*
X103768613Y-104370757D01*
X103523595Y-104737453D01*
X103437556Y-105170000D01*
X103523595Y-105602547D01*
X103768613Y-105969243D01*
X104135309Y-106214261D01*
X104567856Y-106300300D01*
X104612144Y-106300300D01*
X104985935Y-106225948D01*
X105123590Y-106363603D01*
X105123592Y-106363606D01*
X105577594Y-106817608D01*
X105729002Y-106918776D01*
X105907601Y-106954302D01*
X105907606Y-106954301D01*
X106613898Y-106954301D01*
X106585426Y-106982723D01*
X106476924Y-107244024D01*
X106476677Y-107526957D01*
X106584723Y-107788447D01*
X106784612Y-107988685D01*
X107045913Y-108097187D01*
X107328846Y-108097434D01*
X107590336Y-107989388D01*
X107727151Y-107852811D01*
X110367797Y-107852811D01*
X114606497Y-112091510D01*
X114302818Y-111888599D01*
X113665000Y-111761729D01*
X113027182Y-111888599D01*
X112486465Y-112249894D01*
X112125170Y-112790611D01*
X112044076Y-113198300D01*
X108193911Y-113198300D01*
X106424940Y-111429328D01*
X109588034Y-111429328D01*
X109821489Y-111994334D01*
X110253393Y-112426991D01*
X110817990Y-112661433D01*
X111429328Y-112661966D01*
X111994334Y-112428511D01*
X112426991Y-111996607D01*
X112661433Y-111432010D01*
X112661966Y-110820672D01*
X112428511Y-110255666D01*
X111996607Y-109823009D01*
X111432010Y-109588567D01*
X110820672Y-109588034D01*
X110255666Y-109821489D01*
X109823009Y-110253393D01*
X109588567Y-110817990D01*
X109588034Y-111429328D01*
X106424940Y-111429328D01*
X101301136Y-106305524D01*
X102913600Y-106305524D01*
X103017661Y-106284825D01*
X103105879Y-106225879D01*
X103164825Y-106137661D01*
X103185524Y-106033600D01*
X103185524Y-104306400D01*
X103164825Y-104202339D01*
X103105879Y-104114121D01*
X103017661Y-104055175D01*
X102913600Y-104034476D01*
X101305538Y-104034476D01*
X101654066Y-103685948D01*
X102027856Y-103760300D01*
X102072144Y-103760300D01*
X102504691Y-103674261D01*
X102871387Y-103429243D01*
X103116405Y-103062547D01*
X103202444Y-102630000D01*
X103437556Y-102630000D01*
X103523595Y-103062547D01*
X103768613Y-103429243D01*
X104135309Y-103674261D01*
X104567856Y-103760300D01*
X104612144Y-103760300D01*
X105044691Y-103674261D01*
X105411387Y-103429243D01*
X105643696Y-103081566D01*
X105821423Y-103081566D01*
X105885374Y-103236010D01*
X106212026Y-103666178D01*
X106678431Y-103938597D01*
X106888700Y-103862952D01*
X106888700Y-102871300D01*
X107371300Y-102871300D01*
X107371300Y-103862952D01*
X107581569Y-103938597D01*
X108047974Y-103666178D01*
X108374626Y-103236010D01*
X108438577Y-103081566D01*
X108360692Y-102871300D01*
X107371300Y-102871300D01*
X106888700Y-102871300D01*
X105899308Y-102871300D01*
X105821423Y-103081566D01*
X105643696Y-103081566D01*
X105656405Y-103062547D01*
X105742444Y-102630000D01*
X108517556Y-102630000D01*
X108603595Y-103062547D01*
X108848613Y-103429243D01*
X109215309Y-103674261D01*
X109647856Y-103760300D01*
X109692144Y-103760300D01*
X110124691Y-103674261D01*
X110491387Y-103429243D01*
X110736405Y-103062547D01*
X110822444Y-102630000D01*
X111057556Y-102630000D01*
X111143595Y-103062547D01*
X111388613Y-103429243D01*
X111755309Y-103674261D01*
X112187856Y-103760300D01*
X112232144Y-103760300D01*
X112664691Y-103674261D01*
X113031387Y-103429243D01*
X113276405Y-103062547D01*
X113362444Y-102630000D01*
X113597556Y-102630000D01*
X113683595Y-103062547D01*
X113928613Y-103429243D01*
X114295309Y-103674261D01*
X114727856Y-103760300D01*
X114772144Y-103760300D01*
X115204691Y-103674261D01*
X115571387Y-103429243D01*
X115816405Y-103062547D01*
X115902444Y-102630000D01*
X116137556Y-102630000D01*
X116223595Y-103062547D01*
X116468613Y-103429243D01*
X116835309Y-103674261D01*
X117267856Y-103760300D01*
X117312144Y-103760300D01*
X117744691Y-103674261D01*
X118111387Y-103429243D01*
X118356405Y-103062547D01*
X118442444Y-102630000D01*
X118677556Y-102630000D01*
X118763595Y-103062547D01*
X119008613Y-103429243D01*
X119375309Y-103674261D01*
X119807856Y-103760300D01*
X119852144Y-103760300D01*
X120284691Y-103674261D01*
X120651387Y-103429243D01*
X120896405Y-103062547D01*
X120982444Y-102630000D01*
X121217556Y-102630000D01*
X121303595Y-103062547D01*
X121548613Y-103429243D01*
X121915309Y-103674261D01*
X122347856Y-103760300D01*
X122392144Y-103760300D01*
X122824691Y-103674261D01*
X123191387Y-103429243D01*
X123436405Y-103062547D01*
X123522444Y-102630000D01*
X123757556Y-102630000D01*
X123843595Y-103062547D01*
X124088613Y-103429243D01*
X124455309Y-103674261D01*
X124887856Y-103760300D01*
X124932144Y-103760300D01*
X125364691Y-103674261D01*
X125731387Y-103429243D01*
X125976405Y-103062547D01*
X126062444Y-102630000D01*
X126297556Y-102630000D01*
X126383595Y-103062547D01*
X126628613Y-103429243D01*
X126995309Y-103674261D01*
X127427856Y-103760300D01*
X127472144Y-103760300D01*
X127904691Y-103674261D01*
X128271387Y-103429243D01*
X128516405Y-103062547D01*
X128602444Y-102630000D01*
X128516405Y-102197453D01*
X128271387Y-101830757D01*
X127904691Y-101585739D01*
X127472144Y-101499700D01*
X127427856Y-101499700D01*
X126995309Y-101585739D01*
X126628613Y-101830757D01*
X126383595Y-102197453D01*
X126297556Y-102630000D01*
X126062444Y-102630000D01*
X125976405Y-102197453D01*
X125731387Y-101830757D01*
X125364691Y-101585739D01*
X124932144Y-101499700D01*
X124887856Y-101499700D01*
X124455309Y-101585739D01*
X124088613Y-101830757D01*
X123843595Y-102197453D01*
X123757556Y-102630000D01*
X123522444Y-102630000D01*
X123436405Y-102197453D01*
X123191387Y-101830757D01*
X122824691Y-101585739D01*
X122392144Y-101499700D01*
X122347856Y-101499700D01*
X121915309Y-101585739D01*
X121548613Y-101830757D01*
X121303595Y-102197453D01*
X121217556Y-102630000D01*
X120982444Y-102630000D01*
X120896405Y-102197453D01*
X120651387Y-101830757D01*
X120284691Y-101585739D01*
X119852144Y-101499700D01*
X119807856Y-101499700D01*
X119375309Y-101585739D01*
X119008613Y-101830757D01*
X118763595Y-102197453D01*
X118677556Y-102630000D01*
X118442444Y-102630000D01*
X118356405Y-102197453D01*
X118111387Y-101830757D01*
X117744691Y-101585739D01*
X117312144Y-101499700D01*
X117267856Y-101499700D01*
X116835309Y-101585739D01*
X116468613Y-101830757D01*
X116223595Y-102197453D01*
X116137556Y-102630000D01*
X115902444Y-102630000D01*
X115816405Y-102197453D01*
X115571387Y-101830757D01*
X115204691Y-101585739D01*
X114772144Y-101499700D01*
X114727856Y-101499700D01*
X114295309Y-101585739D01*
X113928613Y-101830757D01*
X113683595Y-102197453D01*
X113597556Y-102630000D01*
X113362444Y-102630000D01*
X113276405Y-102197453D01*
X113031387Y-101830757D01*
X112664691Y-101585739D01*
X112232144Y-101499700D01*
X112187856Y-101499700D01*
X111755309Y-101585739D01*
X111388613Y-101830757D01*
X111143595Y-102197453D01*
X111057556Y-102630000D01*
X110822444Y-102630000D01*
X110736405Y-102197453D01*
X110491387Y-101830757D01*
X110124691Y-101585739D01*
X109692144Y-101499700D01*
X109647856Y-101499700D01*
X109215309Y-101585739D01*
X108848613Y-101830757D01*
X108603595Y-102197453D01*
X108517556Y-102630000D01*
X105742444Y-102630000D01*
X105656405Y-102197453D01*
X105643697Y-102178434D01*
X105821423Y-102178434D01*
X105899308Y-102388700D01*
X106888700Y-102388700D01*
X106888700Y-101397048D01*
X107371300Y-101397048D01*
X107371300Y-102388700D01*
X108360692Y-102388700D01*
X108438577Y-102178434D01*
X108374626Y-102023990D01*
X108047974Y-101593822D01*
X107581569Y-101321403D01*
X107371300Y-101397048D01*
X106888700Y-101397048D01*
X106678431Y-101321403D01*
X106212026Y-101593822D01*
X105885374Y-102023990D01*
X105821423Y-102178434D01*
X105643697Y-102178434D01*
X105411387Y-101830757D01*
X105044691Y-101585739D01*
X104612144Y-101499700D01*
X104567856Y-101499700D01*
X104135309Y-101585739D01*
X103768613Y-101830757D01*
X103523595Y-102197453D01*
X103437556Y-102630000D01*
X103202444Y-102630000D01*
X103116405Y-102197453D01*
X102871387Y-101830757D01*
X102504691Y-101585739D01*
X102072144Y-101499700D01*
X102027856Y-101499700D01*
X101595309Y-101585739D01*
X101228613Y-101830757D01*
X100983595Y-102197453D01*
X100897556Y-102630000D01*
X100979255Y-103040731D01*
X100402392Y-103617594D01*
X100301224Y-103769002D01*
X100267490Y-103938597D01*
X100265699Y-103947601D01*
X100189100Y-103947601D01*
X100189100Y-100189100D01*
X139967900Y-100189100D01*
X139967900Y-113411000D01*
X139967900Y-113411000D01*
G37*
X139967900Y-113411000D02*
X139976509Y-113454281D01*
X140001026Y-113490974D01*
X140037719Y-113515491D01*
X140081000Y-113524100D01*
X152468554Y-113524100D01*
X152502727Y-113575243D01*
X152869423Y-113820261D01*
X153301970Y-113906300D01*
X153657030Y-113906300D01*
X154089577Y-113820261D01*
X154456273Y-113575243D01*
X154490446Y-113524100D01*
X164097900Y-113524100D01*
X164097900Y-155842900D01*
X100189100Y-155842900D01*
X100189100Y-149420400D01*
X100301900Y-149420400D01*
X100301900Y-151246600D01*
X101628100Y-151246600D01*
X101628100Y-150565566D01*
X102679023Y-150565566D01*
X102821704Y-150851187D01*
X103192562Y-151241241D01*
X103684457Y-151459683D01*
X103898700Y-151360362D01*
X103898700Y-150355300D01*
X102756908Y-150355300D01*
X102679023Y-150565566D01*
X101628100Y-150565566D01*
X101628100Y-149662434D01*
X102679023Y-149662434D01*
X102756908Y-149872700D01*
X103898700Y-149872700D01*
X103898700Y-148867638D01*
X103684457Y-148768317D01*
X103192562Y-148986759D01*
X102821704Y-149376813D01*
X102679023Y-149662434D01*
X101628100Y-149662434D01*
X101628100Y-149420400D01*
X100301900Y-149420400D01*
X100189100Y-149420400D01*
X100189100Y-146880400D01*
X100325710Y-146880400D01*
X100325710Y-148706600D01*
X101604291Y-148706600D01*
X101604291Y-146880400D01*
X100325710Y-146880400D01*
X100189100Y-146880400D01*
X100189100Y-144340400D01*
X100325710Y-144340400D01*
X100325710Y-146166600D01*
X101604291Y-146166600D01*
X101604291Y-144340400D01*
X100325710Y-144340400D01*
X100189100Y-144340400D01*
X100189100Y-141800400D01*
X100325710Y-141800400D01*
X100325710Y-143626600D01*
X101604291Y-143626600D01*
X101604291Y-141800400D01*
X100325710Y-141800400D01*
X100189100Y-141800400D01*
X100189100Y-139260400D01*
X100325710Y-139260400D01*
X100325710Y-141086600D01*
X101604291Y-141086600D01*
X101604291Y-139260400D01*
X100325710Y-139260400D01*
X100189100Y-139260400D01*
X100189100Y-138546600D01*
X101620148Y-138546600D01*
X101620148Y-136720400D01*
X100189100Y-136720400D01*
X100189100Y-136550400D01*
X102852076Y-136550400D01*
X102852076Y-138277600D01*
X102872775Y-138381661D01*
X102931721Y-138469879D01*
X103019939Y-138528825D01*
X103124000Y-138549524D01*
X105156000Y-138549524D01*
X105260061Y-138528825D01*
X105348279Y-138469879D01*
X105407225Y-138381661D01*
X105427924Y-138277600D01*
X105427924Y-136550400D01*
X105407225Y-136446339D01*
X105348279Y-136358121D01*
X105260061Y-136299175D01*
X105156000Y-136278476D01*
X103124000Y-136278476D01*
X103019939Y-136299175D01*
X102931721Y-136358121D01*
X102872775Y-136446339D01*
X102852076Y-136550400D01*
X100189100Y-136550400D01*
X100189100Y-126812906D01*
X101242909Y-126812906D01*
X101586506Y-127644476D01*
X102222177Y-128281258D01*
X103053146Y-128626306D01*
X103952906Y-128627091D01*
X104784476Y-128283494D01*
X105421258Y-127647823D01*
X105766306Y-126816854D01*
X105766788Y-126264175D01*
X120743300Y-126264175D01*
X120743300Y-126387573D01*
X120822572Y-126578953D01*
X120862619Y-126619000D01*
X120822572Y-126659047D01*
X120743300Y-126850427D01*
X120743300Y-126973825D01*
X120873475Y-127104000D01*
X121772700Y-127104000D01*
X121772700Y-126134000D01*
X120873475Y-126134000D01*
X120743300Y-126264175D01*
X105766788Y-126264175D01*
X105767091Y-125917094D01*
X105423494Y-125085524D01*
X104787823Y-124448742D01*
X104588195Y-124365849D01*
X111776970Y-124365849D01*
X112051125Y-125062421D01*
X112570978Y-125601055D01*
X113128588Y-125869275D01*
X113423700Y-125799191D01*
X113423700Y-124066300D01*
X113906300Y-124066300D01*
X113906300Y-125799191D01*
X114201412Y-125869275D01*
X114759022Y-125601055D01*
X114778930Y-125580427D01*
X120743300Y-125580427D01*
X120743300Y-125703825D01*
X120873475Y-125834000D01*
X121772700Y-125834000D01*
X121772700Y-125293475D01*
X121642525Y-125163300D01*
X121160426Y-125163300D01*
X120969047Y-125242572D01*
X120822572Y-125389047D01*
X120743300Y-125580427D01*
X114778930Y-125580427D01*
X115278875Y-125062421D01*
X115553030Y-124365849D01*
X115452931Y-124066300D01*
X113906300Y-124066300D01*
X113423700Y-124066300D01*
X111877069Y-124066300D01*
X111776970Y-124365849D01*
X104588195Y-124365849D01*
X103956854Y-124103694D01*
X103057094Y-124102909D01*
X102225524Y-124446506D01*
X101588742Y-125082177D01*
X101243694Y-125913146D01*
X101242909Y-126812906D01*
X100189100Y-126812906D01*
X100189100Y-123284151D01*
X111776970Y-123284151D01*
X111877069Y-123583700D01*
X113423700Y-123583700D01*
X113423700Y-121850809D01*
X113906300Y-121850809D01*
X113906300Y-123583700D01*
X115452931Y-123583700D01*
X115553030Y-123284151D01*
X115278875Y-122587579D01*
X114759022Y-122048945D01*
X114201412Y-121780725D01*
X113906300Y-121850809D01*
X113423700Y-121850809D01*
X113128588Y-121780725D01*
X112570978Y-122048945D01*
X112051125Y-122587579D01*
X111776970Y-123284151D01*
X100189100Y-123284151D01*
X100189100Y-119285849D01*
X111776970Y-119285849D01*
X112051125Y-119982421D01*
X112570978Y-120521055D01*
X113128588Y-120789275D01*
X113423700Y-120719191D01*
X113423700Y-118986300D01*
X113906300Y-118986300D01*
X113906300Y-120719191D01*
X114201412Y-120789275D01*
X114759022Y-120521055D01*
X115278875Y-119982421D01*
X115553030Y-119285849D01*
X115452931Y-118986300D01*
X113906300Y-118986300D01*
X113423700Y-118986300D01*
X111877069Y-118986300D01*
X111776970Y-119285849D01*
X100189100Y-119285849D01*
X100189100Y-116652906D01*
X101242909Y-116652906D01*
X101586506Y-117484476D01*
X102222177Y-118121258D01*
X103053146Y-118466306D01*
X103952906Y-118467091D01*
X104589270Y-118204151D01*
X111776970Y-118204151D01*
X111877069Y-118503700D01*
X113423700Y-118503700D01*
X113423700Y-116770809D01*
X113906300Y-116770809D01*
X113906300Y-118503700D01*
X115452931Y-118503700D01*
X115553030Y-118204151D01*
X115278875Y-117507579D01*
X114759022Y-116968945D01*
X114201412Y-116700725D01*
X113906300Y-116770809D01*
X113423700Y-116770809D01*
X113128588Y-116700725D01*
X112570978Y-116968945D01*
X112051125Y-117507579D01*
X111776970Y-118204151D01*
X104589270Y-118204151D01*
X104784476Y-118123494D01*
X105421258Y-117487823D01*
X105766306Y-116656854D01*
X105767091Y-115757094D01*
X105423494Y-114925524D01*
X104787823Y-114288742D01*
X103956854Y-113943694D01*
X103057094Y-113942909D01*
X102225524Y-114286506D01*
X101588742Y-114922177D01*
X101243694Y-115753146D01*
X101242909Y-116652906D01*
X100189100Y-116652906D01*
X100189100Y-103947601D01*
X100265699Y-103947601D01*
X100265699Y-106396801D01*
X100301224Y-106575400D01*
X100402392Y-106726808D01*
X107670589Y-113995004D01*
X107670591Y-113995007D01*
X107821999Y-114096175D01*
X108000598Y-114131701D01*
X108000603Y-114131700D01*
X112044076Y-114131700D01*
X112125170Y-114539389D01*
X112486465Y-115080106D01*
X113027182Y-115441401D01*
X113665000Y-115568271D01*
X114302818Y-115441401D01*
X114843535Y-115080106D01*
X115204830Y-114539389D01*
X115331700Y-113901571D01*
X115331700Y-113428429D01*
X115204830Y-112790611D01*
X115001919Y-112486932D01*
X122751301Y-120236314D01*
X122751301Y-125163300D01*
X122385475Y-125163300D01*
X122255300Y-125293475D01*
X122255300Y-125834000D01*
X122275300Y-125834000D01*
X122275300Y-126134000D01*
X122255300Y-126134000D01*
X122255300Y-127104000D01*
X122275300Y-127104000D01*
X122275300Y-127404000D01*
X122255300Y-127404000D01*
X122255300Y-127515300D01*
X121772700Y-127515300D01*
X121772700Y-127404000D01*
X120873475Y-127404000D01*
X120743300Y-127534175D01*
X120743300Y-127657573D01*
X120822572Y-127848953D01*
X120969047Y-127995428D01*
X121068457Y-128036605D01*
X121054629Y-128057300D01*
X117513546Y-128057300D01*
X117334948Y-128092825D01*
X117334946Y-128092826D01*
X117334947Y-128092826D01*
X117183539Y-128193993D01*
X115336924Y-130040608D01*
X115336924Y-127505000D01*
X115316225Y-127400939D01*
X115257279Y-127312721D01*
X115169061Y-127253775D01*
X115065000Y-127233076D01*
X112265000Y-127233076D01*
X112160939Y-127253775D01*
X112072721Y-127312721D01*
X112013775Y-127400939D01*
X111993076Y-127505000D01*
X111993076Y-130141543D01*
X111432010Y-129908567D01*
X110820672Y-129908034D01*
X110255666Y-130141489D01*
X109823009Y-130573393D01*
X109588567Y-131137990D01*
X109588034Y-131749328D01*
X109821489Y-132314334D01*
X110253393Y-132746991D01*
X110817990Y-132981433D01*
X111429328Y-132981966D01*
X111994334Y-132748511D01*
X112426991Y-132316607D01*
X112661433Y-131752010D01*
X112661966Y-131140672D01*
X112429031Y-130576924D01*
X114800608Y-130576924D01*
X105890233Y-139487300D01*
X105338971Y-139487300D01*
X105116773Y-139154757D01*
X104750077Y-138909739D01*
X104317530Y-138823700D01*
X103962470Y-138823700D01*
X103529923Y-138909739D01*
X103163227Y-139154757D01*
X102918209Y-139521453D01*
X102832170Y-139954000D01*
X102918209Y-140386547D01*
X103163227Y-140753243D01*
X103529923Y-140998261D01*
X103962470Y-141084300D01*
X104317530Y-141084300D01*
X104750077Y-140998261D01*
X105116773Y-140753243D01*
X105338971Y-140420700D01*
X105881742Y-140420700D01*
X105534457Y-140767985D01*
X105377402Y-140799225D01*
X105377400Y-140799226D01*
X105377401Y-140799226D01*
X105225993Y-140900393D01*
X104688830Y-141437556D01*
X104317530Y-141363700D01*
X103962470Y-141363700D01*
X103529923Y-141449739D01*
X103163227Y-141694757D01*
X102918209Y-142061453D01*
X102832170Y-142494000D01*
X102918209Y-142926547D01*
X103163227Y-143293243D01*
X103529923Y-143538261D01*
X103962470Y-143624300D01*
X104317530Y-143624300D01*
X104750077Y-143538261D01*
X105116773Y-143293243D01*
X105178290Y-143201176D01*
X105178290Y-143488096D01*
X104688830Y-143977556D01*
X104317530Y-143903700D01*
X103962470Y-143903700D01*
X103529923Y-143989739D01*
X103163227Y-144234757D01*
X102918209Y-144601453D01*
X102832170Y-145034000D01*
X102918209Y-145466547D01*
X103163227Y-145833243D01*
X103529923Y-146078261D01*
X103962470Y-146164300D01*
X104317530Y-146164300D01*
X104750077Y-146078261D01*
X105116773Y-145833243D01*
X105361791Y-145466547D01*
X105447830Y-145034000D01*
X105365635Y-144620779D01*
X105832300Y-144154114D01*
X105832300Y-145221686D01*
X104561715Y-146492271D01*
X104317530Y-146443700D01*
X103962470Y-146443700D01*
X103529923Y-146529739D01*
X103163227Y-146774757D01*
X102918209Y-147141453D01*
X102832170Y-147574000D01*
X102918209Y-148006547D01*
X103163227Y-148373243D01*
X103529923Y-148618261D01*
X103962470Y-148704300D01*
X104317530Y-148704300D01*
X104750077Y-148618261D01*
X105116773Y-148373243D01*
X105361791Y-148006547D01*
X105447830Y-147574000D01*
X105361791Y-147141453D01*
X105310029Y-147063985D01*
X105578300Y-146795714D01*
X105578300Y-149617039D01*
X105458296Y-149376813D01*
X105087438Y-148986759D01*
X104595543Y-148768317D01*
X104381300Y-148867638D01*
X104381300Y-149872700D01*
X104401300Y-149872700D01*
X104401300Y-150355300D01*
X104381300Y-150355300D01*
X104381300Y-151360362D01*
X104595543Y-151459683D01*
X105087438Y-151241241D01*
X105458296Y-150851187D01*
X105578300Y-150610961D01*
X105578300Y-154485728D01*
X105613825Y-154664327D01*
X105714993Y-154815735D01*
X106174826Y-155275568D01*
X106174829Y-155275570D01*
X106553215Y-155653991D01*
X106553217Y-155653994D01*
X106704621Y-155755169D01*
X106883218Y-155790703D01*
X107966815Y-155790755D01*
X107966941Y-155790730D01*
X158137369Y-155790731D01*
X158315968Y-155755206D01*
X158467376Y-155654038D01*
X161003778Y-153117635D01*
X161417000Y-153199830D01*
X161849547Y-153113791D01*
X162216243Y-152868773D01*
X162461261Y-152502077D01*
X162547300Y-152069530D01*
X162547300Y-151714470D01*
X162461261Y-151281923D01*
X162216243Y-150915227D01*
X161849547Y-150670209D01*
X161417000Y-150584170D01*
X160984453Y-150670209D01*
X160617757Y-150915227D01*
X160372739Y-151281923D01*
X160286700Y-151714470D01*
X160286700Y-152069530D01*
X160360556Y-152440830D01*
X157944055Y-154857331D01*
X145294083Y-154857331D01*
X147033779Y-153117635D01*
X147447000Y-153199830D01*
X147879547Y-153113791D01*
X148246243Y-152868773D01*
X148491261Y-152502077D01*
X148577300Y-152069530D01*
X148577300Y-151714470D01*
X148491261Y-151281923D01*
X148246243Y-150915227D01*
X148187536Y-150876000D01*
X150121476Y-150876000D01*
X150121476Y-152908000D01*
X150142175Y-153012061D01*
X150201121Y-153100279D01*
X150289339Y-153159225D01*
X150393400Y-153179924D01*
X152120600Y-153179924D01*
X152224661Y-153159225D01*
X152312879Y-153100279D01*
X152371825Y-153012061D01*
X152392524Y-152908000D01*
X152392524Y-152347543D01*
X152451317Y-152347543D01*
X152669759Y-152839438D01*
X153059813Y-153210296D01*
X153345434Y-153352977D01*
X153555700Y-153275092D01*
X153555700Y-152133300D01*
X154038300Y-152133300D01*
X154038300Y-153275092D01*
X154248566Y-153352977D01*
X154534187Y-153210296D01*
X154924241Y-152839438D01*
X155142683Y-152347543D01*
X155043362Y-152133300D01*
X154038300Y-152133300D01*
X153555700Y-152133300D01*
X152550638Y-152133300D01*
X152451317Y-152347543D01*
X152392524Y-152347543D01*
X152392524Y-151714470D01*
X155206700Y-151714470D01*
X155206700Y-152069530D01*
X155292739Y-152502077D01*
X155537757Y-152868773D01*
X155904453Y-153113791D01*
X156337000Y-153199830D01*
X156769547Y-153113791D01*
X157136243Y-152868773D01*
X157381261Y-152502077D01*
X157467300Y-152069530D01*
X157467300Y-151714470D01*
X157746700Y-151714470D01*
X157746700Y-152069530D01*
X157832739Y-152502077D01*
X158077757Y-152868773D01*
X158444453Y-153113791D01*
X158877000Y-153199830D01*
X159309547Y-153113791D01*
X159676243Y-152868773D01*
X159921261Y-152502077D01*
X160007300Y-152069530D01*
X160007300Y-151714470D01*
X159921261Y-151281923D01*
X159676243Y-150915227D01*
X159343700Y-150693029D01*
X159343700Y-148907602D01*
X159431061Y-148890225D01*
X159519279Y-148831279D01*
X159578225Y-148743061D01*
X159598924Y-148639000D01*
X159598924Y-148410475D01*
X160446300Y-148410475D01*
X160446300Y-148742574D01*
X160525572Y-148933953D01*
X160672047Y-149080428D01*
X160863427Y-149159700D01*
X161061825Y-149159700D01*
X161192000Y-149029525D01*
X161192000Y-148280300D01*
X161642000Y-148280300D01*
X161642000Y-149029525D01*
X161772175Y-149159700D01*
X161970573Y-149159700D01*
X162161953Y-149080428D01*
X162308428Y-148933953D01*
X162387700Y-148742574D01*
X162387700Y-148410475D01*
X162257525Y-148280300D01*
X161642000Y-148280300D01*
X161192000Y-148280300D01*
X160576475Y-148280300D01*
X160446300Y-148410475D01*
X159598924Y-148410475D01*
X159598924Y-147439000D01*
X159578322Y-147335426D01*
X160446300Y-147335426D01*
X160446300Y-147667525D01*
X160576475Y-147797700D01*
X161192000Y-147797700D01*
X161192000Y-147048475D01*
X161642000Y-147048475D01*
X161642000Y-147797700D01*
X162257525Y-147797700D01*
X162387700Y-147667525D01*
X162387700Y-147335426D01*
X162308428Y-147144047D01*
X162161953Y-146997572D01*
X161970573Y-146918300D01*
X161772175Y-146918300D01*
X161642000Y-147048475D01*
X161192000Y-147048475D01*
X161061825Y-146918300D01*
X160863427Y-146918300D01*
X160672047Y-146997572D01*
X160525572Y-147144047D01*
X160446300Y-147335426D01*
X159578322Y-147335426D01*
X159578225Y-147334939D01*
X159519279Y-147246721D01*
X159431061Y-147187775D01*
X159327000Y-147167076D01*
X158427000Y-147167076D01*
X158322939Y-147187775D01*
X158234721Y-147246721D01*
X158175775Y-147334939D01*
X158155076Y-147439000D01*
X158155076Y-148639000D01*
X158175775Y-148743061D01*
X158234721Y-148831279D01*
X158322939Y-148890225D01*
X158410300Y-148907602D01*
X158410300Y-150693029D01*
X158077757Y-150915227D01*
X157832739Y-151281923D01*
X157746700Y-151714470D01*
X157467300Y-151714470D01*
X157381261Y-151281923D01*
X157136243Y-150915227D01*
X156803700Y-150693029D01*
X156803700Y-148907602D01*
X156891061Y-148890225D01*
X156979279Y-148831279D01*
X157038225Y-148743061D01*
X157058924Y-148639000D01*
X157058924Y-147439000D01*
X157038225Y-147334939D01*
X156979279Y-147246721D01*
X156891061Y-147187775D01*
X156787000Y-147167076D01*
X155887000Y-147167076D01*
X155782939Y-147187775D01*
X155694721Y-147246721D01*
X155635775Y-147334939D01*
X155615076Y-147439000D01*
X155615076Y-148639000D01*
X155635775Y-148743061D01*
X155694721Y-148831279D01*
X155782939Y-148890225D01*
X155870300Y-148907602D01*
X155870300Y-150693029D01*
X155537757Y-150915227D01*
X155292739Y-151281923D01*
X155206700Y-151714470D01*
X152392524Y-151714470D01*
X152392524Y-151436457D01*
X152451317Y-151436457D01*
X152550638Y-151650700D01*
X153555700Y-151650700D01*
X153555700Y-150508908D01*
X154038300Y-150508908D01*
X154038300Y-151650700D01*
X155043362Y-151650700D01*
X155142683Y-151436457D01*
X154924241Y-150944562D01*
X154534187Y-150573704D01*
X154248566Y-150431023D01*
X154038300Y-150508908D01*
X153555700Y-150508908D01*
X153345434Y-150431023D01*
X153059813Y-150573704D01*
X152669759Y-150944562D01*
X152451317Y-151436457D01*
X152392524Y-151436457D01*
X152392524Y-150876000D01*
X152371825Y-150771939D01*
X152312879Y-150683721D01*
X152224661Y-150624775D01*
X152120600Y-150604076D01*
X150393400Y-150604076D01*
X150289339Y-150624775D01*
X150201121Y-150683721D01*
X150142175Y-150771939D01*
X150121476Y-150876000D01*
X148187536Y-150876000D01*
X147879547Y-150670209D01*
X147447000Y-150584170D01*
X147014453Y-150670209D01*
X146647757Y-150915227D01*
X146402739Y-151281923D01*
X146316700Y-151714470D01*
X146316700Y-152069530D01*
X146390556Y-152440830D01*
X144628065Y-154203321D01*
X131978093Y-154203321D01*
X133063779Y-153117635D01*
X133477000Y-153199830D01*
X133909547Y-153113791D01*
X134276243Y-152868773D01*
X134521261Y-152502077D01*
X134607300Y-152069530D01*
X134607300Y-151714470D01*
X134521261Y-151281923D01*
X134276243Y-150915227D01*
X134217536Y-150876000D01*
X136151476Y-150876000D01*
X136151476Y-152908000D01*
X136172175Y-153012061D01*
X136231121Y-153100279D01*
X136319339Y-153159225D01*
X136423400Y-153179924D01*
X138150600Y-153179924D01*
X138254661Y-153159225D01*
X138342879Y-153100279D01*
X138401825Y-153012061D01*
X138422524Y-152908000D01*
X138422524Y-152347543D01*
X138481317Y-152347543D01*
X138699759Y-152839438D01*
X139089813Y-153210296D01*
X139375434Y-153352977D01*
X139585700Y-153275092D01*
X139585700Y-152133300D01*
X140068300Y-152133300D01*
X140068300Y-153275092D01*
X140278566Y-153352977D01*
X140564187Y-153210296D01*
X140954241Y-152839438D01*
X141172683Y-152347543D01*
X141073362Y-152133300D01*
X140068300Y-152133300D01*
X139585700Y-152133300D01*
X138580638Y-152133300D01*
X138481317Y-152347543D01*
X138422524Y-152347543D01*
X138422524Y-151714470D01*
X141236700Y-151714470D01*
X141236700Y-152069530D01*
X141322739Y-152502077D01*
X141567757Y-152868773D01*
X141934453Y-153113791D01*
X142367000Y-153199830D01*
X142799547Y-153113791D01*
X143166243Y-152868773D01*
X143411261Y-152502077D01*
X143497300Y-152069530D01*
X143497300Y-151714470D01*
X143776700Y-151714470D01*
X143776700Y-152069530D01*
X143862739Y-152502077D01*
X144107757Y-152868773D01*
X144474453Y-153113791D01*
X144907000Y-153199830D01*
X145339547Y-153113791D01*
X145706243Y-152868773D01*
X145951261Y-152502077D01*
X146037300Y-152069530D01*
X146037300Y-151714470D01*
X145951261Y-151281923D01*
X145706243Y-150915227D01*
X145373700Y-150693029D01*
X145373700Y-148907602D01*
X145461061Y-148890225D01*
X145549279Y-148831279D01*
X145608225Y-148743061D01*
X145628924Y-148639000D01*
X145628924Y-148410475D01*
X146476300Y-148410475D01*
X146476300Y-148742574D01*
X146555572Y-148933953D01*
X146702047Y-149080428D01*
X146893427Y-149159700D01*
X147091825Y-149159700D01*
X147222000Y-149029525D01*
X147222000Y-148280300D01*
X147672000Y-148280300D01*
X147672000Y-149029525D01*
X147802175Y-149159700D01*
X148000573Y-149159700D01*
X148191953Y-149080428D01*
X148338428Y-148933953D01*
X148417700Y-148742574D01*
X148417700Y-148531400D01*
X150363710Y-148531400D01*
X150363710Y-150357600D01*
X151642291Y-150357600D01*
X151642291Y-148531400D01*
X150363710Y-148531400D01*
X148417700Y-148531400D01*
X148417700Y-148410475D01*
X152826300Y-148410475D01*
X152826300Y-148742574D01*
X152905572Y-148933953D01*
X153052047Y-149080428D01*
X153243427Y-149159700D01*
X153441825Y-149159700D01*
X153572000Y-149029525D01*
X153572000Y-148280300D01*
X154022000Y-148280300D01*
X154022000Y-149029525D01*
X154152175Y-149159700D01*
X154350573Y-149159700D01*
X154541953Y-149080428D01*
X154688428Y-148933953D01*
X154767700Y-148742574D01*
X154767700Y-148410475D01*
X154637525Y-148280300D01*
X154022000Y-148280300D01*
X153572000Y-148280300D01*
X152956475Y-148280300D01*
X152826300Y-148410475D01*
X148417700Y-148410475D01*
X148287525Y-148280300D01*
X147672000Y-148280300D01*
X147222000Y-148280300D01*
X146606475Y-148280300D01*
X146476300Y-148410475D01*
X145628924Y-148410475D01*
X145628924Y-147439000D01*
X145608322Y-147335426D01*
X146476300Y-147335426D01*
X146476300Y-147667525D01*
X146606475Y-147797700D01*
X147222000Y-147797700D01*
X147222000Y-147048475D01*
X147672000Y-147048475D01*
X147672000Y-147797700D01*
X148287525Y-147797700D01*
X148417700Y-147667525D01*
X148417700Y-147335426D01*
X152826300Y-147335426D01*
X152826300Y-147667525D01*
X152956475Y-147797700D01*
X153572000Y-147797700D01*
X153572000Y-147048475D01*
X154022000Y-147048475D01*
X154022000Y-147797700D01*
X154637525Y-147797700D01*
X154767700Y-147667525D01*
X154767700Y-147335426D01*
X154688428Y-147144047D01*
X154541953Y-146997572D01*
X154350573Y-146918300D01*
X154152175Y-146918300D01*
X154022000Y-147048475D01*
X153572000Y-147048475D01*
X153441825Y-146918300D01*
X153243427Y-146918300D01*
X153052047Y-146997572D01*
X152905572Y-147144047D01*
X152826300Y-147335426D01*
X148417700Y-147335426D01*
X148338428Y-147144047D01*
X148191953Y-146997572D01*
X148000573Y-146918300D01*
X147802175Y-146918300D01*
X147672000Y-147048475D01*
X147222000Y-147048475D01*
X147091825Y-146918300D01*
X146893427Y-146918300D01*
X146702047Y-146997572D01*
X146555572Y-147144047D01*
X146476300Y-147335426D01*
X145608322Y-147335426D01*
X145608225Y-147334939D01*
X145549279Y-147246721D01*
X145461061Y-147187775D01*
X145357000Y-147167076D01*
X144457000Y-147167076D01*
X144352939Y-147187775D01*
X144264721Y-147246721D01*
X144205775Y-147334939D01*
X144185076Y-147439000D01*
X144185076Y-148639000D01*
X144205775Y-148743061D01*
X144264721Y-148831279D01*
X144352939Y-148890225D01*
X144440300Y-148907602D01*
X144440300Y-150693029D01*
X144107757Y-150915227D01*
X143862739Y-151281923D01*
X143776700Y-151714470D01*
X143497300Y-151714470D01*
X143411261Y-151281923D01*
X143166243Y-150915227D01*
X142833700Y-150693029D01*
X142833700Y-148907602D01*
X142921061Y-148890225D01*
X143009279Y-148831279D01*
X143068225Y-148743061D01*
X143088924Y-148639000D01*
X143088924Y-147439000D01*
X143068225Y-147334939D01*
X143009279Y-147246721D01*
X142921061Y-147187775D01*
X142817000Y-147167076D01*
X141917000Y-147167076D01*
X141812939Y-147187775D01*
X141724721Y-147246721D01*
X141665775Y-147334939D01*
X141645076Y-147439000D01*
X141645076Y-148639000D01*
X141665775Y-148743061D01*
X141724721Y-148831279D01*
X141812939Y-148890225D01*
X141900300Y-148907602D01*
X141900300Y-150693029D01*
X141567757Y-150915227D01*
X141322739Y-151281923D01*
X141236700Y-151714470D01*
X138422524Y-151714470D01*
X138422524Y-151436457D01*
X138481317Y-151436457D01*
X138580638Y-151650700D01*
X139585700Y-151650700D01*
X139585700Y-150508908D01*
X140068300Y-150508908D01*
X140068300Y-151650700D01*
X141073362Y-151650700D01*
X141172683Y-151436457D01*
X140954241Y-150944562D01*
X140564187Y-150573704D01*
X140278566Y-150431023D01*
X140068300Y-150508908D01*
X139585700Y-150508908D01*
X139375434Y-150431023D01*
X139089813Y-150573704D01*
X138699759Y-150944562D01*
X138481317Y-151436457D01*
X138422524Y-151436457D01*
X138422524Y-150876000D01*
X138401825Y-150771939D01*
X138342879Y-150683721D01*
X138254661Y-150624775D01*
X138150600Y-150604076D01*
X136423400Y-150604076D01*
X136319339Y-150624775D01*
X136231121Y-150683721D01*
X136172175Y-150771939D01*
X136151476Y-150876000D01*
X134217536Y-150876000D01*
X133909547Y-150670209D01*
X133477000Y-150584170D01*
X133044453Y-150670209D01*
X132677757Y-150915227D01*
X132432739Y-151281923D01*
X132346700Y-151714470D01*
X132346700Y-152069530D01*
X132420556Y-152440830D01*
X131312075Y-153549311D01*
X118509703Y-153549311D01*
X118996985Y-153062029D01*
X119074453Y-153113791D01*
X119507000Y-153199830D01*
X119939547Y-153113791D01*
X120306243Y-152868773D01*
X120551261Y-152502077D01*
X120637300Y-152069530D01*
X120637300Y-151714470D01*
X120551261Y-151281923D01*
X120306243Y-150915227D01*
X120247536Y-150876000D01*
X122181476Y-150876000D01*
X122181476Y-152908000D01*
X122202175Y-153012061D01*
X122261121Y-153100279D01*
X122349339Y-153159225D01*
X122453400Y-153179924D01*
X124180600Y-153179924D01*
X124284661Y-153159225D01*
X124372879Y-153100279D01*
X124431825Y-153012061D01*
X124452524Y-152908000D01*
X124452524Y-152347543D01*
X124511317Y-152347543D01*
X124729759Y-152839438D01*
X125119813Y-153210296D01*
X125405434Y-153352977D01*
X125615700Y-153275092D01*
X125615700Y-152133300D01*
X126098300Y-152133300D01*
X126098300Y-153275092D01*
X126308566Y-153352977D01*
X126594187Y-153210296D01*
X126984241Y-152839438D01*
X127202683Y-152347543D01*
X127103362Y-152133300D01*
X126098300Y-152133300D01*
X125615700Y-152133300D01*
X124610638Y-152133300D01*
X124511317Y-152347543D01*
X124452524Y-152347543D01*
X124452524Y-151714470D01*
X127266700Y-151714470D01*
X127266700Y-152069530D01*
X127352739Y-152502077D01*
X127597757Y-152868773D01*
X127964453Y-153113791D01*
X128397000Y-153199830D01*
X128829547Y-153113791D01*
X129196243Y-152868773D01*
X129441261Y-152502077D01*
X129527300Y-152069530D01*
X129527300Y-151714470D01*
X129806700Y-151714470D01*
X129806700Y-152069530D01*
X129892739Y-152502077D01*
X130137757Y-152868773D01*
X130504453Y-153113791D01*
X130937000Y-153199830D01*
X131369547Y-153113791D01*
X131736243Y-152868773D01*
X131981261Y-152502077D01*
X132067300Y-152069530D01*
X132067300Y-151714470D01*
X131981261Y-151281923D01*
X131736243Y-150915227D01*
X131403700Y-150693029D01*
X131403700Y-148907602D01*
X131491061Y-148890225D01*
X131579279Y-148831279D01*
X131638225Y-148743061D01*
X131658924Y-148639000D01*
X131658924Y-148410475D01*
X132506300Y-148410475D01*
X132506300Y-148742574D01*
X132585572Y-148933953D01*
X132732047Y-149080428D01*
X132923427Y-149159700D01*
X133121825Y-149159700D01*
X133252000Y-149029525D01*
X133252000Y-148280300D01*
X133702000Y-148280300D01*
X133702000Y-149029525D01*
X133832175Y-149159700D01*
X134030573Y-149159700D01*
X134221953Y-149080428D01*
X134368428Y-148933953D01*
X134447700Y-148742574D01*
X134447700Y-148531400D01*
X136393710Y-148531400D01*
X136393710Y-150357600D01*
X137672291Y-150357600D01*
X137672291Y-148531400D01*
X136393710Y-148531400D01*
X134447700Y-148531400D01*
X134447700Y-148410475D01*
X138856300Y-148410475D01*
X138856300Y-148742574D01*
X138935572Y-148933953D01*
X139082047Y-149080428D01*
X139273427Y-149159700D01*
X139471825Y-149159700D01*
X139602000Y-149029525D01*
X139602000Y-148280300D01*
X140052000Y-148280300D01*
X140052000Y-149029525D01*
X140182175Y-149159700D01*
X140380573Y-149159700D01*
X140571953Y-149080428D01*
X140718428Y-148933953D01*
X140797700Y-148742574D01*
X140797700Y-148410475D01*
X140667525Y-148280300D01*
X140052000Y-148280300D01*
X139602000Y-148280300D01*
X138986475Y-148280300D01*
X138856300Y-148410475D01*
X134447700Y-148410475D01*
X134317525Y-148280300D01*
X133702000Y-148280300D01*
X133252000Y-148280300D01*
X132636475Y-148280300D01*
X132506300Y-148410475D01*
X131658924Y-148410475D01*
X131658924Y-147439000D01*
X131638322Y-147335426D01*
X132506300Y-147335426D01*
X132506300Y-147667525D01*
X132636475Y-147797700D01*
X133252000Y-147797700D01*
X133252000Y-147048475D01*
X133702000Y-147048475D01*
X133702000Y-147797700D01*
X134317525Y-147797700D01*
X134447700Y-147667525D01*
X134447700Y-147335426D01*
X138856300Y-147335426D01*
X138856300Y-147667525D01*
X138986475Y-147797700D01*
X139602000Y-147797700D01*
X139602000Y-147048475D01*
X140052000Y-147048475D01*
X140052000Y-147797700D01*
X140667525Y-147797700D01*
X140797700Y-147667525D01*
X140797700Y-147335426D01*
X140718428Y-147144047D01*
X140571953Y-146997572D01*
X140380573Y-146918300D01*
X140182175Y-146918300D01*
X140052000Y-147048475D01*
X139602000Y-147048475D01*
X139471825Y-146918300D01*
X139273427Y-146918300D01*
X139082047Y-146997572D01*
X138935572Y-147144047D01*
X138856300Y-147335426D01*
X134447700Y-147335426D01*
X134368428Y-147144047D01*
X134221953Y-146997572D01*
X134030573Y-146918300D01*
X133832175Y-146918300D01*
X133702000Y-147048475D01*
X133252000Y-147048475D01*
X133121825Y-146918300D01*
X132923427Y-146918300D01*
X132732047Y-146997572D01*
X132585572Y-147144047D01*
X132506300Y-147335426D01*
X131638322Y-147335426D01*
X131638225Y-147334939D01*
X131579279Y-147246721D01*
X131491061Y-147187775D01*
X131387000Y-147167076D01*
X130487000Y-147167076D01*
X130382939Y-147187775D01*
X130294721Y-147246721D01*
X130235775Y-147334939D01*
X130215076Y-147439000D01*
X130215076Y-148639000D01*
X130235775Y-148743061D01*
X130294721Y-148831279D01*
X130382939Y-148890225D01*
X130470300Y-148907602D01*
X130470300Y-150693029D01*
X130137757Y-150915227D01*
X129892739Y-151281923D01*
X129806700Y-151714470D01*
X129527300Y-151714470D01*
X129441261Y-151281923D01*
X129196243Y-150915227D01*
X128863700Y-150693029D01*
X128863700Y-148907602D01*
X128951061Y-148890225D01*
X129039279Y-148831279D01*
X129098225Y-148743061D01*
X129118924Y-148639000D01*
X129118924Y-147439000D01*
X129098225Y-147334939D01*
X129039279Y-147246721D01*
X128951061Y-147187775D01*
X128847000Y-147167076D01*
X127947000Y-147167076D01*
X127842939Y-147187775D01*
X127754721Y-147246721D01*
X127695775Y-147334939D01*
X127675076Y-147439000D01*
X127675076Y-148639000D01*
X127695775Y-148743061D01*
X127754721Y-148831279D01*
X127842939Y-148890225D01*
X127930300Y-148907602D01*
X127930300Y-150693029D01*
X127597757Y-150915227D01*
X127352739Y-151281923D01*
X127266700Y-151714470D01*
X124452524Y-151714470D01*
X124452524Y-151436457D01*
X124511317Y-151436457D01*
X124610638Y-151650700D01*
X125615700Y-151650700D01*
X125615700Y-150508908D01*
X126098300Y-150508908D01*
X126098300Y-151650700D01*
X127103362Y-151650700D01*
X127202683Y-151436457D01*
X126984241Y-150944562D01*
X126594187Y-150573704D01*
X126308566Y-150431023D01*
X126098300Y-150508908D01*
X125615700Y-150508908D01*
X125405434Y-150431023D01*
X125119813Y-150573704D01*
X124729759Y-150944562D01*
X124511317Y-151436457D01*
X124452524Y-151436457D01*
X124452524Y-150876000D01*
X124431825Y-150771939D01*
X124372879Y-150683721D01*
X124284661Y-150624775D01*
X124180600Y-150604076D01*
X122453400Y-150604076D01*
X122349339Y-150624775D01*
X122261121Y-150683721D01*
X122202175Y-150771939D01*
X122181476Y-150876000D01*
X120247536Y-150876000D01*
X119939547Y-150670209D01*
X119507000Y-150584170D01*
X119074453Y-150670209D01*
X118707757Y-150915227D01*
X118462739Y-151281923D01*
X118376700Y-151714470D01*
X118376700Y-152069530D01*
X118425271Y-152313715D01*
X117843685Y-152895301D01*
X117726541Y-152895301D01*
X117766243Y-152868773D01*
X118011261Y-152502077D01*
X118097300Y-152069530D01*
X118097300Y-151714470D01*
X118011261Y-151281923D01*
X117766243Y-150915227D01*
X117433700Y-150693029D01*
X117433700Y-148907602D01*
X117521061Y-148890225D01*
X117609279Y-148831279D01*
X117668225Y-148743061D01*
X117688924Y-148639000D01*
X117688924Y-148410475D01*
X118536300Y-148410475D01*
X118536300Y-148742574D01*
X118615572Y-148933953D01*
X118762047Y-149080428D01*
X118953427Y-149159700D01*
X119151825Y-149159700D01*
X119282000Y-149029525D01*
X119282000Y-148280300D01*
X119732000Y-148280300D01*
X119732000Y-149029525D01*
X119862175Y-149159700D01*
X120060573Y-149159700D01*
X120251953Y-149080428D01*
X120398428Y-148933953D01*
X120477700Y-148742574D01*
X120477700Y-148531400D01*
X122423710Y-148531400D01*
X122423710Y-150357600D01*
X123702291Y-150357600D01*
X123702291Y-148531400D01*
X122423710Y-148531400D01*
X120477700Y-148531400D01*
X120477700Y-148410475D01*
X124886300Y-148410475D01*
X124886300Y-148742574D01*
X124965572Y-148933953D01*
X125112047Y-149080428D01*
X125303427Y-149159700D01*
X125501825Y-149159700D01*
X125632000Y-149029525D01*
X125632000Y-148280300D01*
X126082000Y-148280300D01*
X126082000Y-149029525D01*
X126212175Y-149159700D01*
X126410573Y-149159700D01*
X126601953Y-149080428D01*
X126748428Y-148933953D01*
X126827700Y-148742574D01*
X126827700Y-148410475D01*
X126697525Y-148280300D01*
X126082000Y-148280300D01*
X125632000Y-148280300D01*
X125016475Y-148280300D01*
X124886300Y-148410475D01*
X120477700Y-148410475D01*
X120347525Y-148280300D01*
X119732000Y-148280300D01*
X119282000Y-148280300D01*
X118666475Y-148280300D01*
X118536300Y-148410475D01*
X117688924Y-148410475D01*
X117688924Y-147439000D01*
X117668322Y-147335426D01*
X118536300Y-147335426D01*
X118536300Y-147667525D01*
X118666475Y-147797700D01*
X119282000Y-147797700D01*
X119282000Y-147048475D01*
X119732000Y-147048475D01*
X119732000Y-147797700D01*
X120347525Y-147797700D01*
X120477700Y-147667525D01*
X120477700Y-147335426D01*
X124886300Y-147335426D01*
X124886300Y-147667525D01*
X125016475Y-147797700D01*
X125632000Y-147797700D01*
X125632000Y-147048475D01*
X126082000Y-147048475D01*
X126082000Y-147797700D01*
X126697525Y-147797700D01*
X126827700Y-147667525D01*
X126827700Y-147335426D01*
X126748428Y-147144047D01*
X126601953Y-146997572D01*
X126410573Y-146918300D01*
X126212175Y-146918300D01*
X126082000Y-147048475D01*
X125632000Y-147048475D01*
X125501825Y-146918300D01*
X125303427Y-146918300D01*
X125112047Y-146997572D01*
X124965572Y-147144047D01*
X124886300Y-147335426D01*
X120477700Y-147335426D01*
X120398428Y-147144047D01*
X120251953Y-146997572D01*
X120060573Y-146918300D01*
X119862175Y-146918300D01*
X119732000Y-147048475D01*
X119282000Y-147048475D01*
X119151825Y-146918300D01*
X118953427Y-146918300D01*
X118762047Y-146997572D01*
X118615572Y-147144047D01*
X118536300Y-147335426D01*
X117668322Y-147335426D01*
X117668225Y-147334939D01*
X117609279Y-147246721D01*
X117521061Y-147187775D01*
X117417000Y-147167076D01*
X116517000Y-147167076D01*
X116412939Y-147187775D01*
X116324721Y-147246721D01*
X116265775Y-147334939D01*
X116245076Y-147439000D01*
X116245076Y-148639000D01*
X116265775Y-148743061D01*
X116324721Y-148831279D01*
X116412939Y-148890225D01*
X116500300Y-148907602D01*
X116500300Y-150693029D01*
X116167757Y-150915227D01*
X115922739Y-151281923D01*
X115836700Y-151714470D01*
X115836700Y-152069530D01*
X115922739Y-152502077D01*
X116167757Y-152868773D01*
X116207459Y-152895301D01*
X115186541Y-152895301D01*
X115226243Y-152868773D01*
X115471261Y-152502077D01*
X115557300Y-152069530D01*
X115557300Y-151714470D01*
X115471261Y-151281923D01*
X115226243Y-150915227D01*
X114893700Y-150693029D01*
X114893700Y-148907602D01*
X114981061Y-148890225D01*
X115069279Y-148831279D01*
X115128225Y-148743061D01*
X115148924Y-148639000D01*
X115148924Y-147439000D01*
X115128225Y-147334939D01*
X115069279Y-147246721D01*
X114981061Y-147187775D01*
X114877000Y-147167076D01*
X113977000Y-147167076D01*
X113872939Y-147187775D01*
X113784721Y-147246721D01*
X113725775Y-147334939D01*
X113705076Y-147439000D01*
X113705076Y-148639000D01*
X113725775Y-148743061D01*
X113784721Y-148831279D01*
X113872939Y-148890225D01*
X113960300Y-148907602D01*
X113960300Y-150693029D01*
X113627757Y-150915227D01*
X113382739Y-151281923D01*
X113296700Y-151714470D01*
X113296700Y-152069530D01*
X113382739Y-152502077D01*
X113627757Y-152868773D01*
X113667459Y-152895301D01*
X112955486Y-152895301D01*
X113014241Y-152839438D01*
X113232683Y-152347543D01*
X113133362Y-152133300D01*
X112128300Y-152133300D01*
X112128300Y-152153300D01*
X111645700Y-152153300D01*
X111645700Y-152133300D01*
X110640638Y-152133300D01*
X110541317Y-152347543D01*
X110759759Y-152839438D01*
X110818514Y-152895301D01*
X110482524Y-152895301D01*
X110482524Y-151436457D01*
X110541317Y-151436457D01*
X110640638Y-151650700D01*
X111645700Y-151650700D01*
X111645700Y-150508908D01*
X112128300Y-150508908D01*
X112128300Y-151650700D01*
X113133362Y-151650700D01*
X113232683Y-151436457D01*
X113014241Y-150944562D01*
X112624187Y-150573704D01*
X112338566Y-150431023D01*
X112128300Y-150508908D01*
X111645700Y-150508908D01*
X111435434Y-150431023D01*
X111149813Y-150573704D01*
X110759759Y-150944562D01*
X110541317Y-151436457D01*
X110482524Y-151436457D01*
X110482524Y-150876000D01*
X110461825Y-150771939D01*
X110402879Y-150683721D01*
X110314661Y-150624775D01*
X110210600Y-150604076D01*
X108483400Y-150604076D01*
X108473730Y-150605999D01*
X108473730Y-150357600D01*
X109732291Y-150357600D01*
X109732291Y-148531400D01*
X108473730Y-148531400D01*
X108473730Y-148410475D01*
X110916300Y-148410475D01*
X110916300Y-148742574D01*
X110995572Y-148933953D01*
X111142047Y-149080428D01*
X111333427Y-149159700D01*
X111531825Y-149159700D01*
X111662000Y-149029525D01*
X111662000Y-148280300D01*
X112112000Y-148280300D01*
X112112000Y-149029525D01*
X112242175Y-149159700D01*
X112440573Y-149159700D01*
X112631953Y-149080428D01*
X112778428Y-148933953D01*
X112857700Y-148742574D01*
X112857700Y-148410475D01*
X112727525Y-148280300D01*
X112112000Y-148280300D01*
X111662000Y-148280300D01*
X111046475Y-148280300D01*
X110916300Y-148410475D01*
X108473730Y-148410475D01*
X108473730Y-147599920D01*
X108738224Y-147335426D01*
X110916300Y-147335426D01*
X110916300Y-147667525D01*
X111046475Y-147797700D01*
X111662000Y-147797700D01*
X111662000Y-147048475D01*
X112112000Y-147048475D01*
X112112000Y-147797700D01*
X112727525Y-147797700D01*
X112857700Y-147667525D01*
X112857700Y-147335426D01*
X112778428Y-147144047D01*
X112631953Y-146997572D01*
X112440573Y-146918300D01*
X112242175Y-146918300D01*
X112112000Y-147048475D01*
X111662000Y-147048475D01*
X111531825Y-146918300D01*
X111333427Y-146918300D01*
X111142047Y-146997572D01*
X110995572Y-147144047D01*
X110916300Y-147335426D01*
X108738224Y-147335426D01*
X109245047Y-146828603D01*
X109346215Y-146677195D01*
X109381740Y-146498596D01*
X109381740Y-143881274D01*
X109435339Y-143827675D01*
X111340300Y-143827675D01*
X111340300Y-143988573D01*
X111419572Y-144179953D01*
X111566047Y-144326428D01*
X111757426Y-144405700D01*
X112089525Y-144405700D01*
X112219700Y-144275525D01*
X112219700Y-143697500D01*
X111470475Y-143697500D01*
X111340300Y-143827675D01*
X109435339Y-143827675D01*
X110231587Y-143031427D01*
X111340300Y-143031427D01*
X111340300Y-143192325D01*
X111470475Y-143322500D01*
X112219700Y-143322500D01*
X112219700Y-142744475D01*
X112089525Y-142614300D01*
X111757426Y-142614300D01*
X111566047Y-142693572D01*
X111419572Y-142840047D01*
X111340300Y-143031427D01*
X110231587Y-143031427D01*
X115128314Y-138134700D01*
X118301286Y-138134700D01*
X114030993Y-142404993D01*
X113929825Y-142556401D01*
X113920044Y-142605573D01*
X113894300Y-142735000D01*
X113894300Y-142863076D01*
X113761000Y-142863076D01*
X113656939Y-142883775D01*
X113568721Y-142942721D01*
X113554051Y-142964676D01*
X113502428Y-142840047D01*
X113355953Y-142693572D01*
X113164574Y-142614300D01*
X112832475Y-142614300D01*
X112702300Y-142744475D01*
X112702300Y-143322500D01*
X112722300Y-143322500D01*
X112722300Y-143697500D01*
X112702300Y-143697500D01*
X112702300Y-144275525D01*
X112832475Y-144405700D01*
X113164574Y-144405700D01*
X113355953Y-144326428D01*
X113502428Y-144179953D01*
X113554051Y-144055324D01*
X113568721Y-144077279D01*
X113656939Y-144136225D01*
X113761000Y-144156924D01*
X113894300Y-144156924D01*
X113894300Y-144983526D01*
X113872939Y-144987775D01*
X113784721Y-145046721D01*
X113725775Y-145134939D01*
X113705076Y-145239000D01*
X113705076Y-145372300D01*
X112608924Y-145372300D01*
X112608924Y-145239000D01*
X112588225Y-145134939D01*
X112529279Y-145046721D01*
X112441061Y-144987775D01*
X112337000Y-144967076D01*
X111437000Y-144967076D01*
X111332939Y-144987775D01*
X111244721Y-145046721D01*
X111185775Y-145134939D01*
X111165076Y-145239000D01*
X111165076Y-146439000D01*
X111185775Y-146543061D01*
X111244721Y-146631279D01*
X111332939Y-146690225D01*
X111437000Y-146710924D01*
X112337000Y-146710924D01*
X112441061Y-146690225D01*
X112529279Y-146631279D01*
X112588225Y-146543061D01*
X112608924Y-146439000D01*
X112608924Y-146305700D01*
X113705076Y-146305700D01*
X113705076Y-146439000D01*
X113725775Y-146543061D01*
X113784721Y-146631279D01*
X113872939Y-146690225D01*
X113977000Y-146710924D01*
X114877000Y-146710924D01*
X114981061Y-146690225D01*
X115069279Y-146631279D01*
X115128225Y-146543061D01*
X115148924Y-146439000D01*
X115148924Y-145239000D01*
X115128225Y-145134939D01*
X115069279Y-145046721D01*
X114981061Y-144987775D01*
X114877000Y-144967076D01*
X114827700Y-144967076D01*
X114827700Y-144156924D01*
X114961000Y-144156924D01*
X115065061Y-144136225D01*
X115153279Y-144077279D01*
X115212225Y-143989061D01*
X115232924Y-143885000D01*
X115232924Y-143135000D01*
X115212225Y-143030939D01*
X115153279Y-142942721D01*
X115065061Y-142883775D01*
X114961000Y-142863076D01*
X114892938Y-142863076D01*
X118967304Y-138788710D01*
X120319277Y-138788710D01*
X116702993Y-142404993D01*
X116601825Y-142556401D01*
X116592044Y-142605573D01*
X116566300Y-142735000D01*
X116566300Y-142863076D01*
X116433000Y-142863076D01*
X116328939Y-142883775D01*
X116240721Y-142942721D01*
X116181775Y-143030939D01*
X116161076Y-143135000D01*
X116161076Y-143885000D01*
X116181775Y-143989061D01*
X116240721Y-144077279D01*
X116328939Y-144136225D01*
X116433000Y-144156924D01*
X116500300Y-144156924D01*
X116500300Y-144970398D01*
X116412939Y-144987775D01*
X116324721Y-145046721D01*
X116265775Y-145134939D01*
X116245076Y-145239000D01*
X116245076Y-146439000D01*
X116265775Y-146543061D01*
X116324721Y-146631279D01*
X116412939Y-146690225D01*
X116517000Y-146710924D01*
X117417000Y-146710924D01*
X117521061Y-146690225D01*
X117609279Y-146631279D01*
X117668225Y-146543061D01*
X117688924Y-146439000D01*
X117688924Y-146305700D01*
X118785076Y-146305700D01*
X118785076Y-146439000D01*
X118805775Y-146543061D01*
X118864721Y-146631279D01*
X118952939Y-146690225D01*
X119057000Y-146710924D01*
X119957000Y-146710924D01*
X120061061Y-146690225D01*
X120149279Y-146631279D01*
X120208225Y-146543061D01*
X120228924Y-146439000D01*
X120228924Y-145239000D01*
X120208225Y-145134939D01*
X120149279Y-145046721D01*
X120061061Y-144987775D01*
X119957000Y-144967076D01*
X119057000Y-144967076D01*
X118952939Y-144987775D01*
X118864721Y-145046721D01*
X118805775Y-145134939D01*
X118785076Y-145239000D01*
X118785076Y-145372300D01*
X117688924Y-145372300D01*
X117688924Y-145239000D01*
X117668225Y-145134939D01*
X117609279Y-145046721D01*
X117521061Y-144987775D01*
X117433700Y-144970398D01*
X117433700Y-144156924D01*
X117633000Y-144156924D01*
X117737061Y-144136225D01*
X117825279Y-144077279D01*
X117839949Y-144055324D01*
X117891572Y-144179953D01*
X118038047Y-144326428D01*
X118229426Y-144405700D01*
X118561525Y-144405700D01*
X118691700Y-144275525D01*
X118691700Y-143697500D01*
X119174300Y-143697500D01*
X119174300Y-144275525D01*
X119304475Y-144405700D01*
X119636574Y-144405700D01*
X119827953Y-144326428D01*
X119974428Y-144179953D01*
X120053700Y-143988573D01*
X120053700Y-143827675D01*
X125437300Y-143827675D01*
X125437300Y-143988573D01*
X125516572Y-144179953D01*
X125663047Y-144326428D01*
X125854426Y-144405700D01*
X126186525Y-144405700D01*
X126316700Y-144275525D01*
X126316700Y-143697500D01*
X125567475Y-143697500D01*
X125437300Y-143827675D01*
X120053700Y-143827675D01*
X119923525Y-143697500D01*
X119174300Y-143697500D01*
X118691700Y-143697500D01*
X118671700Y-143697500D01*
X118671700Y-143322500D01*
X118691700Y-143322500D01*
X118691700Y-142744475D01*
X119174300Y-142744475D01*
X119174300Y-143322500D01*
X119923525Y-143322500D01*
X120053700Y-143192325D01*
X120053700Y-143031427D01*
X125437300Y-143031427D01*
X125437300Y-143192325D01*
X125567475Y-143322500D01*
X126316700Y-143322500D01*
X126316700Y-142744475D01*
X126186525Y-142614300D01*
X125854426Y-142614300D01*
X125663047Y-142693572D01*
X125516572Y-142840047D01*
X125437300Y-143031427D01*
X120053700Y-143031427D01*
X119974428Y-142840047D01*
X119827953Y-142693572D01*
X119636574Y-142614300D01*
X119304475Y-142614300D01*
X119174300Y-142744475D01*
X118691700Y-142744475D01*
X118561525Y-142614300D01*
X118229426Y-142614300D01*
X118038047Y-142693572D01*
X117891572Y-142840047D01*
X117839949Y-142964676D01*
X117825279Y-142942721D01*
X117737061Y-142883775D01*
X117633000Y-142863076D01*
X117564938Y-142863076D01*
X120985293Y-139442720D01*
X126676671Y-139442720D01*
X126855270Y-139407195D01*
X127006678Y-139306027D01*
X130113331Y-136199374D01*
X130113331Y-140419655D01*
X128127993Y-142404993D01*
X128026825Y-142556401D01*
X128017044Y-142605573D01*
X127991300Y-142735000D01*
X127991300Y-142863076D01*
X127858000Y-142863076D01*
X127753939Y-142883775D01*
X127665721Y-142942721D01*
X127651051Y-142964676D01*
X127599428Y-142840047D01*
X127452953Y-142693572D01*
X127261574Y-142614300D01*
X126929475Y-142614300D01*
X126799300Y-142744475D01*
X126799300Y-143322500D01*
X126819300Y-143322500D01*
X126819300Y-143697500D01*
X126799300Y-143697500D01*
X126799300Y-144275525D01*
X126929475Y-144405700D01*
X127261574Y-144405700D01*
X127452953Y-144326428D01*
X127599428Y-144179953D01*
X127651051Y-144055324D01*
X127665721Y-144077279D01*
X127753939Y-144136225D01*
X127858000Y-144156924D01*
X127991300Y-144156924D01*
X127991300Y-144967076D01*
X127947000Y-144967076D01*
X127842939Y-144987775D01*
X127754721Y-145046721D01*
X127695775Y-145134939D01*
X127675076Y-145239000D01*
X127675076Y-145372300D01*
X126578924Y-145372300D01*
X126578924Y-145239000D01*
X126558225Y-145134939D01*
X126499279Y-145046721D01*
X126411061Y-144987775D01*
X126307000Y-144967076D01*
X125407000Y-144967076D01*
X125302939Y-144987775D01*
X125214721Y-145046721D01*
X125155775Y-145134939D01*
X125135076Y-145239000D01*
X125135076Y-146439000D01*
X125155775Y-146543061D01*
X125214721Y-146631279D01*
X125302939Y-146690225D01*
X125407000Y-146710924D01*
X126307000Y-146710924D01*
X126411061Y-146690225D01*
X126499279Y-146631279D01*
X126558225Y-146543061D01*
X126578924Y-146439000D01*
X126578924Y-146305700D01*
X127675076Y-146305700D01*
X127675076Y-146439000D01*
X127695775Y-146543061D01*
X127754721Y-146631279D01*
X127842939Y-146690225D01*
X127947000Y-146710924D01*
X128847000Y-146710924D01*
X128951061Y-146690225D01*
X129039279Y-146631279D01*
X129098225Y-146543061D01*
X129118924Y-146439000D01*
X129118924Y-145239000D01*
X129098225Y-145134939D01*
X129039279Y-145046721D01*
X128951061Y-144987775D01*
X128924700Y-144982531D01*
X128924700Y-144156924D01*
X129058000Y-144156924D01*
X129162061Y-144136225D01*
X129250279Y-144077279D01*
X129309225Y-143989061D01*
X129329924Y-143885000D01*
X129329924Y-143135000D01*
X129309225Y-143030939D01*
X129250279Y-142942721D01*
X129162061Y-142883775D01*
X129058000Y-142863076D01*
X128989938Y-142863076D01*
X130851300Y-141001714D01*
X130851300Y-142226686D01*
X130672993Y-142404993D01*
X130571825Y-142556401D01*
X130562044Y-142605573D01*
X130536300Y-142735000D01*
X130536300Y-142863076D01*
X130403000Y-142863076D01*
X130298939Y-142883775D01*
X130210721Y-142942721D01*
X130151775Y-143030939D01*
X130131076Y-143135000D01*
X130131076Y-143885000D01*
X130151775Y-143989061D01*
X130210721Y-144077279D01*
X130298939Y-144136225D01*
X130403000Y-144156924D01*
X130470300Y-144156924D01*
X130470300Y-144970398D01*
X130382939Y-144987775D01*
X130294721Y-145046721D01*
X130235775Y-145134939D01*
X130215076Y-145239000D01*
X130215076Y-146439000D01*
X130235775Y-146543061D01*
X130294721Y-146631279D01*
X130382939Y-146690225D01*
X130487000Y-146710924D01*
X131387000Y-146710924D01*
X131491061Y-146690225D01*
X131579279Y-146631279D01*
X131638225Y-146543061D01*
X131658924Y-146439000D01*
X131658924Y-146305700D01*
X132755076Y-146305700D01*
X132755076Y-146439000D01*
X132775775Y-146543061D01*
X132834721Y-146631279D01*
X132922939Y-146690225D01*
X133027000Y-146710924D01*
X133927000Y-146710924D01*
X134031061Y-146690225D01*
X134119279Y-146631279D01*
X134178225Y-146543061D01*
X134198924Y-146439000D01*
X134198924Y-145239000D01*
X134178225Y-145134939D01*
X134119279Y-145046721D01*
X134031061Y-144987775D01*
X133927000Y-144967076D01*
X133027000Y-144967076D01*
X132922939Y-144987775D01*
X132834721Y-145046721D01*
X132775775Y-145134939D01*
X132755076Y-145239000D01*
X132755076Y-145372300D01*
X131658924Y-145372300D01*
X131658924Y-145239000D01*
X131638225Y-145134939D01*
X131579279Y-145046721D01*
X131491061Y-144987775D01*
X131403700Y-144970398D01*
X131403700Y-144156924D01*
X131603000Y-144156924D01*
X131707061Y-144136225D01*
X131795279Y-144077279D01*
X131809949Y-144055324D01*
X131861572Y-144179953D01*
X132008047Y-144326428D01*
X132199426Y-144405700D01*
X132531525Y-144405700D01*
X132661700Y-144275525D01*
X132661700Y-143697500D01*
X133144300Y-143697500D01*
X133144300Y-144275525D01*
X133274475Y-144405700D01*
X133606574Y-144405700D01*
X133797953Y-144326428D01*
X133944428Y-144179953D01*
X134023700Y-143988573D01*
X134023700Y-143827675D01*
X139280300Y-143827675D01*
X139280300Y-143988573D01*
X139359572Y-144179953D01*
X139506047Y-144326428D01*
X139697426Y-144405700D01*
X140029525Y-144405700D01*
X140159700Y-144275525D01*
X140159700Y-143697500D01*
X139410475Y-143697500D01*
X139280300Y-143827675D01*
X134023700Y-143827675D01*
X133893525Y-143697500D01*
X133144300Y-143697500D01*
X132661700Y-143697500D01*
X132641700Y-143697500D01*
X132641700Y-143322500D01*
X132661700Y-143322500D01*
X132661700Y-142744475D01*
X133144300Y-142744475D01*
X133144300Y-143322500D01*
X133893525Y-143322500D01*
X134023700Y-143192325D01*
X134023700Y-143031427D01*
X139280300Y-143031427D01*
X139280300Y-143192325D01*
X139410475Y-143322500D01*
X140159700Y-143322500D01*
X140159700Y-142744475D01*
X140029525Y-142614300D01*
X139697426Y-142614300D01*
X139506047Y-142693572D01*
X139359572Y-142840047D01*
X139280300Y-143031427D01*
X134023700Y-143031427D01*
X133944428Y-142840047D01*
X133797953Y-142693572D01*
X133606574Y-142614300D01*
X133274475Y-142614300D01*
X133144300Y-142744475D01*
X132661700Y-142744475D01*
X132531525Y-142614300D01*
X132199426Y-142614300D01*
X132008047Y-142693572D01*
X131861572Y-142840047D01*
X131809949Y-142964676D01*
X131795279Y-142942721D01*
X131707061Y-142883775D01*
X131603000Y-142863076D01*
X131534938Y-142863076D01*
X131648007Y-142750007D01*
X131675357Y-142709074D01*
X131749175Y-142598598D01*
X131784700Y-142420000D01*
X131784700Y-111578005D01*
X131784701Y-111578000D01*
X131749175Y-111399401D01*
X131698591Y-111323698D01*
X131648007Y-111247993D01*
X131648004Y-111247991D01*
X125980745Y-105580731D01*
X126062444Y-105170000D01*
X126297556Y-105170000D01*
X126383595Y-105602547D01*
X126628613Y-105969243D01*
X126995309Y-106214261D01*
X127427856Y-106300300D01*
X127472144Y-106300300D01*
X127845934Y-106225948D01*
X142852800Y-121232814D01*
X142852800Y-141523187D01*
X141970993Y-142404993D01*
X141869825Y-142556401D01*
X141860044Y-142605573D01*
X141834300Y-142735000D01*
X141834300Y-142863076D01*
X141701000Y-142863076D01*
X141596939Y-142883775D01*
X141508721Y-142942721D01*
X141494051Y-142964676D01*
X141442428Y-142840047D01*
X141295953Y-142693572D01*
X141104574Y-142614300D01*
X140772475Y-142614300D01*
X140642300Y-142744475D01*
X140642300Y-143322500D01*
X140662300Y-143322500D01*
X140662300Y-143697500D01*
X140642300Y-143697500D01*
X140642300Y-144275525D01*
X140772475Y-144405700D01*
X141104574Y-144405700D01*
X141295953Y-144326428D01*
X141442428Y-144179953D01*
X141494051Y-144055324D01*
X141508721Y-144077279D01*
X141596939Y-144136225D01*
X141701000Y-144156924D01*
X141834300Y-144156924D01*
X141834300Y-144983526D01*
X141812939Y-144987775D01*
X141724721Y-145046721D01*
X141665775Y-145134939D01*
X141645076Y-145239000D01*
X141645076Y-145372300D01*
X140548924Y-145372300D01*
X140548924Y-145239000D01*
X140528225Y-145134939D01*
X140469279Y-145046721D01*
X140381061Y-144987775D01*
X140277000Y-144967076D01*
X139377000Y-144967076D01*
X139272939Y-144987775D01*
X139184721Y-145046721D01*
X139125775Y-145134939D01*
X139105076Y-145239000D01*
X139105076Y-146439000D01*
X139125775Y-146543061D01*
X139184721Y-146631279D01*
X139272939Y-146690225D01*
X139377000Y-146710924D01*
X140277000Y-146710924D01*
X140381061Y-146690225D01*
X140469279Y-146631279D01*
X140528225Y-146543061D01*
X140548924Y-146439000D01*
X140548924Y-146305700D01*
X141645076Y-146305700D01*
X141645076Y-146439000D01*
X141665775Y-146543061D01*
X141724721Y-146631279D01*
X141812939Y-146690225D01*
X141917000Y-146710924D01*
X142817000Y-146710924D01*
X142921061Y-146690225D01*
X143009279Y-146631279D01*
X143068225Y-146543061D01*
X143088924Y-146439000D01*
X143088924Y-145239000D01*
X143068225Y-145134939D01*
X143009279Y-145046721D01*
X142921061Y-144987775D01*
X142817000Y-144967076D01*
X142767700Y-144967076D01*
X142767700Y-144156924D01*
X142901000Y-144156924D01*
X143005061Y-144136225D01*
X143093279Y-144077279D01*
X143152225Y-143989061D01*
X143172924Y-143885000D01*
X143172924Y-143135000D01*
X143152225Y-143030939D01*
X143093279Y-142942721D01*
X143005061Y-142883775D01*
X142901000Y-142863076D01*
X142832938Y-142863076D01*
X143638293Y-142057720D01*
X143643503Y-142065517D01*
X144441062Y-142863076D01*
X144373000Y-142863076D01*
X144268939Y-142883775D01*
X144180721Y-142942721D01*
X144121775Y-143030939D01*
X144101076Y-143135000D01*
X144101076Y-143885000D01*
X144121775Y-143989061D01*
X144180721Y-144077279D01*
X144268939Y-144136225D01*
X144373000Y-144156924D01*
X144440300Y-144156924D01*
X144440300Y-144970398D01*
X144352939Y-144987775D01*
X144264721Y-145046721D01*
X144205775Y-145134939D01*
X144185076Y-145239000D01*
X144185076Y-146439000D01*
X144205775Y-146543061D01*
X144264721Y-146631279D01*
X144352939Y-146690225D01*
X144457000Y-146710924D01*
X145357000Y-146710924D01*
X145461061Y-146690225D01*
X145549279Y-146631279D01*
X145608225Y-146543061D01*
X145628924Y-146439000D01*
X145628924Y-146305700D01*
X146725076Y-146305700D01*
X146725076Y-146439000D01*
X146745775Y-146543061D01*
X146804721Y-146631279D01*
X146892939Y-146690225D01*
X146997000Y-146710924D01*
X147897000Y-146710924D01*
X148001061Y-146690225D01*
X148089279Y-146631279D01*
X148148225Y-146543061D01*
X148168924Y-146439000D01*
X148168924Y-145239000D01*
X148148225Y-145134939D01*
X148089279Y-145046721D01*
X148001061Y-144987775D01*
X147897000Y-144967076D01*
X146997000Y-144967076D01*
X146892939Y-144987775D01*
X146804721Y-145046721D01*
X146745775Y-145134939D01*
X146725076Y-145239000D01*
X146725076Y-145372300D01*
X145628924Y-145372300D01*
X145628924Y-145239000D01*
X145608225Y-145134939D01*
X145549279Y-145046721D01*
X145461061Y-144987775D01*
X145373700Y-144970398D01*
X145373700Y-144156924D01*
X145573000Y-144156924D01*
X145677061Y-144136225D01*
X145765279Y-144077279D01*
X145779949Y-144055324D01*
X145831572Y-144179953D01*
X145978047Y-144326428D01*
X146169426Y-144405700D01*
X146501525Y-144405700D01*
X146631700Y-144275525D01*
X146631700Y-143697500D01*
X147114300Y-143697500D01*
X147114300Y-144275525D01*
X147244475Y-144405700D01*
X147576574Y-144405700D01*
X147767953Y-144326428D01*
X147914428Y-144179953D01*
X147993700Y-143988573D01*
X147993700Y-143827675D01*
X153250300Y-143827675D01*
X153250300Y-143988573D01*
X153329572Y-144179953D01*
X153476047Y-144326428D01*
X153667426Y-144405700D01*
X153999525Y-144405700D01*
X154129700Y-144275525D01*
X154129700Y-143697500D01*
X153380475Y-143697500D01*
X153250300Y-143827675D01*
X147993700Y-143827675D01*
X147863525Y-143697500D01*
X147114300Y-143697500D01*
X146631700Y-143697500D01*
X146611700Y-143697500D01*
X146611700Y-143322500D01*
X146631700Y-143322500D01*
X146631700Y-142744475D01*
X147114300Y-142744475D01*
X147114300Y-143322500D01*
X147863525Y-143322500D01*
X147993700Y-143192325D01*
X147993700Y-143031427D01*
X153250300Y-143031427D01*
X153250300Y-143192325D01*
X153380475Y-143322500D01*
X154129700Y-143322500D01*
X154129700Y-142744475D01*
X153999525Y-142614300D01*
X153667426Y-142614300D01*
X153476047Y-142693572D01*
X153329572Y-142840047D01*
X153250300Y-143031427D01*
X147993700Y-143031427D01*
X147914428Y-142840047D01*
X147767953Y-142693572D01*
X147576574Y-142614300D01*
X147244475Y-142614300D01*
X147114300Y-142744475D01*
X146631700Y-142744475D01*
X146501525Y-142614300D01*
X146169426Y-142614300D01*
X145978047Y-142693572D01*
X145831572Y-142840047D01*
X145779949Y-142964676D01*
X145765279Y-142942721D01*
X145677061Y-142883775D01*
X145573000Y-142863076D01*
X145439700Y-142863076D01*
X145439700Y-142735000D01*
X145404175Y-142556402D01*
X145303007Y-142404993D01*
X144440210Y-141542196D01*
X144440210Y-129796724D01*
X155804300Y-141160814D01*
X155804300Y-142863076D01*
X155671000Y-142863076D01*
X155566939Y-142883775D01*
X155478721Y-142942721D01*
X155464051Y-142964676D01*
X155412428Y-142840047D01*
X155265953Y-142693572D01*
X155074574Y-142614300D01*
X154742475Y-142614300D01*
X154612300Y-142744475D01*
X154612300Y-143322500D01*
X154632300Y-143322500D01*
X154632300Y-143697500D01*
X154612300Y-143697500D01*
X154612300Y-144275525D01*
X154742475Y-144405700D01*
X155074574Y-144405700D01*
X155265953Y-144326428D01*
X155412428Y-144179953D01*
X155464051Y-144055324D01*
X155478721Y-144077279D01*
X155566939Y-144136225D01*
X155671000Y-144156924D01*
X155870300Y-144156924D01*
X155870300Y-144970398D01*
X155782939Y-144987775D01*
X155694721Y-145046721D01*
X155635775Y-145134939D01*
X155615076Y-145239000D01*
X155615076Y-145372300D01*
X154518924Y-145372300D01*
X154518924Y-145239000D01*
X154498225Y-145134939D01*
X154439279Y-145046721D01*
X154351061Y-144987775D01*
X154247000Y-144967076D01*
X153347000Y-144967076D01*
X153242939Y-144987775D01*
X153154721Y-145046721D01*
X153095775Y-145134939D01*
X153075076Y-145239000D01*
X153075076Y-146439000D01*
X153095775Y-146543061D01*
X153154721Y-146631279D01*
X153242939Y-146690225D01*
X153347000Y-146710924D01*
X154247000Y-146710924D01*
X154351061Y-146690225D01*
X154439279Y-146631279D01*
X154498225Y-146543061D01*
X154518924Y-146439000D01*
X154518924Y-146305700D01*
X155615076Y-146305700D01*
X155615076Y-146439000D01*
X155635775Y-146543061D01*
X155694721Y-146631279D01*
X155782939Y-146690225D01*
X155887000Y-146710924D01*
X156787000Y-146710924D01*
X156891061Y-146690225D01*
X156979279Y-146631279D01*
X157038225Y-146543061D01*
X157058924Y-146439000D01*
X157058924Y-145239000D01*
X157038225Y-145134939D01*
X156979279Y-145046721D01*
X156891061Y-144987775D01*
X156803700Y-144970398D01*
X156803700Y-144156924D01*
X156871000Y-144156924D01*
X156975061Y-144136225D01*
X157063279Y-144077279D01*
X157122225Y-143989061D01*
X157142924Y-143885000D01*
X157142924Y-143135000D01*
X157122225Y-143030939D01*
X157063279Y-142942721D01*
X156975061Y-142883775D01*
X156871000Y-142863076D01*
X156737700Y-142863076D01*
X156737700Y-141169306D01*
X158431470Y-142863076D01*
X158343000Y-142863076D01*
X158238939Y-142883775D01*
X158150721Y-142942721D01*
X158091775Y-143030939D01*
X158071076Y-143135000D01*
X158071076Y-143885000D01*
X158091775Y-143989061D01*
X158150721Y-144077279D01*
X158238939Y-144136225D01*
X158343000Y-144156924D01*
X158476300Y-144156924D01*
X158476300Y-144967076D01*
X158427000Y-144967076D01*
X158322939Y-144987775D01*
X158234721Y-145046721D01*
X158175775Y-145134939D01*
X158155076Y-145239000D01*
X158155076Y-146439000D01*
X158175775Y-146543061D01*
X158234721Y-146631279D01*
X158322939Y-146690225D01*
X158427000Y-146710924D01*
X159327000Y-146710924D01*
X159431061Y-146690225D01*
X159519279Y-146631279D01*
X159578225Y-146543061D01*
X159598924Y-146439000D01*
X159598924Y-146305700D01*
X160695076Y-146305700D01*
X160695076Y-146439000D01*
X160715775Y-146543061D01*
X160774721Y-146631279D01*
X160862939Y-146690225D01*
X160967000Y-146710924D01*
X161867000Y-146710924D01*
X161971061Y-146690225D01*
X162059279Y-146631279D01*
X162118225Y-146543061D01*
X162138924Y-146439000D01*
X162138924Y-145239000D01*
X162118225Y-145134939D01*
X162059279Y-145046721D01*
X161971061Y-144987775D01*
X161867000Y-144967076D01*
X160967000Y-144967076D01*
X160862939Y-144987775D01*
X160774721Y-145046721D01*
X160715775Y-145134939D01*
X160695076Y-145239000D01*
X160695076Y-145372300D01*
X159598924Y-145372300D01*
X159598924Y-145239000D01*
X159578225Y-145134939D01*
X159519279Y-145046721D01*
X159431061Y-144987775D01*
X159409700Y-144983526D01*
X159409700Y-144156924D01*
X159543000Y-144156924D01*
X159647061Y-144136225D01*
X159735279Y-144077279D01*
X159749949Y-144055324D01*
X159801572Y-144179953D01*
X159948047Y-144326428D01*
X160139426Y-144405700D01*
X160471525Y-144405700D01*
X160601700Y-144275525D01*
X160601700Y-143697500D01*
X161084300Y-143697500D01*
X161084300Y-144275525D01*
X161214475Y-144405700D01*
X161546574Y-144405700D01*
X161737953Y-144326428D01*
X161884428Y-144179953D01*
X161963700Y-143988573D01*
X161963700Y-143827675D01*
X161833525Y-143697500D01*
X161084300Y-143697500D01*
X160601700Y-143697500D01*
X160581700Y-143697500D01*
X160581700Y-143322500D01*
X160601700Y-143322500D01*
X160601700Y-142744475D01*
X161084300Y-142744475D01*
X161084300Y-143322500D01*
X161833525Y-143322500D01*
X161963700Y-143192325D01*
X161963700Y-143031427D01*
X161884428Y-142840047D01*
X161737953Y-142693572D01*
X161546574Y-142614300D01*
X161214475Y-142614300D01*
X161084300Y-142744475D01*
X160601700Y-142744475D01*
X160471525Y-142614300D01*
X160139426Y-142614300D01*
X159948047Y-142693572D01*
X159801572Y-142840047D01*
X159749949Y-142964676D01*
X159735279Y-142942721D01*
X159647061Y-142883775D01*
X159543000Y-142863076D01*
X159409700Y-142863076D01*
X159409700Y-142714592D01*
X159381413Y-142572381D01*
X159374175Y-142535993D01*
X159273007Y-142384585D01*
X145748230Y-128859808D01*
X145748230Y-127152400D01*
X152191576Y-127152400D01*
X152191576Y-128879600D01*
X152212275Y-128983661D01*
X152271221Y-129071879D01*
X152359439Y-129130825D01*
X152463500Y-129151524D01*
X154495500Y-129151524D01*
X154599561Y-129130825D01*
X154687779Y-129071879D01*
X154746725Y-128983661D01*
X154767424Y-128879600D01*
X154767424Y-127152400D01*
X154746725Y-127048339D01*
X154687779Y-126960121D01*
X154599561Y-126901175D01*
X154495500Y-126880476D01*
X152463500Y-126880476D01*
X152359439Y-126901175D01*
X152271221Y-126960121D01*
X152212275Y-127048339D01*
X152191576Y-127152400D01*
X145748230Y-127152400D01*
X145748230Y-125476000D01*
X152171670Y-125476000D01*
X152257709Y-125908547D01*
X152502727Y-126275243D01*
X152869423Y-126520261D01*
X153301970Y-126606300D01*
X153657030Y-126606300D01*
X154089577Y-126520261D01*
X154456273Y-126275243D01*
X154701291Y-125908547D01*
X154787330Y-125476000D01*
X154701291Y-125043453D01*
X154456273Y-124676757D01*
X154089577Y-124431739D01*
X153657030Y-124345700D01*
X153301970Y-124345700D01*
X152869423Y-124431739D01*
X152502727Y-124676757D01*
X152257709Y-125043453D01*
X152171670Y-125476000D01*
X145748230Y-125476000D01*
X145748230Y-122936000D01*
X152171670Y-122936000D01*
X152257709Y-123368547D01*
X152502727Y-123735243D01*
X152869423Y-123980261D01*
X153301970Y-124066300D01*
X153657030Y-124066300D01*
X154089577Y-123980261D01*
X154456273Y-123735243D01*
X154701291Y-123368547D01*
X154787330Y-122936000D01*
X154701291Y-122503453D01*
X154456273Y-122136757D01*
X154089577Y-121891739D01*
X153657030Y-121805700D01*
X153301970Y-121805700D01*
X152869423Y-121891739D01*
X152502727Y-122136757D01*
X152257709Y-122503453D01*
X152171670Y-122936000D01*
X145748230Y-122936000D01*
X145748230Y-120396000D01*
X152171670Y-120396000D01*
X152257709Y-120828547D01*
X152502727Y-121195243D01*
X152869423Y-121440261D01*
X153301970Y-121526300D01*
X153657030Y-121526300D01*
X154089577Y-121440261D01*
X154456273Y-121195243D01*
X154701291Y-120828547D01*
X154787330Y-120396000D01*
X154701291Y-119963453D01*
X154456273Y-119596757D01*
X154089577Y-119351739D01*
X153657030Y-119265700D01*
X153301970Y-119265700D01*
X152869423Y-119351739D01*
X152502727Y-119596757D01*
X152257709Y-119963453D01*
X152171670Y-120396000D01*
X145748230Y-120396000D01*
X145748230Y-120135535D01*
X145748231Y-120135530D01*
X145712705Y-119956931D01*
X145650879Y-119864403D01*
X145611537Y-119805523D01*
X145611534Y-119805521D01*
X143662014Y-117856000D01*
X152171670Y-117856000D01*
X152257709Y-118288547D01*
X152502727Y-118655243D01*
X152869423Y-118900261D01*
X153301970Y-118986300D01*
X153657030Y-118986300D01*
X154089577Y-118900261D01*
X154456273Y-118655243D01*
X154701291Y-118288547D01*
X154787330Y-117856000D01*
X154701291Y-117423453D01*
X154456273Y-117056757D01*
X154089577Y-116811739D01*
X153657030Y-116725700D01*
X153301970Y-116725700D01*
X152869423Y-116811739D01*
X152502727Y-117056757D01*
X152257709Y-117423453D01*
X152171670Y-117856000D01*
X143662014Y-117856000D01*
X141122014Y-115316000D01*
X152171670Y-115316000D01*
X152257709Y-115748547D01*
X152502727Y-116115243D01*
X152869423Y-116360261D01*
X153301970Y-116446300D01*
X153657030Y-116446300D01*
X154089577Y-116360261D01*
X154456273Y-116115243D01*
X154701291Y-115748547D01*
X154787330Y-115316000D01*
X154701291Y-114883453D01*
X154456273Y-114516757D01*
X154089577Y-114271739D01*
X153657030Y-114185700D01*
X153301970Y-114185700D01*
X152869423Y-114271739D01*
X152502727Y-114516757D01*
X152257709Y-114883453D01*
X152171670Y-115316000D01*
X141122014Y-115316000D01*
X134968311Y-109162297D01*
X134968311Y-102651561D01*
X134932786Y-102472963D01*
X134932786Y-102472962D01*
X134831618Y-102321554D01*
X133492456Y-100982392D01*
X133341048Y-100881224D01*
X133162449Y-100845699D01*
X131307606Y-100845699D01*
X131307601Y-100845698D01*
X131129002Y-100881224D01*
X130977594Y-100982392D01*
X130523592Y-101436394D01*
X130523590Y-101436397D01*
X130385935Y-101574052D01*
X130012144Y-101499700D01*
X129967856Y-101499700D01*
X129535309Y-101585739D01*
X129168613Y-101830757D01*
X128923595Y-102197453D01*
X128837556Y-102630000D01*
X128923595Y-103062547D01*
X129168613Y-103429243D01*
X129535309Y-103674261D01*
X129967856Y-103760300D01*
X130012144Y-103760300D01*
X130444691Y-103674261D01*
X130811387Y-103429243D01*
X131056405Y-103062547D01*
X131142444Y-102630000D01*
X131060744Y-102219269D01*
X131183603Y-102096410D01*
X131183606Y-102096408D01*
X131500915Y-101779099D01*
X131785925Y-101779099D01*
X131708613Y-101830757D01*
X131463595Y-102197453D01*
X131377556Y-102630000D01*
X131463595Y-103062547D01*
X131708613Y-103429243D01*
X132075309Y-103674261D01*
X132507856Y-103760300D01*
X132552144Y-103760300D01*
X132925934Y-103685948D01*
X133380901Y-104140915D01*
X133380901Y-104414928D01*
X133351387Y-104370757D01*
X132984691Y-104125739D01*
X132552144Y-104039700D01*
X132507856Y-104039700D01*
X132075309Y-104125739D01*
X131708613Y-104370757D01*
X131463595Y-104737453D01*
X131377556Y-105170000D01*
X131463595Y-105602547D01*
X131708613Y-105969243D01*
X132075309Y-106214261D01*
X132507856Y-106300300D01*
X132552144Y-106300300D01*
X132984691Y-106214261D01*
X133351387Y-105969243D01*
X133380901Y-105925072D01*
X133380901Y-109424704D01*
X130456700Y-106500503D01*
X130456700Y-106206237D01*
X130811387Y-105969243D01*
X131056405Y-105602547D01*
X131142444Y-105170000D01*
X131056405Y-104737453D01*
X130811387Y-104370757D01*
X130444691Y-104125739D01*
X130012144Y-104039700D01*
X129967856Y-104039700D01*
X129535309Y-104125739D01*
X129168613Y-104370757D01*
X128923595Y-104737453D01*
X128837556Y-105170000D01*
X128923595Y-105602547D01*
X129168613Y-105969243D01*
X129523300Y-106206237D01*
X129523300Y-106583286D01*
X128520745Y-105580731D01*
X128602444Y-105170000D01*
X128516405Y-104737453D01*
X128271387Y-104370757D01*
X127904691Y-104125739D01*
X127472144Y-104039700D01*
X127427856Y-104039700D01*
X126995309Y-104125739D01*
X126628613Y-104370757D01*
X126383595Y-104737453D01*
X126297556Y-105170000D01*
X126062444Y-105170000D01*
X125976405Y-104737453D01*
X125731387Y-104370757D01*
X125364691Y-104125739D01*
X124932144Y-104039700D01*
X124887856Y-104039700D01*
X124455309Y-104125739D01*
X124088613Y-104370757D01*
X123843595Y-104737453D01*
X123757556Y-105170000D01*
X123843595Y-105602547D01*
X124088613Y-105969243D01*
X124165925Y-106020901D01*
X123114075Y-106020901D01*
X123191387Y-105969243D01*
X123436405Y-105602547D01*
X123522444Y-105170000D01*
X123436405Y-104737453D01*
X123191387Y-104370757D01*
X122824691Y-104125739D01*
X122392144Y-104039700D01*
X122347856Y-104039700D01*
X121915309Y-104125739D01*
X121548613Y-104370757D01*
X121303595Y-104737453D01*
X121217556Y-105170000D01*
X121303595Y-105602547D01*
X121548613Y-105969243D01*
X121625925Y-106020901D01*
X121340915Y-106020901D01*
X120900745Y-105580731D01*
X120982444Y-105170000D01*
X120896405Y-104737453D01*
X120651387Y-104370757D01*
X120284691Y-104125739D01*
X119852144Y-104039700D01*
X119807856Y-104039700D01*
X119375309Y-104125739D01*
X119008613Y-104370757D01*
X118763595Y-104737453D01*
X118677556Y-105170000D01*
X118763595Y-105602547D01*
X119008613Y-105969243D01*
X119375309Y-106214261D01*
X119807856Y-106300300D01*
X119852144Y-106300300D01*
X120225934Y-106225948D01*
X120674897Y-106674911D01*
X116914924Y-106674911D01*
X115943606Y-105703592D01*
X115943603Y-105703590D01*
X115820744Y-105580731D01*
X115902444Y-105170000D01*
X116137556Y-105170000D01*
X116223595Y-105602547D01*
X116468613Y-105969243D01*
X116835309Y-106214261D01*
X117267856Y-106300300D01*
X117312144Y-106300300D01*
X117744691Y-106214261D01*
X118111387Y-105969243D01*
X118356405Y-105602547D01*
X118442444Y-105170000D01*
X118356405Y-104737453D01*
X118111387Y-104370757D01*
X117744691Y-104125739D01*
X117312144Y-104039700D01*
X117267856Y-104039700D01*
X116835309Y-104125739D01*
X116468613Y-104370757D01*
X116223595Y-104737453D01*
X116137556Y-105170000D01*
X115902444Y-105170000D01*
X115816405Y-104737453D01*
X115571387Y-104370757D01*
X115204691Y-104125739D01*
X114772144Y-104039700D01*
X114727856Y-104039700D01*
X114295309Y-104125739D01*
X113928613Y-104370757D01*
X113683595Y-104737453D01*
X113597556Y-105170000D01*
X113683595Y-105602547D01*
X113928613Y-105969243D01*
X114295309Y-106214261D01*
X114727856Y-106300300D01*
X114772144Y-106300300D01*
X115145935Y-106225948D01*
X115283590Y-106363603D01*
X115283592Y-106363606D01*
X116248908Y-107328921D01*
X113013752Y-107328921D01*
X111934794Y-106249963D01*
X112187856Y-106300300D01*
X112232144Y-106300300D01*
X112664691Y-106214261D01*
X113031387Y-105969243D01*
X113276405Y-105602547D01*
X113362444Y-105170000D01*
X113276405Y-104737453D01*
X113031387Y-104370757D01*
X112664691Y-104125739D01*
X112232144Y-104039700D01*
X112187856Y-104039700D01*
X111755309Y-104125739D01*
X111388613Y-104370757D01*
X111143595Y-104737453D01*
X111057556Y-105170000D01*
X111107893Y-105423062D01*
X110814402Y-105129571D01*
X110736405Y-104737453D01*
X110491387Y-104370757D01*
X110124691Y-104125739D01*
X109692144Y-104039700D01*
X109647856Y-104039700D01*
X109215309Y-104125739D01*
X108848613Y-104370757D01*
X108603595Y-104737453D01*
X108517556Y-105170000D01*
X108603595Y-105602547D01*
X108848613Y-105969243D01*
X108925925Y-106020901D01*
X107874075Y-106020901D01*
X107951387Y-105969243D01*
X108196405Y-105602547D01*
X108282444Y-105170000D01*
X108196405Y-104737453D01*
X107951387Y-104370757D01*
X107584691Y-104125739D01*
X107152144Y-104039700D01*
X107107856Y-104039700D01*
X106675309Y-104125739D01*
X106308613Y-104370757D01*
X106063595Y-104737453D01*
X105977556Y-105170000D01*
X106063595Y-105602547D01*
X106308613Y-105969243D01*
X106385925Y-106020901D01*
X106100915Y-106020901D01*
X105783606Y-105703592D01*
X105783603Y-105703590D01*
X105660744Y-105580731D01*
X105742444Y-105170000D01*
X105656405Y-104737453D01*
X105411387Y-104370757D01*
X105044691Y-104125739D01*
X104612144Y-104039700D01*
X104567856Y-104039700D01*
X104135309Y-104125739D01*
X103768613Y-104370757D01*
X103523595Y-104737453D01*
X103437556Y-105170000D01*
X103523595Y-105602547D01*
X103768613Y-105969243D01*
X104135309Y-106214261D01*
X104567856Y-106300300D01*
X104612144Y-106300300D01*
X104985935Y-106225948D01*
X105123590Y-106363603D01*
X105123592Y-106363606D01*
X105577594Y-106817608D01*
X105729002Y-106918776D01*
X105907601Y-106954302D01*
X105907606Y-106954301D01*
X106613898Y-106954301D01*
X106585426Y-106982723D01*
X106476924Y-107244024D01*
X106476677Y-107526957D01*
X106584723Y-107788447D01*
X106784612Y-107988685D01*
X107045913Y-108097187D01*
X107328846Y-108097434D01*
X107590336Y-107989388D01*
X107727151Y-107852811D01*
X110367797Y-107852811D01*
X114606497Y-112091510D01*
X114302818Y-111888599D01*
X113665000Y-111761729D01*
X113027182Y-111888599D01*
X112486465Y-112249894D01*
X112125170Y-112790611D01*
X112044076Y-113198300D01*
X108193911Y-113198300D01*
X106424940Y-111429328D01*
X109588034Y-111429328D01*
X109821489Y-111994334D01*
X110253393Y-112426991D01*
X110817990Y-112661433D01*
X111429328Y-112661966D01*
X111994334Y-112428511D01*
X112426991Y-111996607D01*
X112661433Y-111432010D01*
X112661966Y-110820672D01*
X112428511Y-110255666D01*
X111996607Y-109823009D01*
X111432010Y-109588567D01*
X110820672Y-109588034D01*
X110255666Y-109821489D01*
X109823009Y-110253393D01*
X109588567Y-110817990D01*
X109588034Y-111429328D01*
X106424940Y-111429328D01*
X101301136Y-106305524D01*
X102913600Y-106305524D01*
X103017661Y-106284825D01*
X103105879Y-106225879D01*
X103164825Y-106137661D01*
X103185524Y-106033600D01*
X103185524Y-104306400D01*
X103164825Y-104202339D01*
X103105879Y-104114121D01*
X103017661Y-104055175D01*
X102913600Y-104034476D01*
X101305538Y-104034476D01*
X101654066Y-103685948D01*
X102027856Y-103760300D01*
X102072144Y-103760300D01*
X102504691Y-103674261D01*
X102871387Y-103429243D01*
X103116405Y-103062547D01*
X103202444Y-102630000D01*
X103437556Y-102630000D01*
X103523595Y-103062547D01*
X103768613Y-103429243D01*
X104135309Y-103674261D01*
X104567856Y-103760300D01*
X104612144Y-103760300D01*
X105044691Y-103674261D01*
X105411387Y-103429243D01*
X105643696Y-103081566D01*
X105821423Y-103081566D01*
X105885374Y-103236010D01*
X106212026Y-103666178D01*
X106678431Y-103938597D01*
X106888700Y-103862952D01*
X106888700Y-102871300D01*
X107371300Y-102871300D01*
X107371300Y-103862952D01*
X107581569Y-103938597D01*
X108047974Y-103666178D01*
X108374626Y-103236010D01*
X108438577Y-103081566D01*
X108360692Y-102871300D01*
X107371300Y-102871300D01*
X106888700Y-102871300D01*
X105899308Y-102871300D01*
X105821423Y-103081566D01*
X105643696Y-103081566D01*
X105656405Y-103062547D01*
X105742444Y-102630000D01*
X108517556Y-102630000D01*
X108603595Y-103062547D01*
X108848613Y-103429243D01*
X109215309Y-103674261D01*
X109647856Y-103760300D01*
X109692144Y-103760300D01*
X110124691Y-103674261D01*
X110491387Y-103429243D01*
X110736405Y-103062547D01*
X110822444Y-102630000D01*
X111057556Y-102630000D01*
X111143595Y-103062547D01*
X111388613Y-103429243D01*
X111755309Y-103674261D01*
X112187856Y-103760300D01*
X112232144Y-103760300D01*
X112664691Y-103674261D01*
X113031387Y-103429243D01*
X113276405Y-103062547D01*
X113362444Y-102630000D01*
X113597556Y-102630000D01*
X113683595Y-103062547D01*
X113928613Y-103429243D01*
X114295309Y-103674261D01*
X114727856Y-103760300D01*
X114772144Y-103760300D01*
X115204691Y-103674261D01*
X115571387Y-103429243D01*
X115816405Y-103062547D01*
X115902444Y-102630000D01*
X116137556Y-102630000D01*
X116223595Y-103062547D01*
X116468613Y-103429243D01*
X116835309Y-103674261D01*
X117267856Y-103760300D01*
X117312144Y-103760300D01*
X117744691Y-103674261D01*
X118111387Y-103429243D01*
X118356405Y-103062547D01*
X118442444Y-102630000D01*
X118677556Y-102630000D01*
X118763595Y-103062547D01*
X119008613Y-103429243D01*
X119375309Y-103674261D01*
X119807856Y-103760300D01*
X119852144Y-103760300D01*
X120284691Y-103674261D01*
X120651387Y-103429243D01*
X120896405Y-103062547D01*
X120982444Y-102630000D01*
X121217556Y-102630000D01*
X121303595Y-103062547D01*
X121548613Y-103429243D01*
X121915309Y-103674261D01*
X122347856Y-103760300D01*
X122392144Y-103760300D01*
X122824691Y-103674261D01*
X123191387Y-103429243D01*
X123436405Y-103062547D01*
X123522444Y-102630000D01*
X123757556Y-102630000D01*
X123843595Y-103062547D01*
X124088613Y-103429243D01*
X124455309Y-103674261D01*
X124887856Y-103760300D01*
X124932144Y-103760300D01*
X125364691Y-103674261D01*
X125731387Y-103429243D01*
X125976405Y-103062547D01*
X126062444Y-102630000D01*
X126297556Y-102630000D01*
X126383595Y-103062547D01*
X126628613Y-103429243D01*
X126995309Y-103674261D01*
X127427856Y-103760300D01*
X127472144Y-103760300D01*
X127904691Y-103674261D01*
X128271387Y-103429243D01*
X128516405Y-103062547D01*
X128602444Y-102630000D01*
X128516405Y-102197453D01*
X128271387Y-101830757D01*
X127904691Y-101585739D01*
X127472144Y-101499700D01*
X127427856Y-101499700D01*
X126995309Y-101585739D01*
X126628613Y-101830757D01*
X126383595Y-102197453D01*
X126297556Y-102630000D01*
X126062444Y-102630000D01*
X125976405Y-102197453D01*
X125731387Y-101830757D01*
X125364691Y-101585739D01*
X124932144Y-101499700D01*
X124887856Y-101499700D01*
X124455309Y-101585739D01*
X124088613Y-101830757D01*
X123843595Y-102197453D01*
X123757556Y-102630000D01*
X123522444Y-102630000D01*
X123436405Y-102197453D01*
X123191387Y-101830757D01*
X122824691Y-101585739D01*
X122392144Y-101499700D01*
X122347856Y-101499700D01*
X121915309Y-101585739D01*
X121548613Y-101830757D01*
X121303595Y-102197453D01*
X121217556Y-102630000D01*
X120982444Y-102630000D01*
X120896405Y-102197453D01*
X120651387Y-101830757D01*
X120284691Y-101585739D01*
X119852144Y-101499700D01*
X119807856Y-101499700D01*
X119375309Y-101585739D01*
X119008613Y-101830757D01*
X118763595Y-102197453D01*
X118677556Y-102630000D01*
X118442444Y-102630000D01*
X118356405Y-102197453D01*
X118111387Y-101830757D01*
X117744691Y-101585739D01*
X117312144Y-101499700D01*
X117267856Y-101499700D01*
X116835309Y-101585739D01*
X116468613Y-101830757D01*
X116223595Y-102197453D01*
X116137556Y-102630000D01*
X115902444Y-102630000D01*
X115816405Y-102197453D01*
X115571387Y-101830757D01*
X115204691Y-101585739D01*
X114772144Y-101499700D01*
X114727856Y-101499700D01*
X114295309Y-101585739D01*
X113928613Y-101830757D01*
X113683595Y-102197453D01*
X113597556Y-102630000D01*
X113362444Y-102630000D01*
X113276405Y-102197453D01*
X113031387Y-101830757D01*
X112664691Y-101585739D01*
X112232144Y-101499700D01*
X112187856Y-101499700D01*
X111755309Y-101585739D01*
X111388613Y-101830757D01*
X111143595Y-102197453D01*
X111057556Y-102630000D01*
X110822444Y-102630000D01*
X110736405Y-102197453D01*
X110491387Y-101830757D01*
X110124691Y-101585739D01*
X109692144Y-101499700D01*
X109647856Y-101499700D01*
X109215309Y-101585739D01*
X108848613Y-101830757D01*
X108603595Y-102197453D01*
X108517556Y-102630000D01*
X105742444Y-102630000D01*
X105656405Y-102197453D01*
X105643697Y-102178434D01*
X105821423Y-102178434D01*
X105899308Y-102388700D01*
X106888700Y-102388700D01*
X106888700Y-101397048D01*
X107371300Y-101397048D01*
X107371300Y-102388700D01*
X108360692Y-102388700D01*
X108438577Y-102178434D01*
X108374626Y-102023990D01*
X108047974Y-101593822D01*
X107581569Y-101321403D01*
X107371300Y-101397048D01*
X106888700Y-101397048D01*
X106678431Y-101321403D01*
X106212026Y-101593822D01*
X105885374Y-102023990D01*
X105821423Y-102178434D01*
X105643697Y-102178434D01*
X105411387Y-101830757D01*
X105044691Y-101585739D01*
X104612144Y-101499700D01*
X104567856Y-101499700D01*
X104135309Y-101585739D01*
X103768613Y-101830757D01*
X103523595Y-102197453D01*
X103437556Y-102630000D01*
X103202444Y-102630000D01*
X103116405Y-102197453D01*
X102871387Y-101830757D01*
X102504691Y-101585739D01*
X102072144Y-101499700D01*
X102027856Y-101499700D01*
X101595309Y-101585739D01*
X101228613Y-101830757D01*
X100983595Y-102197453D01*
X100897556Y-102630000D01*
X100979255Y-103040731D01*
X100402392Y-103617594D01*
X100301224Y-103769002D01*
X100267490Y-103938597D01*
X100265699Y-103947601D01*
X100189100Y-103947601D01*
X100189100Y-100189100D01*
X139967900Y-100189100D01*
X139967900Y-113411000D01*
G36*
X121071721Y-132826279D02*
X121159939Y-132885225D01*
X121264000Y-132905924D01*
X122502062Y-132905924D01*
X122375910Y-133032076D01*
X121264000Y-133032076D01*
X121159939Y-133052775D01*
X121071721Y-133111721D01*
X121012775Y-133199939D01*
X120992076Y-133304000D01*
X120992076Y-133904000D01*
X121012775Y-134008061D01*
X121068457Y-134091395D01*
X120969047Y-134132572D01*
X120822572Y-134279047D01*
X120743300Y-134470427D01*
X120743300Y-134593825D01*
X120873475Y-134724000D01*
X121772700Y-134724000D01*
X121772700Y-134612700D01*
X122255300Y-134612700D01*
X122255300Y-134724000D01*
X122275300Y-134724000D01*
X122275300Y-135024000D01*
X122255300Y-135024000D01*
X122255300Y-135135300D01*
X121772700Y-135135300D01*
X121772700Y-135024000D01*
X120873475Y-135024000D01*
X120743300Y-135154175D01*
X120743300Y-135239270D01*
X114233017Y-135239270D01*
X116671587Y-132800700D01*
X121054629Y-132800700D01*
X121071721Y-132826279D01*
X121071721Y-132826279D01*
G37*
X121071721Y-132826279D02*
X121159939Y-132885225D01*
X121264000Y-132905924D01*
X122502062Y-132905924D01*
X122375910Y-133032076D01*
X121264000Y-133032076D01*
X121159939Y-133052775D01*
X121071721Y-133111721D01*
X121012775Y-133199939D01*
X120992076Y-133304000D01*
X120992076Y-133904000D01*
X121012775Y-134008061D01*
X121068457Y-134091395D01*
X120969047Y-134132572D01*
X120822572Y-134279047D01*
X120743300Y-134470427D01*
X120743300Y-134593825D01*
X120873475Y-134724000D01*
X121772700Y-134724000D01*
X121772700Y-134612700D01*
X122255300Y-134612700D01*
X122255300Y-134724000D01*
X122275300Y-134724000D01*
X122275300Y-135024000D01*
X122255300Y-135024000D01*
X122255300Y-135135300D01*
X121772700Y-135135300D01*
X121772700Y-135024000D01*
X120873475Y-135024000D01*
X120743300Y-135154175D01*
X120743300Y-135239270D01*
X114233017Y-135239270D01*
X116671587Y-132800700D01*
X121054629Y-132800700D01*
X121071721Y-132826279D01*
G36*
X128151301Y-112809315D02*
X128151301Y-125163300D01*
X127785475Y-125163300D01*
X127655300Y-125293475D01*
X127655300Y-125834000D01*
X127675300Y-125834000D01*
X127675300Y-126134000D01*
X127655300Y-126134000D01*
X127655300Y-127104000D01*
X127675300Y-127104000D01*
X127675300Y-127404000D01*
X127655300Y-127404000D01*
X127655300Y-127515300D01*
X127172700Y-127515300D01*
X127172700Y-127404000D01*
X126273475Y-127404000D01*
X126143300Y-127534175D01*
X126143300Y-127657573D01*
X126222572Y-127848953D01*
X126369047Y-127995428D01*
X126468457Y-128036605D01*
X126412775Y-128119939D01*
X126392076Y-128224000D01*
X126392076Y-128435910D01*
X123917962Y-130910024D01*
X123816794Y-131061432D01*
X123781269Y-131240031D01*
X123781269Y-134313919D01*
X123284700Y-134810488D01*
X123284700Y-134632698D01*
X123245827Y-134632698D01*
X123284700Y-134593825D01*
X123284700Y-134470427D01*
X123205428Y-134279047D01*
X123058953Y-134132572D01*
X122959543Y-134091395D01*
X123015225Y-134008061D01*
X123035924Y-133904000D01*
X123035924Y-133692090D01*
X123548005Y-133180008D01*
X123548008Y-133180006D01*
X123649176Y-133028597D01*
X123684701Y-132849999D01*
X123684701Y-126264175D01*
X126143300Y-126264175D01*
X126143300Y-126387573D01*
X126222572Y-126578953D01*
X126262619Y-126619000D01*
X126222572Y-126659047D01*
X126143300Y-126850427D01*
X126143300Y-126973825D01*
X126273475Y-127104000D01*
X127172700Y-127104000D01*
X127172700Y-126134000D01*
X126273475Y-126134000D01*
X126143300Y-126264175D01*
X123684701Y-126264175D01*
X123684701Y-125580427D01*
X126143300Y-125580427D01*
X126143300Y-125703825D01*
X126273475Y-125834000D01*
X127172700Y-125834000D01*
X127172700Y-125293475D01*
X127042525Y-125163300D01*
X126560426Y-125163300D01*
X126369047Y-125242572D01*
X126222572Y-125389047D01*
X126143300Y-125580427D01*
X123684701Y-125580427D01*
X123684701Y-120043001D01*
X123649176Y-119864403D01*
X123548008Y-119712994D01*
X123548005Y-119712992D01*
X112751345Y-108916331D01*
X124258317Y-108916331D01*
X128151301Y-112809315D01*
X128151301Y-112809315D01*
G37*
X128151301Y-112809315D02*
X128151301Y-125163300D01*
X127785475Y-125163300D01*
X127655300Y-125293475D01*
X127655300Y-125834000D01*
X127675300Y-125834000D01*
X127675300Y-126134000D01*
X127655300Y-126134000D01*
X127655300Y-127104000D01*
X127675300Y-127104000D01*
X127675300Y-127404000D01*
X127655300Y-127404000D01*
X127655300Y-127515300D01*
X127172700Y-127515300D01*
X127172700Y-127404000D01*
X126273475Y-127404000D01*
X126143300Y-127534175D01*
X126143300Y-127657573D01*
X126222572Y-127848953D01*
X126369047Y-127995428D01*
X126468457Y-128036605D01*
X126412775Y-128119939D01*
X126392076Y-128224000D01*
X126392076Y-128435910D01*
X123917962Y-130910024D01*
X123816794Y-131061432D01*
X123781269Y-131240031D01*
X123781269Y-134313919D01*
X123284700Y-134810488D01*
X123284700Y-134632698D01*
X123245827Y-134632698D01*
X123284700Y-134593825D01*
X123284700Y-134470427D01*
X123205428Y-134279047D01*
X123058953Y-134132572D01*
X122959543Y-134091395D01*
X123015225Y-134008061D01*
X123035924Y-133904000D01*
X123035924Y-133692090D01*
X123548005Y-133180008D01*
X123548008Y-133180006D01*
X123649176Y-133028597D01*
X123684701Y-132849999D01*
X123684701Y-126264175D01*
X126143300Y-126264175D01*
X126143300Y-126387573D01*
X126222572Y-126578953D01*
X126262619Y-126619000D01*
X126222572Y-126659047D01*
X126143300Y-126850427D01*
X126143300Y-126973825D01*
X126273475Y-127104000D01*
X127172700Y-127104000D01*
X127172700Y-126134000D01*
X126273475Y-126134000D01*
X126143300Y-126264175D01*
X123684701Y-126264175D01*
X123684701Y-125580427D01*
X126143300Y-125580427D01*
X126143300Y-125703825D01*
X126273475Y-125834000D01*
X127172700Y-125834000D01*
X127172700Y-125293475D01*
X127042525Y-125163300D01*
X126560426Y-125163300D01*
X126369047Y-125242572D01*
X126222572Y-125389047D01*
X126143300Y-125580427D01*
X123684701Y-125580427D01*
X123684701Y-120043001D01*
X123649176Y-119864403D01*
X123548008Y-119712994D01*
X123548005Y-119712992D01*
X112751345Y-108916331D01*
X124258317Y-108916331D01*
X128151301Y-112809315D01*
M02*
