G04 #@! TF.GenerationSoftware,KiCad,Pcbnew,no-vcs-found-7613~57~ubuntu16.04.1*
G04 #@! TF.CreationDate,2017-02-12T00:19:34-08:00*
G04 #@! TF.ProjectId,access-pi,6163636573732D70692E6B696361645F,rev?*
G04 #@! TF.FileFunction,Legend,Top*
G04 #@! TF.FilePolarity,Positive*
%FSLAX46Y46*%
G04 Gerber Fmt 4.6, Leading zero omitted, Abs format (unit mm)*
G04 Created by KiCad (PCBNEW no-vcs-found-7613~57~ubuntu16.04.1) date Sun Feb 12 00:19:34 2017*
%MOMM*%
%LPD*%
G01*
G04 APERTURE LIST*
%ADD10C,0.150000*%
%ADD11R,2.800000X2.800000*%
%ADD12O,2.800000X3.200000*%
%ADD13C,2.540000*%
%ADD14C,3.990000*%
%ADD15R,1.727200X1.727200*%
%ADD16O,1.727200X1.727200*%
%ADD17R,0.900000X1.200000*%
%ADD18R,1.200000X0.750000*%
%ADD19R,1.727200X2.032000*%
%ADD20O,1.727200X2.032000*%
%ADD21R,2.032000X1.727200*%
%ADD22O,2.032000X1.727200*%
%ADD23R,1.500000X0.600000*%
G04 APERTURE END LIST*
D10*
X113752000Y-147439000D02*
X113752000Y-146439000D01*
X115102000Y-146439000D02*
X115102000Y-147439000D01*
X116292000Y-147439000D02*
X116292000Y-146439000D01*
X117642000Y-146439000D02*
X117642000Y-147439000D01*
X127722000Y-147439000D02*
X127722000Y-146439000D01*
X129072000Y-146439000D02*
X129072000Y-147439000D01*
X130262000Y-147439000D02*
X130262000Y-146439000D01*
X131612000Y-146439000D02*
X131612000Y-147439000D01*
X141692000Y-147439000D02*
X141692000Y-146439000D01*
X143042000Y-146439000D02*
X143042000Y-147439000D01*
X144232000Y-147439000D02*
X144232000Y-146439000D01*
X145582000Y-146439000D02*
X145582000Y-147439000D01*
X113061000Y-142910000D02*
X113761000Y-142910000D01*
X113761000Y-144110000D02*
X113061000Y-144110000D01*
X118333000Y-144110000D02*
X117633000Y-144110000D01*
X117633000Y-142910000D02*
X118333000Y-142910000D01*
X127158000Y-142910000D02*
X127858000Y-142910000D01*
X127858000Y-144110000D02*
X127158000Y-144110000D01*
X132303000Y-144110000D02*
X131603000Y-144110000D01*
X131603000Y-142910000D02*
X132303000Y-142910000D01*
X141001000Y-142910000D02*
X141701000Y-142910000D01*
X141701000Y-144110000D02*
X141001000Y-144110000D01*
X146273000Y-144110000D02*
X145573000Y-144110000D01*
X145573000Y-142910000D02*
X146273000Y-142910000D01*
X154971000Y-142910000D02*
X155671000Y-142910000D01*
X155671000Y-144110000D02*
X154971000Y-144110000D01*
X160243000Y-144110000D02*
X159543000Y-144110000D01*
X159543000Y-142910000D02*
X160243000Y-142910000D01*
X155662000Y-147439000D02*
X155662000Y-146439000D01*
X157012000Y-146439000D02*
X157012000Y-147439000D01*
X158202000Y-147439000D02*
X158202000Y-146439000D01*
X159552000Y-146439000D02*
X159552000Y-147439000D01*
X112562000Y-146439000D02*
X112562000Y-147439000D01*
X111212000Y-147439000D02*
X111212000Y-146439000D01*
X120182000Y-146439000D02*
X120182000Y-147439000D01*
X118832000Y-147439000D02*
X118832000Y-146439000D01*
X126532000Y-146439000D02*
X126532000Y-147439000D01*
X125182000Y-147439000D02*
X125182000Y-146439000D01*
X134152000Y-146439000D02*
X134152000Y-147439000D01*
X132802000Y-147439000D02*
X132802000Y-146439000D01*
X140502000Y-146439000D02*
X140502000Y-147439000D01*
X139152000Y-147439000D02*
X139152000Y-146439000D01*
X148122000Y-146439000D02*
X148122000Y-147439000D01*
X146772000Y-147439000D02*
X146772000Y-146439000D01*
X154472000Y-146439000D02*
X154472000Y-147439000D01*
X153122000Y-147439000D02*
X153122000Y-146439000D01*
X162092000Y-146439000D02*
X162092000Y-147439000D01*
X160742000Y-147439000D02*
X160742000Y-146439000D01*
X126789000Y-135504000D02*
X126789000Y-135399000D01*
X122639000Y-135504000D02*
X122639000Y-135399000D01*
X122639000Y-125354000D02*
X122639000Y-125459000D01*
X126789000Y-125354000D02*
X126789000Y-125459000D01*
X126789000Y-135504000D02*
X122639000Y-135504000D01*
X126789000Y-125354000D02*
X122639000Y-125354000D01*
X126789000Y-135399000D02*
X128164000Y-135399000D01*
X113736380Y-147105666D02*
X113260190Y-147439000D01*
X113736380Y-147677095D02*
X112736380Y-147677095D01*
X112736380Y-147296142D01*
X112784000Y-147200904D01*
X112831619Y-147153285D01*
X112926857Y-147105666D01*
X113069714Y-147105666D01*
X113164952Y-147153285D01*
X113212571Y-147200904D01*
X113260190Y-147296142D01*
X113260190Y-147677095D01*
X113736380Y-146153285D02*
X113736380Y-146724714D01*
X113736380Y-146439000D02*
X112736380Y-146439000D01*
X112879238Y-146534238D01*
X112974476Y-146629476D01*
X113022095Y-146724714D01*
X118689380Y-147105666D02*
X118213190Y-147439000D01*
X118689380Y-147677095D02*
X117689380Y-147677095D01*
X117689380Y-147296142D01*
X117737000Y-147200904D01*
X117784619Y-147153285D01*
X117879857Y-147105666D01*
X118022714Y-147105666D01*
X118117952Y-147153285D01*
X118165571Y-147200904D01*
X118213190Y-147296142D01*
X118213190Y-147677095D01*
X117784619Y-146724714D02*
X117737000Y-146677095D01*
X117689380Y-146581857D01*
X117689380Y-146343761D01*
X117737000Y-146248523D01*
X117784619Y-146200904D01*
X117879857Y-146153285D01*
X117975095Y-146153285D01*
X118117952Y-146200904D01*
X118689380Y-146772333D01*
X118689380Y-146153285D01*
X127706380Y-147105666D02*
X127230190Y-147439000D01*
X127706380Y-147677095D02*
X126706380Y-147677095D01*
X126706380Y-147296142D01*
X126754000Y-147200904D01*
X126801619Y-147153285D01*
X126896857Y-147105666D01*
X127039714Y-147105666D01*
X127134952Y-147153285D01*
X127182571Y-147200904D01*
X127230190Y-147296142D01*
X127230190Y-147677095D01*
X126706380Y-146772333D02*
X126706380Y-146153285D01*
X127087333Y-146486619D01*
X127087333Y-146343761D01*
X127134952Y-146248523D01*
X127182571Y-146200904D01*
X127277809Y-146153285D01*
X127515904Y-146153285D01*
X127611142Y-146200904D01*
X127658761Y-146248523D01*
X127706380Y-146343761D01*
X127706380Y-146629476D01*
X127658761Y-146724714D01*
X127611142Y-146772333D01*
X132786380Y-146978666D02*
X132310190Y-147312000D01*
X132786380Y-147550095D02*
X131786380Y-147550095D01*
X131786380Y-147169142D01*
X131834000Y-147073904D01*
X131881619Y-147026285D01*
X131976857Y-146978666D01*
X132119714Y-146978666D01*
X132214952Y-147026285D01*
X132262571Y-147073904D01*
X132310190Y-147169142D01*
X132310190Y-147550095D01*
X132119714Y-146121523D02*
X132786380Y-146121523D01*
X131738761Y-146359619D02*
X132453047Y-146597714D01*
X132453047Y-145978666D01*
X141676380Y-147105666D02*
X141200190Y-147439000D01*
X141676380Y-147677095D02*
X140676380Y-147677095D01*
X140676380Y-147296142D01*
X140724000Y-147200904D01*
X140771619Y-147153285D01*
X140866857Y-147105666D01*
X141009714Y-147105666D01*
X141104952Y-147153285D01*
X141152571Y-147200904D01*
X141200190Y-147296142D01*
X141200190Y-147677095D01*
X140676380Y-146200904D02*
X140676380Y-146677095D01*
X141152571Y-146724714D01*
X141104952Y-146677095D01*
X141057333Y-146581857D01*
X141057333Y-146343761D01*
X141104952Y-146248523D01*
X141152571Y-146200904D01*
X141247809Y-146153285D01*
X141485904Y-146153285D01*
X141581142Y-146200904D01*
X141628761Y-146248523D01*
X141676380Y-146343761D01*
X141676380Y-146581857D01*
X141628761Y-146677095D01*
X141581142Y-146724714D01*
X146629380Y-147105666D02*
X146153190Y-147439000D01*
X146629380Y-147677095D02*
X145629380Y-147677095D01*
X145629380Y-147296142D01*
X145677000Y-147200904D01*
X145724619Y-147153285D01*
X145819857Y-147105666D01*
X145962714Y-147105666D01*
X146057952Y-147153285D01*
X146105571Y-147200904D01*
X146153190Y-147296142D01*
X146153190Y-147677095D01*
X145629380Y-146248523D02*
X145629380Y-146439000D01*
X145677000Y-146534238D01*
X145724619Y-146581857D01*
X145867476Y-146677095D01*
X146057952Y-146724714D01*
X146438904Y-146724714D01*
X146534142Y-146677095D01*
X146581761Y-146629476D01*
X146629380Y-146534238D01*
X146629380Y-146343761D01*
X146581761Y-146248523D01*
X146534142Y-146200904D01*
X146438904Y-146153285D01*
X146200809Y-146153285D01*
X146105571Y-146200904D01*
X146057952Y-146248523D01*
X146010333Y-146343761D01*
X146010333Y-146534238D01*
X146057952Y-146629476D01*
X146105571Y-146677095D01*
X146200809Y-146724714D01*
X113244333Y-142724142D02*
X113196714Y-142771761D01*
X113053857Y-142819380D01*
X112958619Y-142819380D01*
X112815761Y-142771761D01*
X112720523Y-142676523D01*
X112672904Y-142581285D01*
X112625285Y-142390809D01*
X112625285Y-142247952D01*
X112672904Y-142057476D01*
X112720523Y-141962238D01*
X112815761Y-141867000D01*
X112958619Y-141819380D01*
X113053857Y-141819380D01*
X113196714Y-141867000D01*
X113244333Y-141914619D01*
X114196714Y-142819380D02*
X113625285Y-142819380D01*
X113911000Y-142819380D02*
X113911000Y-141819380D01*
X113815761Y-141962238D01*
X113720523Y-142057476D01*
X113625285Y-142105095D01*
X117816333Y-142724142D02*
X117768714Y-142771761D01*
X117625857Y-142819380D01*
X117530619Y-142819380D01*
X117387761Y-142771761D01*
X117292523Y-142676523D01*
X117244904Y-142581285D01*
X117197285Y-142390809D01*
X117197285Y-142247952D01*
X117244904Y-142057476D01*
X117292523Y-141962238D01*
X117387761Y-141867000D01*
X117530619Y-141819380D01*
X117625857Y-141819380D01*
X117768714Y-141867000D01*
X117816333Y-141914619D01*
X118197285Y-141914619D02*
X118244904Y-141867000D01*
X118340142Y-141819380D01*
X118578238Y-141819380D01*
X118673476Y-141867000D01*
X118721095Y-141914619D01*
X118768714Y-142009857D01*
X118768714Y-142105095D01*
X118721095Y-142247952D01*
X118149666Y-142819380D01*
X118768714Y-142819380D01*
X127341333Y-142724142D02*
X127293714Y-142771761D01*
X127150857Y-142819380D01*
X127055619Y-142819380D01*
X126912761Y-142771761D01*
X126817523Y-142676523D01*
X126769904Y-142581285D01*
X126722285Y-142390809D01*
X126722285Y-142247952D01*
X126769904Y-142057476D01*
X126817523Y-141962238D01*
X126912761Y-141867000D01*
X127055619Y-141819380D01*
X127150857Y-141819380D01*
X127293714Y-141867000D01*
X127341333Y-141914619D01*
X127674666Y-141819380D02*
X128293714Y-141819380D01*
X127960380Y-142200333D01*
X128103238Y-142200333D01*
X128198476Y-142247952D01*
X128246095Y-142295571D01*
X128293714Y-142390809D01*
X128293714Y-142628904D01*
X128246095Y-142724142D01*
X128198476Y-142771761D01*
X128103238Y-142819380D01*
X127817523Y-142819380D01*
X127722285Y-142771761D01*
X127674666Y-142724142D01*
X131786333Y-142724142D02*
X131738714Y-142771761D01*
X131595857Y-142819380D01*
X131500619Y-142819380D01*
X131357761Y-142771761D01*
X131262523Y-142676523D01*
X131214904Y-142581285D01*
X131167285Y-142390809D01*
X131167285Y-142247952D01*
X131214904Y-142057476D01*
X131262523Y-141962238D01*
X131357761Y-141867000D01*
X131500619Y-141819380D01*
X131595857Y-141819380D01*
X131738714Y-141867000D01*
X131786333Y-141914619D01*
X132643476Y-142152714D02*
X132643476Y-142819380D01*
X132405380Y-141771761D02*
X132167285Y-142486047D01*
X132786333Y-142486047D01*
X141184333Y-142724142D02*
X141136714Y-142771761D01*
X140993857Y-142819380D01*
X140898619Y-142819380D01*
X140755761Y-142771761D01*
X140660523Y-142676523D01*
X140612904Y-142581285D01*
X140565285Y-142390809D01*
X140565285Y-142247952D01*
X140612904Y-142057476D01*
X140660523Y-141962238D01*
X140755761Y-141867000D01*
X140898619Y-141819380D01*
X140993857Y-141819380D01*
X141136714Y-141867000D01*
X141184333Y-141914619D01*
X142089095Y-141819380D02*
X141612904Y-141819380D01*
X141565285Y-142295571D01*
X141612904Y-142247952D01*
X141708142Y-142200333D01*
X141946238Y-142200333D01*
X142041476Y-142247952D01*
X142089095Y-142295571D01*
X142136714Y-142390809D01*
X142136714Y-142628904D01*
X142089095Y-142724142D01*
X142041476Y-142771761D01*
X141946238Y-142819380D01*
X141708142Y-142819380D01*
X141612904Y-142771761D01*
X141565285Y-142724142D01*
X145756333Y-142724142D02*
X145708714Y-142771761D01*
X145565857Y-142819380D01*
X145470619Y-142819380D01*
X145327761Y-142771761D01*
X145232523Y-142676523D01*
X145184904Y-142581285D01*
X145137285Y-142390809D01*
X145137285Y-142247952D01*
X145184904Y-142057476D01*
X145232523Y-141962238D01*
X145327761Y-141867000D01*
X145470619Y-141819380D01*
X145565857Y-141819380D01*
X145708714Y-141867000D01*
X145756333Y-141914619D01*
X146613476Y-141819380D02*
X146423000Y-141819380D01*
X146327761Y-141867000D01*
X146280142Y-141914619D01*
X146184904Y-142057476D01*
X146137285Y-142247952D01*
X146137285Y-142628904D01*
X146184904Y-142724142D01*
X146232523Y-142771761D01*
X146327761Y-142819380D01*
X146518238Y-142819380D01*
X146613476Y-142771761D01*
X146661095Y-142724142D01*
X146708714Y-142628904D01*
X146708714Y-142390809D01*
X146661095Y-142295571D01*
X146613476Y-142247952D01*
X146518238Y-142200333D01*
X146327761Y-142200333D01*
X146232523Y-142247952D01*
X146184904Y-142295571D01*
X146137285Y-142390809D01*
X155154333Y-142724142D02*
X155106714Y-142771761D01*
X154963857Y-142819380D01*
X154868619Y-142819380D01*
X154725761Y-142771761D01*
X154630523Y-142676523D01*
X154582904Y-142581285D01*
X154535285Y-142390809D01*
X154535285Y-142247952D01*
X154582904Y-142057476D01*
X154630523Y-141962238D01*
X154725761Y-141867000D01*
X154868619Y-141819380D01*
X154963857Y-141819380D01*
X155106714Y-141867000D01*
X155154333Y-141914619D01*
X155487666Y-141819380D02*
X156154333Y-141819380D01*
X155725761Y-142819380D01*
X159726333Y-142724142D02*
X159678714Y-142771761D01*
X159535857Y-142819380D01*
X159440619Y-142819380D01*
X159297761Y-142771761D01*
X159202523Y-142676523D01*
X159154904Y-142581285D01*
X159107285Y-142390809D01*
X159107285Y-142247952D01*
X159154904Y-142057476D01*
X159202523Y-141962238D01*
X159297761Y-141867000D01*
X159440619Y-141819380D01*
X159535857Y-141819380D01*
X159678714Y-141867000D01*
X159726333Y-141914619D01*
X160297761Y-142247952D02*
X160202523Y-142200333D01*
X160154904Y-142152714D01*
X160107285Y-142057476D01*
X160107285Y-142009857D01*
X160154904Y-141914619D01*
X160202523Y-141867000D01*
X160297761Y-141819380D01*
X160488238Y-141819380D01*
X160583476Y-141867000D01*
X160631095Y-141914619D01*
X160678714Y-142009857D01*
X160678714Y-142057476D01*
X160631095Y-142152714D01*
X160583476Y-142200333D01*
X160488238Y-142247952D01*
X160297761Y-142247952D01*
X160202523Y-142295571D01*
X160154904Y-142343190D01*
X160107285Y-142438428D01*
X160107285Y-142628904D01*
X160154904Y-142724142D01*
X160202523Y-142771761D01*
X160297761Y-142819380D01*
X160488238Y-142819380D01*
X160583476Y-142771761D01*
X160631095Y-142724142D01*
X160678714Y-142628904D01*
X160678714Y-142438428D01*
X160631095Y-142343190D01*
X160583476Y-142295571D01*
X160488238Y-142247952D01*
X155646380Y-147105666D02*
X155170190Y-147439000D01*
X155646380Y-147677095D02*
X154646380Y-147677095D01*
X154646380Y-147296142D01*
X154694000Y-147200904D01*
X154741619Y-147153285D01*
X154836857Y-147105666D01*
X154979714Y-147105666D01*
X155074952Y-147153285D01*
X155122571Y-147200904D01*
X155170190Y-147296142D01*
X155170190Y-147677095D01*
X154646380Y-146772333D02*
X154646380Y-146105666D01*
X155646380Y-146534238D01*
X160599380Y-147105666D02*
X160123190Y-147439000D01*
X160599380Y-147677095D02*
X159599380Y-147677095D01*
X159599380Y-147296142D01*
X159647000Y-147200904D01*
X159694619Y-147153285D01*
X159789857Y-147105666D01*
X159932714Y-147105666D01*
X160027952Y-147153285D01*
X160075571Y-147200904D01*
X160123190Y-147296142D01*
X160123190Y-147677095D01*
X160027952Y-146534238D02*
X159980333Y-146629476D01*
X159932714Y-146677095D01*
X159837476Y-146724714D01*
X159789857Y-146724714D01*
X159694619Y-146677095D01*
X159647000Y-146629476D01*
X159599380Y-146534238D01*
X159599380Y-146343761D01*
X159647000Y-146248523D01*
X159694619Y-146200904D01*
X159789857Y-146153285D01*
X159837476Y-146153285D01*
X159932714Y-146200904D01*
X159980333Y-146248523D01*
X160027952Y-146343761D01*
X160027952Y-146534238D01*
X160075571Y-146629476D01*
X160123190Y-146677095D01*
X160218428Y-146724714D01*
X160408904Y-146724714D01*
X160504142Y-146677095D01*
X160551761Y-146629476D01*
X160599380Y-146534238D01*
X160599380Y-146343761D01*
X160551761Y-146248523D01*
X160504142Y-146200904D01*
X160408904Y-146153285D01*
X160218428Y-146153285D01*
X160123190Y-146200904D01*
X160075571Y-146248523D01*
X160027952Y-146343761D01*
X111069380Y-147105666D02*
X110593190Y-147439000D01*
X111069380Y-147677095D02*
X110069380Y-147677095D01*
X110069380Y-147296142D01*
X110117000Y-147200904D01*
X110164619Y-147153285D01*
X110259857Y-147105666D01*
X110402714Y-147105666D01*
X110497952Y-147153285D01*
X110545571Y-147200904D01*
X110593190Y-147296142D01*
X110593190Y-147677095D01*
X111069380Y-146629476D02*
X111069380Y-146439000D01*
X111021761Y-146343761D01*
X110974142Y-146296142D01*
X110831285Y-146200904D01*
X110640809Y-146153285D01*
X110259857Y-146153285D01*
X110164619Y-146200904D01*
X110117000Y-146248523D01*
X110069380Y-146343761D01*
X110069380Y-146534238D01*
X110117000Y-146629476D01*
X110164619Y-146677095D01*
X110259857Y-146724714D01*
X110497952Y-146724714D01*
X110593190Y-146677095D01*
X110640809Y-146629476D01*
X110688428Y-146534238D01*
X110688428Y-146343761D01*
X110640809Y-146248523D01*
X110593190Y-146200904D01*
X110497952Y-146153285D01*
X121356380Y-147581857D02*
X120880190Y-147915190D01*
X121356380Y-148153285D02*
X120356380Y-148153285D01*
X120356380Y-147772333D01*
X120404000Y-147677095D01*
X120451619Y-147629476D01*
X120546857Y-147581857D01*
X120689714Y-147581857D01*
X120784952Y-147629476D01*
X120832571Y-147677095D01*
X120880190Y-147772333D01*
X120880190Y-148153285D01*
X121356380Y-146629476D02*
X121356380Y-147200904D01*
X121356380Y-146915190D02*
X120356380Y-146915190D01*
X120499238Y-147010428D01*
X120594476Y-147105666D01*
X120642095Y-147200904D01*
X120356380Y-146010428D02*
X120356380Y-145915190D01*
X120404000Y-145819952D01*
X120451619Y-145772333D01*
X120546857Y-145724714D01*
X120737333Y-145677095D01*
X120975428Y-145677095D01*
X121165904Y-145724714D01*
X121261142Y-145772333D01*
X121308761Y-145819952D01*
X121356380Y-145915190D01*
X121356380Y-146010428D01*
X121308761Y-146105666D01*
X121261142Y-146153285D01*
X121165904Y-146200904D01*
X120975428Y-146248523D01*
X120737333Y-146248523D01*
X120546857Y-146200904D01*
X120451619Y-146153285D01*
X120404000Y-146105666D01*
X120356380Y-146010428D01*
X125039380Y-147581857D02*
X124563190Y-147915190D01*
X125039380Y-148153285D02*
X124039380Y-148153285D01*
X124039380Y-147772333D01*
X124087000Y-147677095D01*
X124134619Y-147629476D01*
X124229857Y-147581857D01*
X124372714Y-147581857D01*
X124467952Y-147629476D01*
X124515571Y-147677095D01*
X124563190Y-147772333D01*
X124563190Y-148153285D01*
X125039380Y-146629476D02*
X125039380Y-147200904D01*
X125039380Y-146915190D02*
X124039380Y-146915190D01*
X124182238Y-147010428D01*
X124277476Y-147105666D01*
X124325095Y-147200904D01*
X125039380Y-145677095D02*
X125039380Y-146248523D01*
X125039380Y-145962809D02*
X124039380Y-145962809D01*
X124182238Y-146058047D01*
X124277476Y-146153285D01*
X124325095Y-146248523D01*
X135326380Y-147581857D02*
X134850190Y-147915190D01*
X135326380Y-148153285D02*
X134326380Y-148153285D01*
X134326380Y-147772333D01*
X134374000Y-147677095D01*
X134421619Y-147629476D01*
X134516857Y-147581857D01*
X134659714Y-147581857D01*
X134754952Y-147629476D01*
X134802571Y-147677095D01*
X134850190Y-147772333D01*
X134850190Y-148153285D01*
X135326380Y-146629476D02*
X135326380Y-147200904D01*
X135326380Y-146915190D02*
X134326380Y-146915190D01*
X134469238Y-147010428D01*
X134564476Y-147105666D01*
X134612095Y-147200904D01*
X134421619Y-146248523D02*
X134374000Y-146200904D01*
X134326380Y-146105666D01*
X134326380Y-145867571D01*
X134374000Y-145772333D01*
X134421619Y-145724714D01*
X134516857Y-145677095D01*
X134612095Y-145677095D01*
X134754952Y-145724714D01*
X135326380Y-146296142D01*
X135326380Y-145677095D01*
X139009380Y-147581857D02*
X138533190Y-147915190D01*
X139009380Y-148153285D02*
X138009380Y-148153285D01*
X138009380Y-147772333D01*
X138057000Y-147677095D01*
X138104619Y-147629476D01*
X138199857Y-147581857D01*
X138342714Y-147581857D01*
X138437952Y-147629476D01*
X138485571Y-147677095D01*
X138533190Y-147772333D01*
X138533190Y-148153285D01*
X139009380Y-146629476D02*
X139009380Y-147200904D01*
X139009380Y-146915190D02*
X138009380Y-146915190D01*
X138152238Y-147010428D01*
X138247476Y-147105666D01*
X138295095Y-147200904D01*
X138009380Y-146296142D02*
X138009380Y-145677095D01*
X138390333Y-146010428D01*
X138390333Y-145867571D01*
X138437952Y-145772333D01*
X138485571Y-145724714D01*
X138580809Y-145677095D01*
X138818904Y-145677095D01*
X138914142Y-145724714D01*
X138961761Y-145772333D01*
X139009380Y-145867571D01*
X139009380Y-146153285D01*
X138961761Y-146248523D01*
X138914142Y-146296142D01*
X149169380Y-147581857D02*
X148693190Y-147915190D01*
X149169380Y-148153285D02*
X148169380Y-148153285D01*
X148169380Y-147772333D01*
X148217000Y-147677095D01*
X148264619Y-147629476D01*
X148359857Y-147581857D01*
X148502714Y-147581857D01*
X148597952Y-147629476D01*
X148645571Y-147677095D01*
X148693190Y-147772333D01*
X148693190Y-148153285D01*
X149169380Y-146629476D02*
X149169380Y-147200904D01*
X149169380Y-146915190D02*
X148169380Y-146915190D01*
X148312238Y-147010428D01*
X148407476Y-147105666D01*
X148455095Y-147200904D01*
X148502714Y-145772333D02*
X149169380Y-145772333D01*
X148121761Y-146010428D02*
X148836047Y-146248523D01*
X148836047Y-145629476D01*
X152979380Y-147581857D02*
X152503190Y-147915190D01*
X152979380Y-148153285D02*
X151979380Y-148153285D01*
X151979380Y-147772333D01*
X152027000Y-147677095D01*
X152074619Y-147629476D01*
X152169857Y-147581857D01*
X152312714Y-147581857D01*
X152407952Y-147629476D01*
X152455571Y-147677095D01*
X152503190Y-147772333D01*
X152503190Y-148153285D01*
X152979380Y-146629476D02*
X152979380Y-147200904D01*
X152979380Y-146915190D02*
X151979380Y-146915190D01*
X152122238Y-147010428D01*
X152217476Y-147105666D01*
X152265095Y-147200904D01*
X151979380Y-145724714D02*
X151979380Y-146200904D01*
X152455571Y-146248523D01*
X152407952Y-146200904D01*
X152360333Y-146105666D01*
X152360333Y-145867571D01*
X152407952Y-145772333D01*
X152455571Y-145724714D01*
X152550809Y-145677095D01*
X152788904Y-145677095D01*
X152884142Y-145724714D01*
X152931761Y-145772333D01*
X152979380Y-145867571D01*
X152979380Y-146105666D01*
X152931761Y-146200904D01*
X152884142Y-146248523D01*
X163139380Y-147581857D02*
X162663190Y-147915190D01*
X163139380Y-148153285D02*
X162139380Y-148153285D01*
X162139380Y-147772333D01*
X162187000Y-147677095D01*
X162234619Y-147629476D01*
X162329857Y-147581857D01*
X162472714Y-147581857D01*
X162567952Y-147629476D01*
X162615571Y-147677095D01*
X162663190Y-147772333D01*
X162663190Y-148153285D01*
X163139380Y-146629476D02*
X163139380Y-147200904D01*
X163139380Y-146915190D02*
X162139380Y-146915190D01*
X162282238Y-147010428D01*
X162377476Y-147105666D01*
X162425095Y-147200904D01*
X162139380Y-145772333D02*
X162139380Y-145962809D01*
X162187000Y-146058047D01*
X162234619Y-146105666D01*
X162377476Y-146200904D01*
X162567952Y-146248523D01*
X162948904Y-146248523D01*
X163044142Y-146200904D01*
X163091761Y-146153285D01*
X163139380Y-146058047D01*
X163139380Y-145867571D01*
X163091761Y-145772333D01*
X163044142Y-145724714D01*
X162948904Y-145677095D01*
X162710809Y-145677095D01*
X162615571Y-145724714D01*
X162567952Y-145772333D01*
X162520333Y-145867571D01*
X162520333Y-146058047D01*
X162567952Y-146153285D01*
X162615571Y-146200904D01*
X162710809Y-146248523D01*
X129159095Y-134326380D02*
X129159095Y-135135904D01*
X129206714Y-135231142D01*
X129254333Y-135278761D01*
X129349571Y-135326380D01*
X129540047Y-135326380D01*
X129635285Y-135278761D01*
X129682904Y-135231142D01*
X129730523Y-135135904D01*
X129730523Y-134326380D01*
X130730523Y-135326380D02*
X130159095Y-135326380D01*
X130444809Y-135326380D02*
X130444809Y-134326380D01*
X130349571Y-134469238D01*
X130254333Y-134564476D01*
X130159095Y-134612095D01*
%LPC*%
D11*
X113665000Y-128905000D03*
D12*
X113665000Y-123825000D03*
X113665000Y-118745000D03*
X113665000Y-113665000D03*
D13*
X111125000Y-131445000D03*
X111125000Y-111125000D03*
D14*
X103505000Y-126365000D03*
X103505000Y-116205000D03*
D15*
X102050000Y-105170000D03*
D16*
X102050000Y-102630000D03*
X104590000Y-105170000D03*
X104590000Y-102630000D03*
X107130000Y-105170000D03*
X107130000Y-102630000D03*
X109670000Y-105170000D03*
X109670000Y-102630000D03*
X112210000Y-105170000D03*
X112210000Y-102630000D03*
X114750000Y-105170000D03*
X114750000Y-102630000D03*
X117290000Y-105170000D03*
X117290000Y-102630000D03*
X119830000Y-105170000D03*
X119830000Y-102630000D03*
X122370000Y-105170000D03*
X122370000Y-102630000D03*
X124910000Y-105170000D03*
X124910000Y-102630000D03*
X127450000Y-105170000D03*
X127450000Y-102630000D03*
X129990000Y-105170000D03*
X129990000Y-102630000D03*
X132530000Y-105170000D03*
X132530000Y-102630000D03*
D17*
X114427000Y-145839000D03*
X114427000Y-148039000D03*
X116967000Y-145839000D03*
X116967000Y-148039000D03*
X128397000Y-145839000D03*
X128397000Y-148039000D03*
X130937000Y-145839000D03*
X130937000Y-148039000D03*
X142367000Y-145839000D03*
X142367000Y-148039000D03*
X144907000Y-145839000D03*
X144907000Y-148039000D03*
D18*
X112461000Y-143510000D03*
X114361000Y-143510000D03*
X118933000Y-143510000D03*
X117033000Y-143510000D03*
X126558000Y-143510000D03*
X128458000Y-143510000D03*
X132903000Y-143510000D03*
X131003000Y-143510000D03*
X140401000Y-143510000D03*
X142301000Y-143510000D03*
X146873000Y-143510000D03*
X144973000Y-143510000D03*
X154371000Y-143510000D03*
X156271000Y-143510000D03*
X160843000Y-143510000D03*
X158943000Y-143510000D03*
D19*
X109347000Y-151892000D03*
D20*
X111887000Y-151892000D03*
X114427000Y-151892000D03*
X116967000Y-151892000D03*
X119507000Y-151892000D03*
D19*
X123317000Y-151892000D03*
D20*
X125857000Y-151892000D03*
X128397000Y-151892000D03*
X130937000Y-151892000D03*
X133477000Y-151892000D03*
D19*
X137287000Y-151892000D03*
D20*
X139827000Y-151892000D03*
X142367000Y-151892000D03*
X144907000Y-151892000D03*
X147447000Y-151892000D03*
D19*
X151257000Y-151892000D03*
D20*
X153797000Y-151892000D03*
X156337000Y-151892000D03*
X158877000Y-151892000D03*
X161417000Y-151892000D03*
D21*
X104140000Y-137414000D03*
D22*
X104140000Y-139954000D03*
X104140000Y-142494000D03*
X104140000Y-145034000D03*
X104140000Y-147574000D03*
X104140000Y-150114000D03*
D17*
X156337000Y-145839000D03*
X156337000Y-148039000D03*
X158877000Y-145839000D03*
X158877000Y-148039000D03*
X111887000Y-148039000D03*
X111887000Y-145839000D03*
X119507000Y-148039000D03*
X119507000Y-145839000D03*
X125857000Y-148039000D03*
X125857000Y-145839000D03*
X133477000Y-148039000D03*
X133477000Y-145839000D03*
X139827000Y-148039000D03*
X139827000Y-145839000D03*
X147447000Y-148039000D03*
X147447000Y-145839000D03*
X153797000Y-148039000D03*
X153797000Y-145839000D03*
X161417000Y-148039000D03*
X161417000Y-145839000D03*
D23*
X127414000Y-134874000D03*
X127414000Y-133604000D03*
X127414000Y-132334000D03*
X127414000Y-131064000D03*
X127414000Y-129794000D03*
X127414000Y-128524000D03*
X127414000Y-127254000D03*
X127414000Y-125984000D03*
X122014000Y-125984000D03*
X122014000Y-127254000D03*
X122014000Y-128524000D03*
X122014000Y-129794000D03*
X122014000Y-131064000D03*
X122014000Y-132334000D03*
X122014000Y-133604000D03*
X122014000Y-134874000D03*
D21*
X153479500Y-128016000D03*
D22*
X153479500Y-125476000D03*
X153479500Y-122936000D03*
X153479500Y-120396000D03*
X153479500Y-117856000D03*
X153479500Y-115316000D03*
X153479500Y-112776000D03*
X153479500Y-110236000D03*
M02*
