G04 #@! TF.GenerationSoftware,KiCad,Pcbnew,no-vcs-found-7613~57~ubuntu16.04.1*
G04 #@! TF.CreationDate,2017-02-12T00:19:34-08:00*
G04 #@! TF.ProjectId,access-pi,6163636573732D70692E6B696361645F,rev?*
G04 #@! TF.FileFunction,Legend,Bot*
G04 #@! TF.FilePolarity,Positive*
%FSLAX46Y46*%
G04 Gerber Fmt 4.6, Leading zero omitted, Abs format (unit mm)*
G04 Created by KiCad (PCBNEW no-vcs-found-7613~57~ubuntu16.04.1) date Sun Feb 12 00:19:34 2017*
%MOMM*%
%LPD*%
G01*
G04 APERTURE LIST*
%ADD10C,0.150000*%
%ADD11R,2.800000X2.800000*%
%ADD12O,2.800000X3.200000*%
%ADD13C,2.540000*%
%ADD14C,3.990000*%
%ADD15R,1.727200X1.727200*%
%ADD16O,1.727200X1.727200*%
%ADD17R,1.727200X2.032000*%
%ADD18O,1.727200X2.032000*%
%ADD19R,2.032000X1.727200*%
%ADD20O,2.032000X1.727200*%
G04 APERTURE END LIST*
D10*
X111252000Y-112903000D02*
X111252000Y-129667000D01*
X111506000Y-112903000D02*
X111252000Y-112903000D01*
X111506000Y-129667000D02*
X111506000Y-112903000D01*
X111379000Y-129667000D02*
X111379000Y-112903000D01*
X111633000Y-112903000D02*
X111125000Y-112903000D01*
X111633000Y-129667000D02*
X111633000Y-112903000D01*
X111125000Y-129667000D02*
X111633000Y-129667000D01*
X100965000Y-129159000D02*
X111125000Y-129159000D01*
X100965000Y-128651000D02*
X100965000Y-129159000D01*
X111125000Y-128651000D02*
X100965000Y-128651000D01*
X100965000Y-124079000D02*
X111125000Y-124079000D01*
X100965000Y-123571000D02*
X100965000Y-124079000D01*
X111125000Y-123571000D02*
X100965000Y-123571000D01*
X100965000Y-118999000D02*
X111125000Y-118999000D01*
X100965000Y-118491000D02*
X100965000Y-118999000D01*
X111125000Y-118491000D02*
X100965000Y-118491000D01*
X100965000Y-113919000D02*
X111125000Y-113919000D01*
X100965000Y-113411000D02*
X100965000Y-113919000D01*
X111125000Y-113411000D02*
X100965000Y-113411000D01*
X111125000Y-129667000D02*
X111125000Y-112903000D01*
X115596000Y-130840000D02*
X114046000Y-130840000D01*
X115596000Y-129540000D02*
X115596000Y-130840000D01*
X100780000Y-101360000D02*
X133800000Y-101360000D01*
X103320000Y-106440000D02*
X133800000Y-106440000D01*
X133800000Y-101360000D02*
X133800000Y-106440000D01*
X100780000Y-101360000D02*
X100780000Y-103900000D01*
X102050000Y-106720000D02*
X100500000Y-106720000D01*
X100780000Y-103900000D02*
X103320000Y-103900000D01*
X103320000Y-103900000D02*
X103320000Y-106440000D01*
X100500000Y-106720000D02*
X100500000Y-105170000D01*
X107797000Y-150592000D02*
X109347000Y-150592000D01*
X107797000Y-151892000D02*
X107797000Y-150592000D01*
X109220000Y-156083000D02*
X109220000Y-161925000D01*
X109220000Y-161925000D02*
X109474000Y-161925000D01*
X109474000Y-161925000D02*
X109474000Y-156083000D01*
X109474000Y-156083000D02*
X109347000Y-156083000D01*
X109347000Y-156083000D02*
X109347000Y-161925000D01*
X109093000Y-153416000D02*
X109093000Y-153035000D01*
X109601000Y-153416000D02*
X109601000Y-153035000D01*
X111633000Y-153416000D02*
X111633000Y-153035000D01*
X112141000Y-153416000D02*
X112141000Y-153035000D01*
X114173000Y-153416000D02*
X114173000Y-153035000D01*
X114681000Y-153416000D02*
X114681000Y-153035000D01*
X116713000Y-153416000D02*
X116713000Y-153035000D01*
X117221000Y-153416000D02*
X117221000Y-153035000D01*
X119761000Y-153416000D02*
X119761000Y-153035000D01*
X119253000Y-153416000D02*
X119253000Y-153035000D01*
X110617000Y-155956000D02*
X108077000Y-155956000D01*
X109601000Y-162052000D02*
X109601000Y-155956000D01*
X109093000Y-162052000D02*
X109601000Y-162052000D01*
X109093000Y-155956000D02*
X109093000Y-162052000D01*
X110617000Y-153416000D02*
X110617000Y-155956000D01*
X108077000Y-153416000D02*
X110617000Y-153416000D01*
X108077000Y-153416000D02*
X108077000Y-155956000D01*
X113157000Y-153416000D02*
X113157000Y-155956000D01*
X113157000Y-153416000D02*
X115697000Y-153416000D01*
X115697000Y-153416000D02*
X115697000Y-155956000D01*
X114173000Y-155956000D02*
X114173000Y-162052000D01*
X114173000Y-162052000D02*
X114681000Y-162052000D01*
X114681000Y-162052000D02*
X114681000Y-155956000D01*
X115697000Y-155956000D02*
X113157000Y-155956000D01*
X113157000Y-155956000D02*
X110617000Y-155956000D01*
X112141000Y-162052000D02*
X112141000Y-155956000D01*
X111633000Y-162052000D02*
X112141000Y-162052000D01*
X111633000Y-155956000D02*
X111633000Y-162052000D01*
X113157000Y-153416000D02*
X113157000Y-155956000D01*
X110617000Y-153416000D02*
X113157000Y-153416000D01*
X110617000Y-153416000D02*
X110617000Y-155956000D01*
X118237000Y-153416000D02*
X118237000Y-155956000D01*
X118237000Y-153416000D02*
X120777000Y-153416000D01*
X120777000Y-153416000D02*
X120777000Y-155956000D01*
X119253000Y-155956000D02*
X119253000Y-162052000D01*
X119253000Y-162052000D02*
X119761000Y-162052000D01*
X119761000Y-162052000D02*
X119761000Y-155956000D01*
X120777000Y-155956000D02*
X118237000Y-155956000D01*
X118237000Y-155956000D02*
X115697000Y-155956000D01*
X117221000Y-162052000D02*
X117221000Y-155956000D01*
X116713000Y-162052000D02*
X117221000Y-162052000D01*
X116713000Y-155956000D02*
X116713000Y-162052000D01*
X118237000Y-153416000D02*
X118237000Y-155956000D01*
X115697000Y-153416000D02*
X118237000Y-153416000D01*
X115697000Y-153416000D02*
X115697000Y-155956000D01*
X121767000Y-150592000D02*
X123317000Y-150592000D01*
X121767000Y-151892000D02*
X121767000Y-150592000D01*
X123190000Y-156083000D02*
X123190000Y-161925000D01*
X123190000Y-161925000D02*
X123444000Y-161925000D01*
X123444000Y-161925000D02*
X123444000Y-156083000D01*
X123444000Y-156083000D02*
X123317000Y-156083000D01*
X123317000Y-156083000D02*
X123317000Y-161925000D01*
X123063000Y-153416000D02*
X123063000Y-153035000D01*
X123571000Y-153416000D02*
X123571000Y-153035000D01*
X125603000Y-153416000D02*
X125603000Y-153035000D01*
X126111000Y-153416000D02*
X126111000Y-153035000D01*
X128143000Y-153416000D02*
X128143000Y-153035000D01*
X128651000Y-153416000D02*
X128651000Y-153035000D01*
X130683000Y-153416000D02*
X130683000Y-153035000D01*
X131191000Y-153416000D02*
X131191000Y-153035000D01*
X133731000Y-153416000D02*
X133731000Y-153035000D01*
X133223000Y-153416000D02*
X133223000Y-153035000D01*
X124587000Y-155956000D02*
X122047000Y-155956000D01*
X123571000Y-162052000D02*
X123571000Y-155956000D01*
X123063000Y-162052000D02*
X123571000Y-162052000D01*
X123063000Y-155956000D02*
X123063000Y-162052000D01*
X124587000Y-153416000D02*
X124587000Y-155956000D01*
X122047000Y-153416000D02*
X124587000Y-153416000D01*
X122047000Y-153416000D02*
X122047000Y-155956000D01*
X127127000Y-153416000D02*
X127127000Y-155956000D01*
X127127000Y-153416000D02*
X129667000Y-153416000D01*
X129667000Y-153416000D02*
X129667000Y-155956000D01*
X128143000Y-155956000D02*
X128143000Y-162052000D01*
X128143000Y-162052000D02*
X128651000Y-162052000D01*
X128651000Y-162052000D02*
X128651000Y-155956000D01*
X129667000Y-155956000D02*
X127127000Y-155956000D01*
X127127000Y-155956000D02*
X124587000Y-155956000D01*
X126111000Y-162052000D02*
X126111000Y-155956000D01*
X125603000Y-162052000D02*
X126111000Y-162052000D01*
X125603000Y-155956000D02*
X125603000Y-162052000D01*
X127127000Y-153416000D02*
X127127000Y-155956000D01*
X124587000Y-153416000D02*
X127127000Y-153416000D01*
X124587000Y-153416000D02*
X124587000Y-155956000D01*
X132207000Y-153416000D02*
X132207000Y-155956000D01*
X132207000Y-153416000D02*
X134747000Y-153416000D01*
X134747000Y-153416000D02*
X134747000Y-155956000D01*
X133223000Y-155956000D02*
X133223000Y-162052000D01*
X133223000Y-162052000D02*
X133731000Y-162052000D01*
X133731000Y-162052000D02*
X133731000Y-155956000D01*
X134747000Y-155956000D02*
X132207000Y-155956000D01*
X132207000Y-155956000D02*
X129667000Y-155956000D01*
X131191000Y-162052000D02*
X131191000Y-155956000D01*
X130683000Y-162052000D02*
X131191000Y-162052000D01*
X130683000Y-155956000D02*
X130683000Y-162052000D01*
X132207000Y-153416000D02*
X132207000Y-155956000D01*
X129667000Y-153416000D02*
X132207000Y-153416000D01*
X129667000Y-153416000D02*
X129667000Y-155956000D01*
X135737000Y-150592000D02*
X137287000Y-150592000D01*
X135737000Y-151892000D02*
X135737000Y-150592000D01*
X137160000Y-156083000D02*
X137160000Y-161925000D01*
X137160000Y-161925000D02*
X137414000Y-161925000D01*
X137414000Y-161925000D02*
X137414000Y-156083000D01*
X137414000Y-156083000D02*
X137287000Y-156083000D01*
X137287000Y-156083000D02*
X137287000Y-161925000D01*
X137033000Y-153416000D02*
X137033000Y-153035000D01*
X137541000Y-153416000D02*
X137541000Y-153035000D01*
X139573000Y-153416000D02*
X139573000Y-153035000D01*
X140081000Y-153416000D02*
X140081000Y-153035000D01*
X142113000Y-153416000D02*
X142113000Y-153035000D01*
X142621000Y-153416000D02*
X142621000Y-153035000D01*
X144653000Y-153416000D02*
X144653000Y-153035000D01*
X145161000Y-153416000D02*
X145161000Y-153035000D01*
X147701000Y-153416000D02*
X147701000Y-153035000D01*
X147193000Y-153416000D02*
X147193000Y-153035000D01*
X138557000Y-155956000D02*
X136017000Y-155956000D01*
X137541000Y-162052000D02*
X137541000Y-155956000D01*
X137033000Y-162052000D02*
X137541000Y-162052000D01*
X137033000Y-155956000D02*
X137033000Y-162052000D01*
X138557000Y-153416000D02*
X138557000Y-155956000D01*
X136017000Y-153416000D02*
X138557000Y-153416000D01*
X136017000Y-153416000D02*
X136017000Y-155956000D01*
X141097000Y-153416000D02*
X141097000Y-155956000D01*
X141097000Y-153416000D02*
X143637000Y-153416000D01*
X143637000Y-153416000D02*
X143637000Y-155956000D01*
X142113000Y-155956000D02*
X142113000Y-162052000D01*
X142113000Y-162052000D02*
X142621000Y-162052000D01*
X142621000Y-162052000D02*
X142621000Y-155956000D01*
X143637000Y-155956000D02*
X141097000Y-155956000D01*
X141097000Y-155956000D02*
X138557000Y-155956000D01*
X140081000Y-162052000D02*
X140081000Y-155956000D01*
X139573000Y-162052000D02*
X140081000Y-162052000D01*
X139573000Y-155956000D02*
X139573000Y-162052000D01*
X141097000Y-153416000D02*
X141097000Y-155956000D01*
X138557000Y-153416000D02*
X141097000Y-153416000D01*
X138557000Y-153416000D02*
X138557000Y-155956000D01*
X146177000Y-153416000D02*
X146177000Y-155956000D01*
X146177000Y-153416000D02*
X148717000Y-153416000D01*
X148717000Y-153416000D02*
X148717000Y-155956000D01*
X147193000Y-155956000D02*
X147193000Y-162052000D01*
X147193000Y-162052000D02*
X147701000Y-162052000D01*
X147701000Y-162052000D02*
X147701000Y-155956000D01*
X148717000Y-155956000D02*
X146177000Y-155956000D01*
X146177000Y-155956000D02*
X143637000Y-155956000D01*
X145161000Y-162052000D02*
X145161000Y-155956000D01*
X144653000Y-162052000D02*
X145161000Y-162052000D01*
X144653000Y-155956000D02*
X144653000Y-162052000D01*
X146177000Y-153416000D02*
X146177000Y-155956000D01*
X143637000Y-153416000D02*
X146177000Y-153416000D01*
X143637000Y-153416000D02*
X143637000Y-155956000D01*
X149707000Y-150592000D02*
X151257000Y-150592000D01*
X149707000Y-151892000D02*
X149707000Y-150592000D01*
X151130000Y-156083000D02*
X151130000Y-161925000D01*
X151130000Y-161925000D02*
X151384000Y-161925000D01*
X151384000Y-161925000D02*
X151384000Y-156083000D01*
X151384000Y-156083000D02*
X151257000Y-156083000D01*
X151257000Y-156083000D02*
X151257000Y-161925000D01*
X151003000Y-153416000D02*
X151003000Y-153035000D01*
X151511000Y-153416000D02*
X151511000Y-153035000D01*
X153543000Y-153416000D02*
X153543000Y-153035000D01*
X154051000Y-153416000D02*
X154051000Y-153035000D01*
X156083000Y-153416000D02*
X156083000Y-153035000D01*
X156591000Y-153416000D02*
X156591000Y-153035000D01*
X158623000Y-153416000D02*
X158623000Y-153035000D01*
X159131000Y-153416000D02*
X159131000Y-153035000D01*
X161671000Y-153416000D02*
X161671000Y-153035000D01*
X161163000Y-153416000D02*
X161163000Y-153035000D01*
X152527000Y-155956000D02*
X149987000Y-155956000D01*
X151511000Y-162052000D02*
X151511000Y-155956000D01*
X151003000Y-162052000D02*
X151511000Y-162052000D01*
X151003000Y-155956000D02*
X151003000Y-162052000D01*
X152527000Y-153416000D02*
X152527000Y-155956000D01*
X149987000Y-153416000D02*
X152527000Y-153416000D01*
X149987000Y-153416000D02*
X149987000Y-155956000D01*
X155067000Y-153416000D02*
X155067000Y-155956000D01*
X155067000Y-153416000D02*
X157607000Y-153416000D01*
X157607000Y-153416000D02*
X157607000Y-155956000D01*
X156083000Y-155956000D02*
X156083000Y-162052000D01*
X156083000Y-162052000D02*
X156591000Y-162052000D01*
X156591000Y-162052000D02*
X156591000Y-155956000D01*
X157607000Y-155956000D02*
X155067000Y-155956000D01*
X155067000Y-155956000D02*
X152527000Y-155956000D01*
X154051000Y-162052000D02*
X154051000Y-155956000D01*
X153543000Y-162052000D02*
X154051000Y-162052000D01*
X153543000Y-155956000D02*
X153543000Y-162052000D01*
X155067000Y-153416000D02*
X155067000Y-155956000D01*
X152527000Y-153416000D02*
X155067000Y-153416000D01*
X152527000Y-153416000D02*
X152527000Y-155956000D01*
X160147000Y-153416000D02*
X160147000Y-155956000D01*
X160147000Y-153416000D02*
X162687000Y-153416000D01*
X162687000Y-153416000D02*
X162687000Y-155956000D01*
X161163000Y-155956000D02*
X161163000Y-162052000D01*
X161163000Y-162052000D02*
X161671000Y-162052000D01*
X161671000Y-162052000D02*
X161671000Y-155956000D01*
X162687000Y-155956000D02*
X160147000Y-155956000D01*
X160147000Y-155956000D02*
X157607000Y-155956000D01*
X159131000Y-162052000D02*
X159131000Y-155956000D01*
X158623000Y-162052000D02*
X159131000Y-162052000D01*
X158623000Y-155956000D02*
X158623000Y-162052000D01*
X160147000Y-153416000D02*
X160147000Y-155956000D01*
X157607000Y-153416000D02*
X160147000Y-153416000D01*
X157607000Y-153416000D02*
X157607000Y-155956000D01*
X105440000Y-135864000D02*
X105440000Y-137414000D01*
X104140000Y-135864000D02*
X105440000Y-135864000D01*
X99949000Y-137287000D02*
X94107000Y-137287000D01*
X94107000Y-137287000D02*
X94107000Y-137541000D01*
X94107000Y-137541000D02*
X99949000Y-137541000D01*
X99949000Y-137541000D02*
X99949000Y-137414000D01*
X99949000Y-137414000D02*
X94107000Y-137414000D01*
X102616000Y-137160000D02*
X102997000Y-137160000D01*
X102616000Y-137668000D02*
X102997000Y-137668000D01*
X102616000Y-139700000D02*
X102997000Y-139700000D01*
X102616000Y-140208000D02*
X102997000Y-140208000D01*
X102616000Y-142240000D02*
X102997000Y-142240000D01*
X102616000Y-142748000D02*
X102997000Y-142748000D01*
X102616000Y-150368000D02*
X102997000Y-150368000D01*
X102616000Y-149860000D02*
X102997000Y-149860000D01*
X102616000Y-147828000D02*
X102997000Y-147828000D01*
X102616000Y-147320000D02*
X102997000Y-147320000D01*
X102616000Y-145288000D02*
X102997000Y-145288000D01*
X102616000Y-144780000D02*
X102997000Y-144780000D01*
X102616000Y-136144000D02*
X100076000Y-136144000D01*
X102616000Y-138684000D02*
X100076000Y-138684000D01*
X102616000Y-138684000D02*
X102616000Y-141224000D01*
X102616000Y-141224000D02*
X100076000Y-141224000D01*
X100076000Y-139700000D02*
X93980000Y-139700000D01*
X93980000Y-139700000D02*
X93980000Y-140208000D01*
X93980000Y-140208000D02*
X100076000Y-140208000D01*
X100076000Y-141224000D02*
X100076000Y-138684000D01*
X100076000Y-138684000D02*
X100076000Y-136144000D01*
X93980000Y-137668000D02*
X100076000Y-137668000D01*
X93980000Y-137160000D02*
X93980000Y-137668000D01*
X100076000Y-137160000D02*
X93980000Y-137160000D01*
X102616000Y-138684000D02*
X100076000Y-138684000D01*
X102616000Y-136144000D02*
X102616000Y-138684000D01*
X102616000Y-146304000D02*
X100076000Y-146304000D01*
X102616000Y-146304000D02*
X102616000Y-148844000D01*
X102616000Y-148844000D02*
X100076000Y-148844000D01*
X100076000Y-147320000D02*
X93980000Y-147320000D01*
X93980000Y-147320000D02*
X93980000Y-147828000D01*
X93980000Y-147828000D02*
X100076000Y-147828000D01*
X100076000Y-148844000D02*
X100076000Y-146304000D01*
X100076000Y-151384000D02*
X100076000Y-148844000D01*
X93980000Y-150368000D02*
X100076000Y-150368000D01*
X93980000Y-149860000D02*
X93980000Y-150368000D01*
X100076000Y-149860000D02*
X93980000Y-149860000D01*
X102616000Y-151384000D02*
X100076000Y-151384000D01*
X102616000Y-148844000D02*
X102616000Y-151384000D01*
X102616000Y-148844000D02*
X100076000Y-148844000D01*
X102616000Y-143764000D02*
X100076000Y-143764000D01*
X102616000Y-143764000D02*
X102616000Y-146304000D01*
X102616000Y-146304000D02*
X100076000Y-146304000D01*
X100076000Y-144780000D02*
X93980000Y-144780000D01*
X93980000Y-144780000D02*
X93980000Y-145288000D01*
X93980000Y-145288000D02*
X100076000Y-145288000D01*
X100076000Y-146304000D02*
X100076000Y-143764000D01*
X100076000Y-143764000D02*
X100076000Y-141224000D01*
X93980000Y-142748000D02*
X100076000Y-142748000D01*
X93980000Y-142240000D02*
X93980000Y-142748000D01*
X100076000Y-142240000D02*
X93980000Y-142240000D01*
X102616000Y-143764000D02*
X100076000Y-143764000D01*
X102616000Y-141224000D02*
X102616000Y-143764000D01*
X102616000Y-141224000D02*
X100076000Y-141224000D01*
X154749500Y-126746000D02*
X154749500Y-108966000D01*
X154749500Y-108966000D02*
X152209500Y-108966000D01*
X152209500Y-108966000D02*
X152209500Y-126746000D01*
X155029500Y-129566000D02*
X155029500Y-128016000D01*
X154749500Y-126746000D02*
X152209500Y-126746000D01*
X151929500Y-128016000D02*
X151929500Y-129566000D01*
X151929500Y-129566000D02*
X155029500Y-129566000D01*
X119197380Y-120546904D02*
X118197380Y-120546904D01*
X118197380Y-120927857D01*
X118245000Y-121023095D01*
X118292619Y-121070714D01*
X118387857Y-121118333D01*
X118530714Y-121118333D01*
X118625952Y-121070714D01*
X118673571Y-121023095D01*
X118721190Y-120927857D01*
X118721190Y-120546904D01*
X118197380Y-121975476D02*
X118197380Y-121785000D01*
X118245000Y-121689761D01*
X118292619Y-121642142D01*
X118435476Y-121546904D01*
X118625952Y-121499285D01*
X119006904Y-121499285D01*
X119102142Y-121546904D01*
X119149761Y-121594523D01*
X119197380Y-121689761D01*
X119197380Y-121880238D01*
X119149761Y-121975476D01*
X119102142Y-122023095D01*
X119006904Y-122070714D01*
X118768809Y-122070714D01*
X118673571Y-122023095D01*
X118625952Y-121975476D01*
X118578333Y-121880238D01*
X118578333Y-121689761D01*
X118625952Y-121594523D01*
X118673571Y-121546904D01*
X118768809Y-121499285D01*
X114879380Y-153947904D02*
X113879380Y-153947904D01*
X113879380Y-154328857D01*
X113927000Y-154424095D01*
X113974619Y-154471714D01*
X114069857Y-154519333D01*
X114212714Y-154519333D01*
X114307952Y-154471714D01*
X114355571Y-154424095D01*
X114403190Y-154328857D01*
X114403190Y-153947904D01*
X114879380Y-155471714D02*
X114879380Y-154900285D01*
X114879380Y-155186000D02*
X113879380Y-155186000D01*
X114022238Y-155090761D01*
X114117476Y-154995523D01*
X114165095Y-154900285D01*
X128722380Y-153947904D02*
X127722380Y-153947904D01*
X127722380Y-154328857D01*
X127770000Y-154424095D01*
X127817619Y-154471714D01*
X127912857Y-154519333D01*
X128055714Y-154519333D01*
X128150952Y-154471714D01*
X128198571Y-154424095D01*
X128246190Y-154328857D01*
X128246190Y-153947904D01*
X127817619Y-154900285D02*
X127770000Y-154947904D01*
X127722380Y-155043142D01*
X127722380Y-155281238D01*
X127770000Y-155376476D01*
X127817619Y-155424095D01*
X127912857Y-155471714D01*
X128008095Y-155471714D01*
X128150952Y-155424095D01*
X128722380Y-154852666D01*
X128722380Y-155471714D01*
X142819380Y-153947904D02*
X141819380Y-153947904D01*
X141819380Y-154328857D01*
X141867000Y-154424095D01*
X141914619Y-154471714D01*
X142009857Y-154519333D01*
X142152714Y-154519333D01*
X142247952Y-154471714D01*
X142295571Y-154424095D01*
X142343190Y-154328857D01*
X142343190Y-153947904D01*
X141819380Y-154852666D02*
X141819380Y-155471714D01*
X142200333Y-155138380D01*
X142200333Y-155281238D01*
X142247952Y-155376476D01*
X142295571Y-155424095D01*
X142390809Y-155471714D01*
X142628904Y-155471714D01*
X142724142Y-155424095D01*
X142771761Y-155376476D01*
X142819380Y-155281238D01*
X142819380Y-154995523D01*
X142771761Y-154900285D01*
X142724142Y-154852666D01*
X156662380Y-153947904D02*
X155662380Y-153947904D01*
X155662380Y-154328857D01*
X155710000Y-154424095D01*
X155757619Y-154471714D01*
X155852857Y-154519333D01*
X155995714Y-154519333D01*
X156090952Y-154471714D01*
X156138571Y-154424095D01*
X156186190Y-154328857D01*
X156186190Y-153947904D01*
X155995714Y-155376476D02*
X156662380Y-155376476D01*
X155614761Y-155138380D02*
X156329047Y-154900285D01*
X156329047Y-155519333D01*
X102338095Y-144216380D02*
X102338095Y-143216380D01*
X101957142Y-143216380D01*
X101861904Y-143264000D01*
X101814285Y-143311619D01*
X101766666Y-143406857D01*
X101766666Y-143549714D01*
X101814285Y-143644952D01*
X101861904Y-143692571D01*
X101957142Y-143740190D01*
X102338095Y-143740190D01*
X100861904Y-143216380D02*
X101338095Y-143216380D01*
X101385714Y-143692571D01*
X101338095Y-143644952D01*
X101242857Y-143597333D01*
X101004761Y-143597333D01*
X100909523Y-143644952D01*
X100861904Y-143692571D01*
X100814285Y-143787809D01*
X100814285Y-144025904D01*
X100861904Y-144121142D01*
X100909523Y-144168761D01*
X101004761Y-144216380D01*
X101242857Y-144216380D01*
X101338095Y-144168761D01*
X101385714Y-144121142D01*
X154217595Y-133568380D02*
X154217595Y-132568380D01*
X153836642Y-132568380D01*
X153741404Y-132616000D01*
X153693785Y-132663619D01*
X153646166Y-132758857D01*
X153646166Y-132901714D01*
X153693785Y-132996952D01*
X153741404Y-133044571D01*
X153836642Y-133092190D01*
X154217595Y-133092190D01*
X153312833Y-132568380D02*
X152646166Y-132568380D01*
X153074738Y-133568380D01*
%LPC*%
D11*
X113665000Y-128905000D03*
D12*
X113665000Y-123825000D03*
X113665000Y-118745000D03*
X113665000Y-113665000D03*
D13*
X111125000Y-131445000D03*
X111125000Y-111125000D03*
D14*
X103505000Y-126365000D03*
X103505000Y-116205000D03*
D15*
X102050000Y-105170000D03*
D16*
X102050000Y-102630000D03*
X104590000Y-105170000D03*
X104590000Y-102630000D03*
X107130000Y-105170000D03*
X107130000Y-102630000D03*
X109670000Y-105170000D03*
X109670000Y-102630000D03*
X112210000Y-105170000D03*
X112210000Y-102630000D03*
X114750000Y-105170000D03*
X114750000Y-102630000D03*
X117290000Y-105170000D03*
X117290000Y-102630000D03*
X119830000Y-105170000D03*
X119830000Y-102630000D03*
X122370000Y-105170000D03*
X122370000Y-102630000D03*
X124910000Y-105170000D03*
X124910000Y-102630000D03*
X127450000Y-105170000D03*
X127450000Y-102630000D03*
X129990000Y-105170000D03*
X129990000Y-102630000D03*
X132530000Y-105170000D03*
X132530000Y-102630000D03*
D17*
X109347000Y-151892000D03*
D18*
X111887000Y-151892000D03*
X114427000Y-151892000D03*
X116967000Y-151892000D03*
X119507000Y-151892000D03*
D17*
X123317000Y-151892000D03*
D18*
X125857000Y-151892000D03*
X128397000Y-151892000D03*
X130937000Y-151892000D03*
X133477000Y-151892000D03*
D17*
X137287000Y-151892000D03*
D18*
X139827000Y-151892000D03*
X142367000Y-151892000D03*
X144907000Y-151892000D03*
X147447000Y-151892000D03*
D17*
X151257000Y-151892000D03*
D18*
X153797000Y-151892000D03*
X156337000Y-151892000D03*
X158877000Y-151892000D03*
X161417000Y-151892000D03*
D19*
X104140000Y-137414000D03*
D20*
X104140000Y-139954000D03*
X104140000Y-142494000D03*
X104140000Y-145034000D03*
X104140000Y-147574000D03*
X104140000Y-150114000D03*
D19*
X153479500Y-128016000D03*
D20*
X153479500Y-125476000D03*
X153479500Y-122936000D03*
X153479500Y-120396000D03*
X153479500Y-117856000D03*
X153479500Y-115316000D03*
X153479500Y-112776000D03*
X153479500Y-110236000D03*
M02*
